<mxfile host="Electron" agent="Mozilla/5.0 (Windows NT 10.0; Win64; x64) AppleWebKit/537.36 (KHTML, like Gecko) draw.io/25.0.2 Chrome/128.0.6613.186 Electron/32.2.5 Safari/537.36" version="25.0.2">
  <diagram name="Page-1" id="so8p1Psh-hAcVk3M57ye">
    <mxGraphModel dx="6012" dy="3259" grid="1" gridSize="10" guides="1" tooltips="1" connect="1" arrows="1" fold="1" page="1" pageScale="1" pageWidth="827" pageHeight="1169" math="0" shadow="0">
      <root>
        <mxCell id="0" />
        <mxCell id="1" parent="0" />
        <mxCell id="m7nDWIWxTjSlVd-6DrOc-7" value="Fenetre de connexion" style="swimlane;whiteSpace=wrap;html=1;" vertex="1" parent="1">
          <mxGeometry x="-390" y="60" width="310" height="350" as="geometry" />
        </mxCell>
        <mxCell id="m7nDWIWxTjSlVd-6DrOc-8" value="" style="shape=image;verticalLabelPosition=bottom;labelBackgroundColor=default;verticalAlign=top;aspect=fixed;imageAspect=0;image=data:image/png,iVBORw0KGgoAAAANSUhEUgAAArAAAAMiCAYAAACWnfBKAAAAAXNSR0IArs4c6QAAAARnQU1BAACxjwv8YQUAAAAJcEhZcwAADsMAAA7DAcdvqGQAAP+BSURBVHhe7N11fBP3/wfwV5K6Ky0FSilSfNhgw2WMMWRsbGwwh8l3+hvOfIMpjLm7C1pkMIYPl6KFtrSU0mJ19yb5/RFpcknb5N7xvJ+PRzZ6n8vl+vrcXd69fO4i6dmzpxJqSqX2n8xEzphZWVkZACAoKEjYxJge3lYcl6ZvGGPORSKRCCcxE+lmJ2vVqtVrphRhpszDnENtbS0AwNvbW9jEHJg99sG6ujoAgJeXl7CJ2ZmmbxhjzFYcofjWrIMsMjLyNWGjLnu8aTLrskQBy9uFe9AUSZRthVkHF7CMMVdiTnEskUgg6dGjh14l4unpCV9fX3h7e8PT0xMymUy3mbmAmpoaAICPj4+wiVlQbGyscBJjzE2cO3dOOIkxZoKGhgbU1dWhpqYGlZWVTf6xLnlyxjmlEkpAqYTUsxBevgUYdlNHtG4XhDZtgxEUzEUOY2IsmPsMtmzZIpzMGHNx48aNw9LlnwgnMzvTPb/HnyE6Hk3/lJXW4PKlUlzNKcN/286jrjoCivpwQCKBRD2XRCKBVFO8ynxy0K0v8PSi4Rh9S2d06xHFxStjFjRu3Lhmf2aMMWY9mqKVi1fHFhTsg249ojD6ls54ZtEwdO8LyHxyAKUSSigBKKFUKiEZNmyY0s/PD0OGDsOzz80XLocxJhL1DOzmzZuFk5o0fvx44SSnYM7vaIypv7e9Xqel55k7vyPq0aMHhg4dio4dOyI8PBw1NTVITU3F4cOHcejQIeHsFhEREYFbb70VPXv2RNeuXQEAqampSE5Oxvbt23H58mXhU2yKz8AyJk5To2A/+mAZ9u3bg6qqKu1YWckNN9ygjImJwVvvvo/o6NbC56hI+E8WxszVVAE7btw4o9OFhMVNcxy58ImNjUV2drZwMqD+HcWuuznPNWdeIXOea868QqY8t7ksdXl4eCAqKspoIdemTRsUFBRoL+YUy9/fH3PnzkV8fDz+/vtvnD59GsXFxYiJiUF8fDxuueUWlJaW4v3338eVK1eETzdgyu/m4+ODe+65B3ffczeS65ORnJ+MtMI0NCgb0CWsC7pHdEcvr15Yu2It/vzzT+14/6aY8ppicAHLmGVdu3YVLyycgytXrqChoQEAIPX19cXEybc3X7zq/p8xRmJK8cqc2+bNm816WEpERASWLFmCnTt3Ytu2bcJmAMC2bduwa9cuLF26FB06dBA2m8Tf3x8ffvghcnNzMWvWLKxcuRJt27bFu+++i65du2L16tV46qmnkJ6ejvfeew8xMTHCRYjy7LPP4p7/3YPXT7+Oy6WXcVeXu/DJmE/x1div8UC3ByFvkOPFEy9i4syJePPNN4VPZ8zmXKl0kggethQd3RoTJ9+ud/G51NPTE3Ed4vVmbJKt15gxFyIc8yr82Zjx48eb9KD45ptvDAqqph7ffPON9nlxcXFo27at3rJYI2EfNfWwpNdeew0hISGYPXu2sEnPk08+iZqaGixdulTYZJK5c+fi+PHj+OqrryCXywEA06dPR1RUFB544AFAfZuvr776Ctu2bcPLL79MvqPNQw89hNF3jMaLu1/Ea4Nfx8M9Z6JdQCy8pF7wkHigtX9rTOl0Oz6/6XMsP7Qcrfu1xsMPPyxcjEWEhoaiW7duwsmMuQ17fCjfoUO83j3JpZ6enuhgagFrjzVmzEUIz7wKf7aXtm3bGhRVTT3atm0LmUyGmTNn4q233sJ7770nXBzJlClThJOsQliYCx9iUQpSynM1+vXrhz/++AOvvPIKUlNTMWbMGCxfvhz//PMPPv30U0yZMgVHjhzBZ599hhUrVqBnz57CRbSoR48eiI+Px7fffqs3fcOGDairq8OmTZv0pv/0009QKBS48cYb9aabIyIiArMemYXX9ryGN4e+hdb+hp8YVtZXYvSKUfgr7S8sH/U+luxbgllPzhJ9lrkpoaGhuO6663Dt2jVhE2MGXKlsUl0+ZfrvJDxjSz1zG9chHp6entr70EtlMhlCw8KE8zVSAqkpKTh48CAOHjLvkZJyBgqFQrhExtyaKWdedQmLK2GRRSm4xPjggw8QHx+PZ599FsHBwcJmkscffxxDhw4VTrYKYXGueViarYpyqIur3NxcdO7cGSdPnsTChQtx8uRJLF68GDt37sQdd9yBsrIyhIaGorq6Wvh0kwwdOlRbrOpKTEzEbbfdhk8+0R/7KZfLsXr1atx66616081x991342DxQdzQ+gajxSsA/H1hIwDgzs53wd/DH49f9zjWnl+LCRMmCGcVTVO8njx5EsXFxcJmxpgJxBazoaFh2k9ylEolpNqWZpZ0+fIlREREICIivIlHBCIjVY86uQR1DUBdA3AhKwulpSXCxTHm1sw98yossHQLLc3Ywh49egieZT07duzASy+9hIKCAmGTRTz22GMYNWqUcLLTevzxxzFixAjhZIubMmWK9uN8ABg8eDDmzJmDffv2ITc3FydOnEBUVBRGjhwJAPD19UVxcTEGDhyos5SWdezYEWfOnAHUryn8w0r3oSneMzMzERcXJ1iS6Tp16oTk/GSMi7tF2AQAKKgpwJcnvsRT/Z5CmI/qhEyfqD44k38GHTt2FM4uChevjFmeucWs7reASk35StCw0BD07NYJPbp2buLRCd0TVI+xIwZh7MgbcPOoGxAZEY7aWiPfoCA8nyx8MOaChGdehT+bIzQ0FHPnzsVbb70FAHjuueewdOlSdO7cWTirxSUmJgonWVRkZCTuuususwsrR9DU2fBHHnkEo0ePFk7W09RzTfX222/jyy+/xJAhQwAAv/76q95Z1s8//xxt2rTB66+/DgAYM2YMfvrpJ/z000/aeUwRHh6uLeASExO1f1D99ttvAIDffvtNO02zrWRlZSE0NFRvOebo1KkT0grTEOEbIWwCAOy+tAsAMKKtqjgHgBCvUKQUpKBTp046c4rDxStj4lx3XXfs2fOfcLLWnj3/oU8f1QkYc8vAxjOwzdSxMqkEWRfz8NFv+/DxH3vxyV978Omq//D52t24kHkZ1ZXlyM+9hvzca6iqLMcvW07h539OCRfTSD2Iom+vbggJ8NY+Du7f1+x6NOXggX0ICfRG397d8NGHy9G3t2pw/epVKzB39rPC2XHwwD5MvX2icDJCApv+vveQQG+sXrVC+2/ovG5W1gXB3IwZEp55Ff7cFOGQAQCYOXMmWrdujf/7v/8D1Fdnl5aWYsGCBXrzOasOHTpg2rRpNj2zbGm6fRYREYGnn34a8fGq6w2MDQWxhOLiYkREqIq8mpoafPrpp/Dy8tIWrw899BCOHTsGqAvR0tJSwRJaVlNTY/YFWaGhoeQz9nWKOsikqresL059jtErRqGyoRJ1ijp8duwzjI4djQifxgJXAgkUsMwQNi8vLyiVSoNhE4yxpikBfPLpl5g18wH8t+c/vTG0SgD/7fkPs2Y+gE8++UL4VIPzmsYKWylaDWmxaFQoFJBIZMgqrUBWeQWyq8uQU1uKS/UlqK+XA0rDg4TMy3CaMSdOp6KkvBb//LsDt9zc/BmKpixb+jb++XcHjp9Kwf89NxfHT6UIZzHb1Nsn4uCBfdqfS8prMfXOaXrz3HDjEJSU1yIuzvyLBITLZ+7D3DOvwrGZMTEx6NWrF5YsWYLS0lKMHz8e1dXVWLZsGerq6kgXy5jC0stvqpDr0aMHpk2bpr0IR/jxtCMT9hnUH9k//fTT6NWrl9HhIFTPP/88FixYgI0bVWNBPTw8EB4ejvXr12uL1+LiYrRr1w4AsGrVKvzvf//DG2+8IVhS81JTU42eHY+Pj8eZM2eMtnXt2hXp6enCySbLyMhA1/CuyKvKBwA80P1BAMDPZ3/C6vRVAICn+j6t95zKhkp0Cu2EjIwMveli5ObmIjU1FQMGDIC/v7+wmTGnZawwtKRhw4bj2+9/xiMzH9A7E7tnz394ZOYD+Pb7nzFs2HC955hKOmFqy+OS6upVN42NjPCGxKsepfVlyK8pxLXqPPUcEnVFraqEfUJr4BdRqbOElt1w4xCMuWms+UWdBMg8fx7RrS1zn0HGrM3UM6/GbN68Gd999x2ioqLw559/6rWtW7cO8fHxeOWVV6xa4D3++ON45pln4OvrK2wyW0tF3MCBAzFt2jRERkYaFH1NPcfemiuyu3XrhmnTplnlTGxiYiK8vLy042DvuusuzJw5E8nJydriFQDuu+8+AEBlZSWioqK0H/2b6vDhwwbDIbp27YquXbvihRdegEwmMxjzO27cOJw61cynci04f/48ukd0x6GrBwEA/h7+eKjXQ1iZuhLfnPwG93S7B6He+kMUUgtT0COyh0UKWHAR6zaEZ/yED1ei+/tY83cUFrHC4rWFc6hNkoYgSDitSWdzL+FCyVWUNJSgGuWok1SoW1Tlq0T9q/uHVsAvQN1mZhrRrWO0H/FPvX2i3nCAkEBv7UNT6Pbt1Q0XLmSiT6+umDv72SaHDZhj6u0TsX3bVtxy82jt6/ft3c1gqEBW1gVtO9RDCzQPzby60zTrZWz5WVkXjD5feKZW92fNkAndPJjjEp55Ff7cFN0CZ/z48Vi4cCGysrJwxx136M03ceJEnD59GsuWLbNqcffUU0/B398fn376qegr2c0xcuRI3H333RYvGoRndC1RSJpSYA8YMAB33303oqOjTZrfHOXl5QgNDcWVK1fQtWtXvPLKK/jqq6+0Z16ff/55DBkyBNXV1Xr3UzTHoUOHUFdXp3d3hZkzZ+L777/X3vv1gQce0A4zGDp0KMLCwrBhwwadpZhnw4YNGBE9AokZiSisLQQA3Nqh8e4Cd3SeqjM3UCmvxNLDS3F7p9uxd+9evTYKLmJdn/BjbuHDldjy99EtYqlnXjWkgOlfo1eDSnj61sPDpx4e3vXw9NGMB5Joi1cA6BoRi04h6is/TUxo9aoVyDx/Xvtx/PZtWzF/wfM4fioFBw/sw6yH70dJeS1Kymtx4nQqbrl5NLKyLuD46RR06BCPE6dTsfyDj4WLFWX12o0Yc9NY7bAEU8yd/Sy+++EX7Tpqfg/NzyXltdixfSuysi4YXX6fXl31fr+5s58RvIJx2RcvoqS8FjfcqLpwgzku4ZlX4c9NERY3p06dQnl5OebMmQMvLy9s3rwZMpkMjzzyCNq2bWv2G3ZxcbFBEdfUo7i4GJWVlXjnnXfw9ddfY9myZcLFWURSUhKeeOIJLFu2DImJiYiLi8PUqfpFCoWwcBQ+rCE1NRU///wzDhw4gO7du+Oxxx4zeyxpS5KTkzF58mQsXLgQALB79268+OKL2LhxI9566y2cP38eAPDEE0/g5ptvxsWLFwVLMM3777+PKVOm4NZbb4VMJsPx48exc+dOQL19btq0CV5eXhg9erT2AkPdOySY6+LFi/j+q+/x4uAX8dq+V1HZUIkInwjsmLYTO6bt1Bv7Wqeow5sH3sCz1z+LX774BSdPntRbFpWmiLXExWGM2ZuwQDexZLOZ5tZNWoLYxp9aOFfu4VsPT596eHrXqR5eqgJWM3RAo1NoPDqFmvblCH16dUVIoDdmPXw/jp9O0b7umJvGaouyQ4cO4vUlqqutASAurgNmPfI4ko4eMfyN7GTwkKGY9fD9BmdCNWdIQwK9ceFCpl6bhuY5mvn69OqK7du2Cmcz6pn/a/4bd5jjMfXMa3O++eYbxMXF4YMPPgDUV6CPGDFCexbMHDNmzDAo4Jp6zJgxQ/u8Q4cO4cCBA3rLsoSCggIsW7YMWVlZ2LFjB7766ivMmzcPP//8s3BWp1FcXIw333wTf/zxBxYvXoz7778fH330EQICAoSzkixZsgRt27bFRx99BAD47LPPMGzYMHTr1g2DBw/G22+/DQB47733cP3112sLXXNduXIFL7zwAiZNmoQlS5YgNzdXW4z7+/vjypUrePHFFzFlyhQ899xzuHTpknARZvvhhx9w6dgl/K/v/zDrn5nYmbMD5fVl2vbKhkok5R7FjI3TMaHTBAQVBOHXX3/VW4al5ObmWrwwZswZCMvEph5CusMGjI2JFZZyxgpWIenfq9Xjkoy9omBNPL3r4OGjKl69vGsbC1jdV1EC9Q0NqK6u0ZnYtBOnU1FSUYuSitrGiZrXbCoJtTZt2ggnmSS6dQwy1WciNLKyLpj+jWRGTL1zGkrKa7Fs6dvaIQAffbhce4a0pLy22eWPuWms3tnaknKdPJhLMfXMa3PS09Px6KOPat+g//nnHzz00EPYtm2bcFanIpfL8c4774i6Ot5RyeVyLFu2zOAq/NLSUov/nhcuXMDMmTMxceJEPPig6kInoQcffBB33XUX7rvvPlIRduXKFTz99NPYtGkTbrnlFvz888/YvHkzvvzyS4wdOxZHjx7F7NmzLVK8aixatAj//vQv3ur3FnIqc/DGwTcwee0kTFw7AS/ufQHHCo5hcd/FOPznYTzyyCNoaFBdv8EYo2umHDOgW8wKx7wKx8RqNHWmtSlS5LUwdlIJQCJBbW01BkZ0xICQzugX1AV9/LvhOt8eqK3VHwOnVCqhkMsht+A3cA264Qa8+vIL2p+zsi7gu2+/Ev2xuebjfc1tsQDgk48+wEMzH9GZJx6XL1/W/myq1Ws3Np4dBhDbvj2gPsuqewZWd/k33DgE27dtNTh7q5nv0CHVhQtZWRdMPjPLHI/wzKvwZ2OEH+FrHhqaM6A7duww+8yrrWRnmz5M6aefftLeJN/ShBma+qD6448/cPz4ceFkUUzNsri4GIcPHxZOBtQXYVnqa1Dlcjn27t2LBQsW4J577sH48eNx//33Y/HixUhMTDRr2IApv1tNTQ1+/PFHLPi/BfA66YX7Qu/D6kmrsXbSWsyKmIXA5EC889I7+PHHH1FT0/JJFFNekzEmnqZ4/U4w5rWpItYckkmTJil/+V11GxLVFPX/dUrggwf3Y8zIIaiuqtBOl0g9ACgApRIenl6QSCRokMshlyugUKgOWkePn0a7dnGIjo5uXJiOvr27Ye36TQa3oTp4YB+WLX0bq9eqbgcDdbE56+H7tT+fOJ2qfZ7uclavWoH9+/Zi+Qcf6/3bmBCd+76OuWms0dfr0CEex0+l6L1GSKA3SsprkZV1AbdPvhXHT6WoxsB++5XesrKyLqBPr67aaZnnz+utp+7yDx7Yp3cbsVmPPI7lH3yst4wOHeIR37Ej5i94HjfcOKTJ/JhjWDD3GYucbWWMOZdx48Zh6XL9r9RlzBVITDhDqi0jlUr07dsTn3zyhbZ4FT53z57/8MzT/8OJk2cFLcbdP+NOXLlyBTBawBqxdesWhIQ0/Z3nUqkUUqkUCrkcCp3xBIWFhejbdwCioqL05mfMHXABy5h74gKWuTvdIlYiMWfwgYqw0NUwu4Ctqa5GaVmZ3nfQmkIikSA4KAg+FrhfJGPOZsFc0+4kwRhzPVzAMnsQlormVW2WI1wPCt3fwewCljHGGGOMMVNYsoDVUAoKWKmnp6dwHsYYY4wxxkRp7syv7t0GmptPSALA09MTvr6+8PX1hVQ4A2OMMcYYYxSa4rSlgtXYNFNILf1NMIwxxhhjzPHp3q9VzKMlYovTpshkMu1DdQbW3DVijDHGGGMuQ3im1JTi054lo1Qul5u/xowxxhhjzKm1VPo116ZhyyJWLpejoaEBDQ0NkBYWFgrbGWOMMcYYMwm1iG2uSNYtsgsLC5GVlYWsrCwrXMTFwxAYY4wxxtyKcDSqKQ9dwsEALZ39tXwBqyFcM8YYY4wx5nSaKyQpKKWiZMSIEcqioiLhdIdi7jeAMUOcoXicHR1nSMcZ0nGGdJyheO6e3ZEjR4STzHbbbbchIyMDsOoZWAtx9w63BM5QPM6OjjOk4wzpOEMapVLJGRJwdpbn0AUsdzgdZygeZ0fHGdJxhjRceNFxfjScn3U4bAHLHU7DB20azo6OM6TjDGk4PzrOkIbzsx6HK2C58KLj/Gg4PzrOkIaPg3ScHx1nSMP5WZdDFbDc2XScIQ3nR8OFFx3nR8cZ0nGG4vFx0DYcpoDlzqbjDMXjAw4d50fHGdJxhnScoXicnThyuRzHjh1DTU2NsKlJDlHAcofTcYbicXZ0nCEdZ0jHGdJxhuJxduIolUocOXIEFy9exKFDhyCXy4WzGGX3ApY7nI4zFI+zo+MM6ThDOs6QjjMUj7MT7/Tp08jPz0f//v1RVVWFpKQkk/K0awFrygqy5nGG4nF2dJwhHWdIxxnScYbicXbinT9/HhcuXMCAAQMQGxuLQYMGITc3F8nJycJZDditgOUOp+MMxePs6DhDOs6QjjOkUfL4fxLOjubUqVPo1asXWrduDQAICwtD//79kZmZKZzVgF0KWO5wOs5QPM6OjjOk4wxpuPCi4/xoOD+6Tp06IT4+Xm9aTEwMevbsqTfNGJsXsNzhNHzQpuHs6DhDOs6QhvOj4wxpOD/L6NWrl3ASAKBjx47CSQZsVsBy4UXH+dFwfnScIQ0fB+k4PzrOkIbzcwzSVq1aCadZHHc2HWdIw/nRcOFFx/nRcYZ0nKF4fBy0v1atWqFTp07o1KmT9c/AcmfTcYbi8QGHjvOj4wzpOEM6zlA8zs7xSE29YawY3OF0nKF4nB0dZ0jHGdJxhnScoXicHZ2lMpTL5aivr0dDQwMkI0aMUBYVFQnnIbPUyrozzlA8zo6OM6TjDOk4QzrOUDzOjk6T4V9//SVsMtucOXOQkZEBWOsiLu5wOs5QPM6OjjOk4wzpOEM6zlA8zo7OmhlavIC15sq6C85QPM6OjjOk4wzpOEMaJY//J+Hs6KydoUULWGuvrKvjAw4NZ0fHGdJxhjR8HKTj/Gg4PzpbZGixAtYWK+vKOD8azo+OM6ThwouO86PjDGk4PxpbHgfJBawtV9ZVcX40nB8dZ0jD+dFxhnScoXhcy9DZOj9SAWvrlXVFnCEN50fDB206zo+OM6TjDMXj7OjskaHoAtYeK+tqOEPxuPCi4/zoOEM6zpCOMxSPs6OzV4aiClh7rawr4QzF4+zoOEM6zpCOM6TjDMXj7OjsmaHZBaw9V9ZVcIbicXZ0nCEdZ0jHGdJxhuJxdnT2ztCsAtbeK+sKOEPxODs6zpCOM6TjDOk4Q/E4OzpHyNDkAtYRVtbZcYbicXZ0nCEdZ0jHGdIoefw/CWdH5ygZmlTAOsrKOis+4NBwdnScIR1nSMPHQTrOj4bzo3OkDJstYPmAQ8f50XB+dJwhDR8H6Tg/Os6QhvOjccTjYJMFrKOtqDPiDGk4PxpHPOA4G86PjjOk4wzF4+MgnaPmZ7SAddSVdSacIQ3nR8P50XGGdJwhHWcoHmdH58gZGhSwjryyzoIzFI//Wqbj/Og4QzrOkI4zFI+zo3P0DPUKWEdfWWfAGYrH2dFxhnScIR1nSMcZisfZ0TlDhtoC1hlW1tFxhuJxdnScIR1nSMcZ0nGG4nF2dM6SoRROtLKOjDMUj7Oj4wzpOEM6zpCOMxSPs6NzpgwNxsAy8zlThzsazo6OM6TjDOk4Qxolj/8n4ezonC1DLmAJ+IBDw9nRcYZ0nCENHwfpOD8azo/OGTPkAlYkZ+xsR8L50XGGNFx40XF+dJwhDedH48zHQS5gRXDWznYUnB+NMx9wHAXnR8cZ0nGG4vFxkM7Z8+MC1kzO3uH2xAccOs6PjjOk4wzpOEPxODs6V8iQC1gzuEKH2wtnR8cZ0nGGdJwhHWcoHmdH5yoZcgFrIlfpcHvg7Og4QzrOkI4zpOMMxePs6FwpQy5gTeBKHW5rnB0dZ0jHGdJxhnScoXicHZ2rZcgFbAtcrcNtibNrSQxm/rQHp86cwZkzZ3DmTDKOrH8dN/o2zsEZ0nGGdJwhHWcoHmdH54oZcgHbDFfscFvh7FrijcFvfYOn+odBBgBQoiprM16b9SoOVKvm4AzpOEM6zpBGyRevknB2dK6aIRewRvABh4aza1nMzK/x7sQ4+EgAQImayzvx9kPz8Xe+qp0zpOMMafg4SMf50XB+dK6cIRewAq7c2bbA+bXMe/Bb+Oap/giTAYASdbn7sezeZ7CGi1eL4MKLjvOj4wxpOD8adzgOcgGrw9U729o4PxPEzMTX705EnOrUKxryD+Ddux/Dn/nuccCxNs6PjjOk4wzF4+MgnbvkxwWsmrt0uDXwAccMV77Hg8N6o0ePHujRoweuG/motnhlNJwhHWdIxxmKx9nRuVOGXMC6WYdbGmdHxxnScYZ0nCEdZygeZ0fnbhlKRowYoSwsLBROdxvu1uGW5KjZeUeNwMNzH8a4fh0RExoIPx/Pxr/UFPWoqalG6bVMnNm7Bp99vBqp6qv+0W8JNn17B9p7Ny7LKKUcNTXVqCq4gBM7V+ovQ+jOn3Dg9QEIEk5vTtF+PDf0Efyr+fmun3HQVsvQ5HMpBQc2fo0PfjqA/HrhTC3xxu3fbMPiIeHqOyyoVZzBZ7ffhc8u6040ot8b2PydsB/KcOzNW3DfbyW6EwHtdhiA3tMXYvY9Q9AlJhSBfj7wVHe6or4GVWWFuJT2H35dtgyrjXXWXb/g0GIT8mlBzfnfMH3iG0gF0P+Nf/Dd1PZoeXOqQU11JfIzT2DXik/x4epUGFlDAMBdvxzC4gHmrWXh/v/D0FnaLcEo/X25P97c8j2mtrgjKFBfU4WywkvIOLIOH77+A44bW/H+b2LL91NN3q8q8zNxYucKfPrhKqQYW15TAnpj+sI5mD60i2C/b1zPtN2/YtkyE5Y77RccXny9edtD4T48O3gmtqh/nPbrESy5Xn8J1Rm/YvqEJUjRmdb/rX/xg3A7ESzL1Tnqe4kzcYYM//rrL+Eks82ZMwcZGRmAu5+BdYYOd1QOmV3MVLy9Yif2b/scz0y4Hl1ahyFAt3gFAKknfPyCEBXfB6MfeA5zh+o2mkgig49vAMLa9cLoBxZj5Z5/8On09vAUzueMNPl0GYQpc77F1p0r8bLujWlNUotNm1JRIhdMDmiHG0eGCCYaShjfG1HCYqcsA5v/Nla8eqHTjPex/sB+/PnKnbihS2uEBTQWrwAg9fRBQHgbdB08HW+sOYh9a9/F1PaO01sSmQ98A8IR23sMHnhjNfZt+QwzbLh+4vdlKTx9AhDepisGTVmI3w/tx+pXBsPcrUVLvV+Fx/bGmAffwOr9/+Lze03Yr7w74d4PNuDggb/w6l03GNnvG9dz8Iw3sObQfqxdeidsGDFrhvjtj2m4a4ZuW8C6a4dbgiNmFzP1Q2xa9xom92gFHxtv1VLfdhi16Cd8fk+ksMnJSeAV1gP3fPIXXuln3rt97abtuFAh3E4CETdqcAsFSTwmX98GPoKpZRmbIaxflcrWuO/rf7DqpfHoHOIJ1WVxLZB4IazrZCxetRZLJzpif0nhGzsaz//yJabbYPUsuS9LvMLQY/qnWPlqvxb62DRS31iMfv5XfNVcEDH34Zstq/HS+M4I8TRpC4DEKwzdJi/G6sRlcMhNwI1YcvtzV+6coY3f6h2DO3c4lSNmFzPzJ/z16li097PG5qz6+LGqSvWorpXDaAIekRg4axFuEE53ZEo5aqobf7eaeoVwDgCAxK8jJiychTbChubUrsWm9DJBVhKEdr0DY5urbiJuxvUxwnN4ZcjY/Dd061elsjVm/fQXFgyNhrdpdYseaUBHTHz9e7MLczJFPWrUeVdVVaNWbnRrgkfkQDzyvHW3JnP3ZUV9jXq9a9DEpgJI/NDp9sVY1E3YIGTGfvXoC7hROB0AYmbh5xULMTTa27Q/XvRIEdBxIhb/8CpsvQkwFXO3P2bI3TN0qzGw7t7ZVI6Yn/fgt7Dmk8na21LpUcpRkX8RGWmpyC5uUE3za42uPTqjfVQIvKVF2P/cMDy6VT2/0TGwgnngjU7T38Nn80ahrfA16y5hw6PjsOiozjRjY2BrLmLz229i7VXdiTqqspF0LLtxHKSx8asWWcZ5/DZjEt5M1UwIwKDnv8cHM3oiRG/wKoCyY3jzlvtgZAhqk7zv+Rm7Xh6AYN2Y5New7YnReHavzjQdRp8jeG2lUomYp1Yi8ameCDTodiXqSi8h9eRpZJU0APBD6x590atDuNEz8w1Xt+HZcc9gp3cHDOhjeOYXGIRn338EvQJ1p9Xg4ua38MYaw/DrC9JwLDUf9U2NgS3cj/8bOqtxbLJ3J8xY/jnmj26n/lKLRnU56zHr5oXQ3ZyMjYGtubgZb72xBoZro1KVnYRj2Y2DPlvej42PgS3c/yyGzNSseQB6T38Jrz0zAd3ChGe/65CzfhbGLjii+tHoGNhC7H92CLSLgzc63fs+vpg/Gu0Mg8D6WWOhWZxKDJ5etQ5P9Qw0LF6VdSi9lIqTpy6guAGAXwx69OuF+HAfI2dsGnB16zO4+Zmd0BvqbWwMbM1FbHprCdZcaSLDqhwkHbuo3ed4DGzTjObHzOKMGfIYWJGcsbMdiWPm1w8vvXSLkeJVibqC4/j+0TEYOmoS7v3ffDz//POqx/89hNtvGoIbb38RK05cRVVTZ5KaVIuMP57Bs6vPo0bY5OWH8FDhRGMaUHR6L/bubeKhW3g2yRLLEKrAobfvx7KDhRAOX4VXMOKihRObV7t2E9LLBNuNLAwJkwboT9MxelQcAgTdqRk+oNTcri3iQbx7bzfD4lVZhay/F+CmG27G3Y/PxcKFC7Fw4TN4YOJQDJv1M5INBuUCHq2HYu7CrkDFBRwVZrh3L/buzUatkU2/oei0kXn34pC6eDVZbQZ+f/pZrDpvsDXByy8CYcKJxjQU4bSRddE8zCteTVWBU38swh0z/4LhqnshoutodBZOblYtMn57Cs+sMr5fRQj2q4iH3sW93QyLV2VVFv6ePwaDxk7DY3MXqraBZ+7HxCFDMfPnZMNx2fBA62FzTThjDAD1KD69F3v27DHIeO/evdirU7yyplluG3RP2uMgc48CljubxlHzi3h0PsbGCq/2AWqv7sKSO+/D8gNNFxO1GYl4/d5p+L/twhbTpO27gBL1SV3XUos9SVct80ZsdBiBFyK7j0NXvWka4zGlW6j+nQvUwweKdbbBoc/fj+tChaeIG3B1+zxMnrcR6i8001Nx8G3cN28DsmqE27IP4m56BjfZ9WPkVOzLLIG1Nyer7Mep63HsqkHJCZlvOFq+XM9Q6t5M1VnTZg3F8/f3geEmcBXb5k7C3I1GtwAcfOtezN2QBcNNoANuemasSeN2rZKhm+DCi47z0+fyBSx3uHiOfcDpgIdv7Wx4Fq4mE+vmz9Z+LavVhAXBR/gGqlRALjij66jpNad1tD88hBOVctQbnL1qSS3WbkqH8CSsT5sbMNVYBTtyHDoLxy6UZWDzxmKdCUNx+3WtDIoNecFhfP6y4GNggdp9r+HrpCKDs8uyiO64zbrDTVsUFuQjKNwBpbLBYF3Fst5+fArJBXXCifD0DUGwcKIpwoLgaxgEGnT3q6G3o08rgy0ABYc/x8s7m90CsO/Vr5BUJExVhohuk1sev26tCN2A9bY/98EZGnLpApY7XDyHzy5inJGLfZQoSf4dHx1v7k3MEmLw6NQEg+JZWXwO6//T+dnRMzTGewjuvSHGYCxozZUjWJ8umGgCo8MIfKLQZ4zhJWH9bkpAqKByLsvYjI264257j0W3cMPiJf/Ej1jV4vjcWqz9NQn5wjN8shDEj+kpmGhDMY9halfhx+FKFJ1bB53NSTTrboeD0D9KuLUAtSU5aOl2v4Zi8NidXQ33q6JzWLe78efeN3eH4SaQh+M/rNS70M+o2rX4JSnP4Gy3LLQjbrLjJuDKrLv9uQfO0DiXLWC5w8Vziuyu74MoYf2Kclz4d3PLb2IUAb3w0Gc/4H99QgRnzGqQ+c9ybFLXzs1m6NMR9645i7NnjT2OYcOLxk5PClhiGQLeUSPx4i/LMEE4LENegGM/fQbttV7mMDqMIADtbhwp+Ig5HmN6thLc9L8MGZs36vdnQjzCDeqlMmRtPSicaNyBI7hiMD7CB8HtYoQTbSKg98P4/Mcn0Fd45rkmE/8s29TsGWUNn473Ym1KClKMPY5vwMsmje8Ux3vsvRjY2kswVY7iC7v0LlRqUUBvPPzFT3iyr+F+df6fZfhbJ4iuHcIN/sBC2UWYvAkcvooq4USfYNhpE3BpzR4HmUk4w6a5ZAHLHS6es2QX0T7M8CP8mkKkn7B0+RqC6985giNHjuDIkSScOPAn5o9sK7hivAElZ1bg1aWqEs9ZMoR3HKb+dhRHjx7F0aTjOLrjc9zbU1BAKGtwefeHeL7l05tNMD6MIDBuFAbrnkWLn4oh7QR/kZRlYLPe6VcgvkOQwfAB1BTh/DlTSj0Atem4VGz4kbdfRF8zLzoSKfR6vJuUhKSkJCQdP4VDfy3AqHY++mdfG0qQvOIVvCvqLwbb8I7qgYnP/4Ity25Ca2GH1F7Cge/3CCYKheL6pcdw7NgxHDt2AqcPr8DCUcI7MTSgJPkvvPKObikcjw7BwhcEagrPI93kTSAHJQabgB8i+rawBfh2wn2JaUhLM/bYj+/HCZ/g3pzmOOjAOMPmuVwByx0unjNlF9smwLCQgQINwuFtZFJ4+vjBz88PfjpfT6qhrCtC6obFmHHvuzhe71wZqr75SP27+XpDJvjoVlF9BQe+mIXJT68xemGUqYwNI5CEdsUdOjeEjbj5eghHhBgMHwAQGuRNPGg1oN5IH0lkngZjUK1C6gkfP3Xmwm+JgxJ1RalY/9o9mPH2MZPOvtpS+OCPkZqaitTUVJzcvRrvPXg9og3uTdaA3ENfYelxwWQDLe9XKetfw93T38YxvSBCEeQtfE0zNTTAcBOQQOplMPKbieRUx0EHxRm2jHgkcCzc4eJxduaqR9GZlZh762hMXbQaF52teG2OvBI5ez/BvUNvwqxPj9PvSGBsGIEkGPG3DFL/4I2bBreDv267seEDFuEBT4nwyj+goaYY5cKJtlRfhOQVc3DLyNuxcPVFhyteTdOAwqQv8fhTawj9Vo+i5BWYPW4Ebl+wChetEYSHBww3gQbUFpcB6mOhq+zK9uAyx0E74gxN4xIFrOqAwx0uljNml325wvBN3icMHTsbnpe1Dk+E9ZiKxZ8vRF9PMzOsOY/f7uiO7t2NPfphUuM3CzTNEstoiswf7YY8jg8/ugeW+aZNY8MIZAhLmATVHWFHY1RcgP7H6EaGDwBAcmohDD799QlBh1jhxKbEIiZEOGYTqC1NF3HRkQV5hqHnnUvwxSLzv4a15vxvuL1bN3Tt2tXw0Wcilpg1GFUcRfU1HPv5Mdx076dINdgxzeGJsJ534o0vFzXxDVnJSCmsFU6ET2gHtBNObEr7GBhuArUoPXfZvP2YGeD86DhD0zl9AcudTeOs+RVcLEKNwXCBIMSNG2F2AdC8Iux/rgd69BiEmb+cEdwIXYqALnfhg8/vtlChZ2OaIrjvZLyxI0f//pgSL0QNmYfvXjG/oDLG2DACr1a9cXtfQHnLbeimd1NPJUrO/W0wfAAAai8VoFJ4CTkC0W5M01+OoGfkULT1E06sRuG5C8KJ1lG4H//XrRu6Xf8wfk4u0b9NljQACdM+xJfTRWxNNtiPG79KVvWoKLyMC2cPIXH5TIwYOBIz3tpvxtn6Qux/tiu6dh2Ahwy+YECKgIS78dFX043sV7W4VFBpcBcBBLbDTdcLJxo3cmhbGG4ChUjLbCHD6gz8OiUBCQnGHoMx01W/NstEzvpe4ij4RJz5nLqA5c6mcer8jpxArsG7pQytBjyG/7UXTreEChx6537M3yi8EboHIm+cjc+ftcqL2kZtBn5/+mF8KrxHqsQPne5chuWjLFDCGhtG4B2F3rcmYOQtXfS/ulZZiozNm4x/DH3gIC5VCrdbL8QMetiELyPwxu339UekcKhjbR6S/xVxjzCKioN4+7552JBVo5+JRyRunP0FzNqchHFYSfGRBejXr5/2MWDIGIy/40Es+mY/8kWfdW3qCwY8EHnjHHz5f4ZBHDhwCYabQAwGPWzClxF43477+7cyuM9xbd5pbLHxJuAquPCi4/zEcdoCljtcPJc44BSswtbMcoP3bklgdzzw8cvo2+I7mRi12P/6m/g3R/ARpiQQ3ae/iYcMTxc5kSv4ftHPOCn8rk2P1hi26A3cSM7T2DACH0T1uR+3JYTqFRTK0gxs3mS0fAVq12BNspEvI4gajOdebP5ssfeQ1/BY/zCDi7VqryVhVYsXHVlB7T689sa/MNycumPGWw8ZOfvoqmqx79Ul2GIYBLrPeBsPC4KoXbMGyUa+jCBq8HN4yfi4AzVvDHn9cfQPM9gCcO3oSthjE3B2Tv8+4gA4Q/GcsoDlDhfPdbIrwM9/nYbB+xgk8Os0DV+uWYap7Zt+Mwvo9RA+SFyPT8YIW1pQux+vfnYY+YLXlQRfh5lv3ynq6zMdxpWvsWT9eVQJNhHvdmPxwgLz7ysrZGwYgX90X3QL0737qxKlGZvRVP0K1GLtF7twyWAYpA863vUVVr9+IwxuDwwgYMwb+Ov9SYjTv08ToCzFmT8/tFvxUrvvFXx2KF9QkEsQfN0svHOnU29N5qndh1c+PWR0v5r17l36+1XtWny+6xIMN4GOuOvrNVg82OgWgDFvrsAHk+IEt+oClKVn8McH9toCnJfrvJfYD2dI43QFLHe4eK6WXW3iq/gz1fAsLCBFQPytWLzxIPb+uwY/fPg23n5b9fjox7XYtjcJ+/+Yj5s7h8LgLkAtUCqVqN3wOn47KRi/CBkiBj6BxZb4uN2O0j5Yhm3CM2HwQfzkJeZ9rG2MkWEEkrD2aBegM6G54QMaSUvwuUHRpxpD2nnat9i/fwv++mo53n33Xbz7/jdYufUA9n48FQlBwjNvSpSf/R0v/Ei5SRhVLda//qvhmW9ZBAY+uQROvjmZpXb9a/jF6H71JJYIgkha/BkOCatdANKAzpj27QEc+HcFvl7+Lt5991188O0qbDu4D59MTYDhJlCOs78twg/23ASckKu9l9gDZ0hn5tu3fXGHi+ea2V3B5899beS7zdWkPghtk4CBYydj8mTV46bru6B1qI/BPU9N0ZjhFXy9ZD3OC09Vmvpxe7PfomXiN2lZYhnG1O4zfoY5sDumv0n9WLsWa4TDCCRSSHX6otnhA1q1WP/s84bjRwEAUviExqL38FtVfT5+KHq2DYGxW4c25B/AB098jIvCBltr4sy3R+thWPTGjc0OiwAAn073Yq36/qxGHyc2WvXbuCznCr5evM7ofjX8+Tf1v/iidj2eWbQBWfoDZ1WkPgiN7Y3hE27DbbfdhvFDe6JtiLH7Bzcgf/9yPP6R3bcAQ+FD8LHBlyU4xhcnuOZ7iW1xhpZhuE87KO5w8Vw6uyvf48G738Xe3FojxYzlGGSY9gE+3XvN4FZelvq43Z5qN7yOFSnCM9sSBF83E28TPtZWKpWoXWM4jKBRS8MHdNTuw/NTnsaK1DLDM7EtUqLm8na8NnUW/nCQM2+p73+CvdcMtibE3vwiFupuTk1F5ypS38cnxvar2JvxwiL9Krx23yLc9tQKpJaZvwVAWYPL21/B7TP/IH1Jh7sxOA4ys3GGluMUBSx3uHhukd2V3/D4+Gl48590lNSb8fsq5Kg3uKmoMcaWWYttb/yAY4XCN08LfdxuV1fw2TtbDM9uySIw8InFoj7W1m6HtVux52KF0URNGj6gq3YfXrt9DP7vz1PIq1EIW41S1pXi/LY3MGX801jtSJVL7TYs+SEJhptTPCa/8Szau8u+jFpsXfw9kgyDQMfJb0B4U4Lafa9iyuhn8efJPJi2CShRV3oeW5dMxrgnV3Pxagb32P6sizO0LIcuYJWucLW8HblVdrUZ+GPuFAwZOh1L/tiNM5eKUFFdC7luBIp61FRVoOhyGg6v+xhPTxiPJ3frtJur4Fe8+GcKygUxW+bjdjs79iY++M/wTJipH2vr0t8OC7Bm+wVUGNk0TRs+IFSB7a/fjRHDpmPx77uRfKkIFTX1aKxlFKivqUDh5VQcSlyOWTcNw8RnfrfONzwRFfzyIv4wcuY7sPsMvPVQhN5Ul1bwC174w/h+NePthw33q4rteO3u4Rh6z+v4bVcyLhVVoKZep5pV1KO6ohCXUw9h7XszMXrIrXj6N2f9tjP7cKv3EivhDC1PMmLECGVhYaFwut1xZ9NwfnScIQ3nR8cZ0nGGNJwfDefX6K+//hJOMtucOXOQkZEBOOoZWO5wGs6Phs/803F+dJwhHWcoHh8H6Tg/63K4ApY7XDw+4NBxfnScIR1nSMcZisfZ0XGG1udQBSx3uHicHR1nSMcZ0nGGdJyheJwdHWdoXZp8HaaA5Q4Xj7Oj4wzpOEM6zpCOMxSPs6PjDG3HIQpY7nDxODs6zpCOM6TjDOk4Q/E4OzrO0LbsXsByh4vH2dFxhnScIR1nSKPk8f8knB0dZ2h7di1gucPF4+zoOEM6zpCGCy86zo+G86PjDO3DLgUsH7RpODs6zpCOM6Th/Og4QxrOj4ZrGfuyeQHLnU3D+dFxhjR80Kbj/Og4QxrOj4bzsz+bFrDc4TScHw0XXnScHx1nSMcZisfHQTrOzzHYrIDlDhePDzh0nB8dZ0jHGdJxhuJxdnScoeOwSQHLHS4eZ0fHGdJxhnScIR1nKB5nR8cZOharF7Dc4eJxdnScIR1nSMcZ0nGG4nF2dJyh47FqAcsdLh5nR8cZ0nGGdJwhHWcoHmdHxxnSWSNDqxWw1lhZd8HZ0XGGdJwhHWdIo+Tx/yScHR1nSGetDC1ewPIBh4azo+MM6ThDGj4O0nF+NJwfHWdIY+3joGTEiBHKwsJC4XRRrLmi7oDzo3PlDD0knojz6w0fmT8kAKD+r/6/GkkEU4XzSABAKZiqza/pZbf02s23SwClcJq2Rfuvltr1f24kfKZwnpba9ZatjkL4unr/kuhub+p/K5VGnqzUebZuAKr5VD/qPkd/O5bo/qzzms0/r6nXNNKGxuUaTtf5t/A1IVwf/dfXLMys52gbmlgfdZsEQK2iATvz01Elr29sYy59HLQFzo/OWIYrVqwQTjLbnDlzkJ6eDolEYrkC1tjKMtNxfnSunKGn1AePtH8P/rIQSABtIaZ5c5codUsz1b9152nq31A/TzPFoF2n5NNrUxe+wvmb+rfesrV1je6ym/636v+6r6m/TsaXo3m9xt9Rv93w3/r/1/8d9efX/F8JiabIkijUc6kLQ/XPqnbNfEbm1bQD6oJNMC8UgASqIk+i1P7f+PMV2vXSX5bg+erXalyW/nJbntfwtYzNq5mm+/vqt6umtZiN5vfVfU2deasVtZi4/ztcrilVP9d9ufIx0FY4Q7qmMrR0AWuRIQRNrSwzDedHY+2PKRxBR/8+8JcFCyczV6epnkUgPNUstnqdpvjJvDAhuptwsttx9WOgLXCGdLbMkFzA2nJlXY07FF7W5i75ldcXoV5ZK5zsFmxVINnqdZyfOfuc/rzWyLhKXo+kkkvCyW7FXY6D1sQZ0tk6Q9IQAluvrCvh7OjcLcNon3h0CxgMb6mfthBQ/V84rrTxo3HdeQyeo1NQGJumaTE6jzp6Y8/T/Rhew9g03WXr/tTkNIOP9IVz6U7XmaY3vMJwPZueZqxd9yfNx+DQ/xhd/TMA9TRN5zR+bK6ihEQ9XfOcZtv1hhqopxtZrt4wA+16aNqNv5bqOaom1XJ1fjftEIPG+Y2tG6AZMqF5jmBdjbWrl6tU6g650Mzf/HMAJWoVDdicm4LDxdnqedyPux0HrYEzpDMlQ0sPIRBdwJqyssw4zo6OM6TjDOk4QzrOUDzOjo4zpDM1Q0sXsKKGEJi6sswQZ0fHGdJxhnScIR1nKB5nR8cZ0tkzQ7MLWHuurLPj7Og4QzrOkI4zpFHy+H8Szo6OM6Szd4YmF7B8wKHh7Og4QzrOkIaPg3ScHw3nR8cZ0jjKcdCkAtYRVtSZcX50nCGNoxxwnBnnR8cZ0nB+NHwcpHOk/FosYB1pZZ0R50fHGdJwfnScIR1nKB4XXnScH52jZdhsAetoK+tsOD8aPmjTcX50nCEdZygeZ0fHGdI5YoZNFrCOuLLOggsvOs6PjjOk4wzpOEPxODs6zpDOUTM0WsA66so6A86OjjOk4wzpOEM6zlA8zo6OM6Rz5AwNClhHXllHx9nRcYZ0nCEdZ0jHGYrH2dFxhnSOnqFeAevoK+vIODs6zpCOM6TjDOk4Q/E4OzrOkM4ZMtQWsM6wso6Ks6PjDOk4QzrOkEbJ4/9JODs6zpDOWTKUwolW1hFxdnScIR1nSMOFFx3nR8P50XGGNM52HDQYA8tM50wd7ag4QxpnO+A4Is6PjjOk4fxo+DhI54z5cQErkjN2tiPhAw4d50fHGdJxhuLxcZCO86Nz1gy5gBXBWTvbUXB+dJwhHWdIxxmKx9nRcYZ0zpwhF7Bm4L+W6Tg/Os6QjjOk4wzF4+zoOEM6Z8+QC1gTOXtHOwLOkI4zpOMM6ThD8Tg7Os6QzhUy5ALWBK7Q0fbGGdJxhnScIR1nKB5nR8cZ0rlKhlzAtsBVOtqeOEM6zpCOM6TjDMXj7Og4QzpXypAL2Ga4UkfbC2dIxxnScYY0Sh7/T8LZ0XGGdK6WIRewTXC1jrYHzpCOM6ThwouO86Ph/Og4QxpXPQ5yAWuEK3a0rXGGNK56wLElzo+OM6Th/Gj4OEjnyvlxASvgyp1tC3zAoeP86DhDOs5QPD4O0nF+dK6eIRewanzAoeP86DhDOs6QjjMUj7Oj4wzp3CFDLmDdpKOtjTOk4wzpOEM6zlA8zo6OM6RzlwzdvoB1l462Js6QjjOk4wzpOEPxODs6zpDOnTJ06wLWnTraWjhDOs6QjjOk4wzF4+zoOEM6d8vQbQtYd+toa+AM6ThDOs6QjjMUj7Oj4wzp3DFDtyxg3bGjLY0zpOMM6ThDGiVfvErC2dFxhnTumqHbFbDu2tGWxBnScYY0XHjRcX40nB8dZ0jj7sdBtypg3bmjLYUzpHH3A44lcH50nCEN50fDx0E6zs+NCljubBo+4NBxfnScIR1nKB4fB+k4PzrOUMXlC1g+4NBxfnScIR1nSMcZisfZ0XGGdJxhI5cuYLmj6ThDOs6QjjOk4wzF4+zoOEM6zlCfyxaw3NF0nCEdZ0jHGdJxhuJxdnScIR1nqE+pVLpmAcsdTccZ0nGGdJwhHWcoHmdHxxnScYbGuVwByx1NxxnScYZ0nCEdZygeZ0fHGdJxhk1zqQKWO5qOM6TjDOk4QxolX7xKwtnRcYZ0nGHzXKaA5Y6m4wzpOEMaLrzoOD8azo+OM6Th46BpXKKA5Y6m4wxp+IBDx/nRcYY0nB8NHwfpOD/TOX0By51NwwccOs6PjjOk4wzF4+MgHedHxxmax2kLWD7g0HF+dJwhHWdIxxmKx9nRcYZ0nKH5nLKA5Y6m4wzpOEM6zpCOMxSPs6PjDOk4Q3GcroDljqbjDOk4QzrOkI4zFI+zo+MM6ThD8ZyqgOWOprNXhmM/24nTZ8/irPqRfOoI/kv8ENOiZeo5QjH2tZXYdeSEer5knDqyFi+1UbU+t/q49rnax7b3Ea9d9iH89ViY7ksaTDdYxukTOPRfIr58ZiQiNKuhEToWr/2xHQePn26cd8fveGlMBKR2ytCV2Gs7dCWcoXicHR1nSMcZ0jhNAcsdTWf/DGtw5egmrF+/Hv9l1CK488144btX0VkGDFr6J5ZN64agynTs2bge69f/h9RyIMBT9/klSPt3PdavVz82bkOBbrNJGpfx75ELqPLtiOFPfIL1vzyJdpoi1nc6vtvwPqZd1wrS/FPYuXE9dp28hobw6zBj+Qp8NjVIsExmDvtvh85NyeP/STg7Os6QjjOkc4oCljuazjEyrEfh3rewaNEiPHnHdKy5UA+vdgNwfwxwY8dW8KrJwF/33IUnFyzCokVPYtro27EoS/f5Vbjw8SIsWqR+fLgJZbrNJmlcxnMzb8eo4c9jZ64CIb1nYMmdqsL09k+ewsAwOS798yxG3HwvnlqwCE/edwvGvLgL1yTRGPbMuxjuLVwuM4VjbIfOi/Oj4fzoOEM6ztAyHL6A5Y6mc8wMC1BV37heZTX1UPrEYczztxp+nG9N1Rvx1C/JqJCEocPoPvDGTNzZOxSy4hP44tWdqFbPplQqUb1hLlakVEAS1QP3DuIK1hx81pCO86Ph/Og4Qxo+DlqWQxew3NF0jplhKAY98yUmxHuh4cpx/HYF+P7Vn3G8UII2Y9/DzgP/4scXxxgpZGNwy8bGMayH/noM+qNeRcopQaUC8AnpCv927RDsLUHllSPYUy484FQjo6ASCvggpGuAYCGsKY65DToXzpCG86PhwouO87M8hy1gubNpHPOAE4hez+3F2bP78MMT1yO8MgV/LnkDaXIAGZ/ivpvvx1sbU1Ds0RoD7/0I/6x7E8N9dZ+vPwZ246aDqNRttoQwf3hKVP90vPycD2dIxxmK55jHQefC+dFxhtbhcAUsH3DoHDc/zUVcv2DZY5MwbNhUvLVP8yE9gOpT+G3BVAwfci8+OloE7/hJWPR8O53n64+BXfLTKdTqtAp5yVSbt6Ku+Tx8e0YjWKZA+eW9KD2ZioIaJfxb9UJ3g1ECvugU4Q8pKpG3r0TYyAQcdzt0HpyheJwdHWdIxxlaj0MVsNzRdI6doeYirrfxw97zKJEL29WqT+Grv86iSO6B8M5jECpsF0jNq4QCgWg37GY03h9gEEZ3DIWsoRDp24v15tcTOhUfT+kCn+oMbP0kDXL8gR3pFVBE3oCX3x4N3RPAvpOWY1q3AChzU7Eyo6mVZ3D47dA5cIbicXZ0nCEdZ2hdkhEjRigLCsy/GZGlcUfTOXKGYz/bifdH+eHsh+Nx99dFwlZ8+PcL6Fx8FmculUOBICQMG4aE4Cqc/Gg8pn9ThOdWH8dj3aqR9u9/SKvRPO8a/nvrQ2wKfg4rVz2CHv51KDp/AgdTahA78Hp0i/ZF1cmPMH76NyhS3wdWdxk+rXpgQP94hElLceKLu3H/5zloUCqBTvOx5veH0M2/DkUXz+LEmUuQth+I67tHw19+CZtnT8acHTpnjpkeR94OnQVnKB5nR8cZ0nGGhlasWCGcZLY5c+YgPT0dcJQzsNzRdM6dYR4ulUsQ2X0YJkyejMmTh6GD5AoO/zIHM7/RLXZDkHDzZEyerHlMxE0RAHI+xANz/8SJ3Dr4x9+AWyePRLewelw5/AvmzFQVr8aWMaZfKygubMNbtw3HDE3xCgAZy3DHuOewIqUM3m2uw+iJkzGyexjqrxzGT09y8doc594OHQNnKB5nR8cZ0nGGtmH3M7Dc0XScIR1nSMcZ0nB+NJwfHWdIxxk2zaXOwHJH03GGdJwhHWdIw/nRcH50nCGNki9Atzm7FbDc0XScIR1nSMMHbTrOj4bzo+MMaTg/+7BLAcudTccZ0nDhRcf50XGGNJwfDR8H6Tg/+7F5AcudTcMHHDrOj44zpOMMxePjIB3nR8cZ2pfNClg+4NBxfnScIR1nSMcZisfZ0XGGdJyh/dmkgOWOpuMM6ThDOs6QjjMUj7Oj4wzpOEPHYPUCljuajjOk4wzpOEM6zlA8zo6OM6TjDB2HVQtY7mg6zpCOM6TjDOk4Q/E4OzrOkI4zdCxWK2C5o+k4QzrOkI4zpFHy+H8Szo6OM6TjDGmskZ9VClhrrKi74QzpOEMaLrzoOD8azo+OM6Th4yCdtfKz+FfJWmtF3Yk7ZCiBFH6e0QjwbIsgrzgEeMYAEqv8PcWcWIO8CmV1WSivy0Fp7QXUKyqEszgsd9iPrYnzo+H86DhDOt0MV65cqdcmhu5XyVq0gOXOpnOHDCN9+yImYCjCfXoImxhrUq28BJcr9uBS2W7UKcqEzQ7FHfZja+L8aDg/Os6QTpihwxawwhVl5nGX/NoGjkTH4Nshk3ijsuEKCuuSUC7PQJ2yFBLQMqA9m6k4VooSpSd8pTEI8uyM1j7DAQBldRdwOv9bVDfkC2d3CO6yL1sDZ0fHGdJxhnTGMnS4AtbYSjLzuEuG7QNvQceQKaiW5+Ni1VpUIQsSiXv87oxOKg9ApOdQxPiNQFFNKlIKf3G4ItZd9mVr4OzoOEM6zpCuqQwtXcCSBh02tZLMdO6SobcsBO2DxwEA0it+RLXkAhevzCwKWQWuyTcjv/Yowny6on3QWOEsduUu+7I1cHZ0nCEdZ0hnywylYl9M7PNYI3fKMCF0OjwkvrhQ+RfksiJhM2MmkUgkyK5eg1pFAdoGjkSoTxfhLHbhTvuypXF2dJwhHWdIZ4sMdV9D1BlYW6ykq3OnDL1lIYjwvQ5yZTWK5ceFzYyZReqhxPmKFQCANgEjhM025077sqVxdnScIR1nSGePDM0uYO2xkq7G3TIM8e4EAMitPQSJVCJsZsxs1YprAIBwX/vdyULJ94ck4ezoOEM6zpDGnsdBswpYe62kK3HHDAM92wMAyupThU2MiSOphwJ1kEACqcRT2Gp17rgfWxLnR8cZ0tiz8HIV9s7P5ALW3ivqCtw1Qw+ZDwCgTlEubGJMFKkMqKy/BA+pL7xkQcJmq3LX/dhSOD8aLrzoOD86R8jQpALWEVbU2blzhhJ4qP8hFzYxJpqXLBQAIFdUC5usxp33YyouvOg4PzrOkM5RMmyxgHWUFXVWfNBmzDXwfiweZ0fHGdJxhnSOlGGTBSwXXnScH2Ougfdl8Tg7Os6QjjOkc7QMjRawjraSzogzZMw18L4sHmdHxxnScYZ0jpihQQHriCvpbDhDxlwD78vicXZ0nCEdZ0jnqBnqFbCOupLOhDNkzDXwviweZ0fHGdJxhnSOnKG2gHXklXQWnKEVxA7A+MmTMVn3MTQBvsL5mEMK6z4cE52sv5Q8/p+Es6PjDOk4QxpnOA5KwR1tEZyhFVVfQtLm9Vi/Xv3YmwaTbpwU1h3DJw5FgqNXT86ynm6A92Mazo+OM6RxhsLL0TlLfgZjYJn5nKWzGWNN4/2YhvOj4cKLjvOjc6YMJcOHD1cWFBQIpzMTOFNH21O3sAfR2v9GnCp7B3JpqbC5ebEDMD5BgVO7juFyvfG2jKsBSIgPUf01VpSGrXvTUB07AOP7xED7JaPq6ZEDxiNBcRmlUXGI9ixC2ta9SKsOQ/fhg9EpRP33nGYZiMWA8X0Qo/dNpdW4lLQLx3RXJqw7hg8OQ+72vUjTnBoWTIsdMB59dBZUlLYVe1UNFlhPQ7EDxiNBcQoZ0t7opX7d6ktJ2HXsMuqhWb9OaFyUen3UH/sP7qTOE5rXNt4XmtfRLlfv9ylCdpYUbYNysV27nsJMdZZvpu5+C+AtDcXunOdQr6gSNpuF92XxODs6zpCOM6SzdoYrV64UTjLb7NmzkZGRAQCQtW/f/rWqKtrB3x1Zu6NdSaRvHwR6tUNu7V4oJbXC5uYFx6BzuzZo2zkBCQmqRySykV3YoG0LqjyD7buOIiVfhqjOXdBako3szGxk5MsQ1Ra4uG0r9mcWogFAcExntGsjweUdW7H/TDYKG1RFYZuK49i26yhS0vIhi+uDjj45yC4sxJWMNKSlqR7VgfEILk3G4XMlUOiuY7Uc/tGdEeGRo1ovALE9BiCqLA3Hc8rRdsB49AnNRdK2XTiakoa0fBni+vREeGUOrl66ZIH1VL2mLtXz28Lzyg5s3X8GaWnVCOvTD3GybGQXBqH79b3hk71N2+YZUoXi4gZV8dqmAsfV65ovi0Ofjj7IyS5EQ3AMOkcokZt1FeXqAIJjOiNCmYusq+VQxA7A+D4+yNy6FfvPpCEtPwBdesbAt6YQmdmFaFAXr6G5SerfQb38nuGozGlcpqkiPYfAQ+KLi2X/QKEU/nVjOt6XxePs6DhDOs6QzhYZTps2TTjJbFu2bEFRURHAQwjEsUVHMx2CMbCaM4WatrOn1Wf/is4i61o9fP3DGs9oGlF96QIytWdKoxERVILsFPUyUISzWdcQGBmrf+FR7AD0CM1tfC09RbhWUIYQ7XNi0SqyAYW5eahX//vS2dONZ5CLziLrmgfCo1pZfj11VF9KwiFtVtnIvFiis47QySkb589XAwhDdEQQSrJTtOtadDYL1wIjEdvUi+iIbRWJBt11LjqL5EydYj+2FSIbdPpLs3yPcES1ai4J6+F9WTzOjo4zpOMM6Zw1Qy5gzeSsHc2aEOAHf2kYEsbq3OWgTww8ff0RpqmpwrpjeG8fZO41MoxBTa/Qi22FyPJspFyuB8IC4CerRmWR/hMrqirh7RcAD72pzTBlPVtQVFEFuepfOPvfflwO6Ku6w4P2LgEB8POXIixhrM5dH/ogxtMX/i2+SBgC/GSoriwyUuCrhAX4QVZdCf0oKlBV6Q2/AJOTsBjel8Xj7Og4QzrOkM6ZM+QC1gzO3NGsCRVVqKwU3OVg/Xqs36opVsPQvWc8FOlJLYzTzEZefiAiY30R2yoS5fnZqjGfRRWokhsvAKurKmD44X8TWlzPloUF+EGm/akIZ//biPXr1+NETTzGDk2ALypQVVmJS0mb9V9j/Vb9Mb9GFaGiSm5w9jvAz197kCmqqILcaMFdjaoKk5OwCN6XxePs6DhDOs6Qztkz5ALWRM7e0Y7AISMsuoaC+hh079XG6Mf5sQMGoZMiHUnNV68AgOy8fARG9kGbyHLkZzd+dJ+X74G23Xuhjc4Z3Z7x3ijOzWvybKWBFtbTGN+2HRCv+ehf/ZpXLmSqLk67sfHerBVVleqP+YtwraAeMbrrqquiCpXeOh/3xw5AD50L0yqqKuEteM24aJ0FZech36Ot3u8Q1r0n4r2LkZtnchJkvC+Lx9nRcYZ0nCGdK2TIF3GZwBU62p70LuKS0i/iSoj1R0XOVZQHtnBRUXU+lEE90LNPdyREAtnZhfDXbQcAVCP/Yg3C+vRDv+6CC8X8+2Bw5xDIfCPQUfPauheRCZV6IKRHRwTnnsXxHM3ygdIrGagO64N+/bqr198XBcd07mRAXU8j6xIc0xnBpQVAz0Ho3z0BCbFhqDq3C4cu1AKQISS+D66/risSEhIQ61uAY/uSUaQAqvMvokZ3XRMStOvUUJ2Pco+26N6zF7omJCDB6wpSi4MRql7PyvyLKJDFoc/116naI6tw4ZIC4T6VuJBdiAaU4kqG6mIyze8Q61uAY8buMGECcy/i4v2YhvOj4wzpOEMae+Zn6Yu4+DZaLbBnZ7sKzW20Tpa+A4XMzNtoMVEMbm/lgsy5jRbvxzScHx1nSMP50dk7Q0vfRouHEDTD3p3t7JR8Y27mAHgbpOH8aPg4SMf50blihlzAGsEHHDrOjzkC3g7F4+MgHedHxxnSuWqGXMAKuGpH2xJnaH/ZRzdjqwsPHzAFb4ficXZ0nCEdZ0jnyhlyAavDlTvaVjhD5gh4OxSPs6PjDOk4QzpXz5ALWDVX72hbaCrDOnkZAMBTGiBsYoxMJvXW+7mp7ZC1jLOj4wzpOEM6d8iQC1g36Whray7DBkUNAMBbEilsYkwUpdwT3tJQ1DQUoaahuHF6M9shax5nR8cZ0nGGdO6SodsXsO7S0dbUUobV8jwAQKBHnLCJMVE8EQQAKKvL0k5raTtkTePs6DhDOs6Qzp0ydOsC1p062lpMyTCv8hjqFRVo5TMQUnmgsJkxs8jlCrTyuQEAUFF3GUq+Wp6Es6PjDOk4Qxp3PA66bQHrbh1tDaZmqIQCF0o3AZAgxvtmKBUy4SyMmSxQ2gVR3kORX30SOeW7hc3MDKbuw6xpnCGNOxZeluau+bllAeuunW0pYg44OeXbUVB9GpE+A9DOewqUColwFsZa5KmIQufABwEAF0v/RZ2cv9lNLHP3YaZPzHGQ6eP86Nw5Q7cqYPmAQ0fJL634N9Q0FCLSewCuC3wZXorWXMiyFimVSkDhibaeU9Az6DlI4YHMkr9RXHNOOCszAR8H6Tg/Os6Qzt0zlAwfPlxZUFAgnO5y3L2jLcESGcok3ugUcgfaBo7UTqtTFqO49iwUkOvNy5i3NBRhXr20P9c0FCO16FfkV53Sm4+ZxhL7sLvjDOk4QzpnzHDlypXCSWabPXs2MjIyAHcpYJ2xox2NpTMM9emKDkHjEezdEVKJp7CZMT01DcUoqD6JjOK1qFdUCZuZCSy9D7sjzpCOM6Rz1gy5gDWTs3a0I7FmhjKJN7xkQfDxCBU2uRRrZujK5Ip61ClKUNNQzBkScHZ0nCEdZ0jnzBlyAWsGZ+5oR8EZ0nGGdJyheJwdHWdIxxnSOXuGli5gXfYiLmfvaEfAGdJxhnScoXicHR1nSMcZ0nGGhlyygOWOpuMM6ThDGiVfLU/C2dFxhnScIQ0fB5vmcgUsdzQdZ0jDBxw6zo+G86PjDGn4OEjH+TXPpQpY7mwaPuDQcX50nCEN50fDx0E6zo+OM2yZSxSwfMCh4/zoOEM6zlA8Pg7ScX50nCEdZ2gapy9guaPpOEM6zpCOMxSPs6PjDOk4QzrO0HROXcByR9NxhnScIR1nKB5nR8cZ0nGGdJyheZy2gOWOpuMM6ThDOs5QPM6OjjOk4wzpOEPzOWUByx1NxxnScYZ0nKF4nB0dZ0jHGdJxhuI4XQHLHU3HGdJxhnScoXicHR1nSMcZ0ij5wksSpypguaPpOEM6zpCGD9o0nB0dZ0jHGdJwfnROU8ByZ9NxhjRceNFxfjScHx1nSMPHQTrOzzKcooDlzqbhAw4d50fHGdJwfjR8HKTj/Og4Q8tx6AKWDzh0nB8dZ0jHGYrHx0E6zo+OM6TjDC3LYQtY7mg6zpCOM6TjDMXj7Og4QzrOkI4ztDyHLGC5o+k4QzrOkI4zFI+zo+MM6ThDOs7QOhyugOWOpuMM6ThDOs5QPM6OjjOk4wzpOEPrcagCljuajjOk4wzpOEPxODs6zpCOM6TjDK3LYQpY7mg6zpCOM6RR8gVHJJwdHWdIxxnS8HHQNhyigOWOpuMM6ThDGs6PhvOj4wxpuPCi4/xsx+4FLHc2HWdIwwdtOs6vGX5T8d2+M0ja+DoGeQobVTg/Os6QhvOj4wxty64FLHc2DRdedJwfHWfYnG54ecWL6F+xCU/f/ioO1QvbOT8qPg7ScX50nKHt2aWA5QMOHedHxxnScYYtScGSif3QZ9x8HBAUr3wcpOP86DhDOs7QPmxewHJH0zljhmM/24XklBSc2fcT7gnSb3tuzQmkHP4Lj4U3Tgsd+zr+3HEIJ5JTkJKSguSTh7Hzj5cxJkLWONPYz7BL3X7g1+kQLBbwnYM1x1Xth/96DDqLd8oMHY3rZjgR3+1LQVpamvqRguSkvVi3fArCJao5Xtx4Vqc9DWlnT+HgpvcxRTMDXsTGszrt6se2Zaqt8IUNZ3Hu3Dmc3vQKYjRPAVSvvT8V57Yv09le/dDvma+wef8ppJw7h3PnUnHm5EFs/ugetNXZHfDiRnX7GfyzuA30FgsAE7/D/tRzOHfuHLar18OZue72ZzucIR1naD82LWC5o+mcPUNp2AA8uWwsfIUNOnynf48NH0zDda2kyD+1AxvX78LJaw0Iv24G3l/5GaYaVKpASJcpuEfwntxu3ijE++hPgwtk6AjcIsPqSzi4YR3WrduDzPpQdJ24GD+/FKNTGBbh7N/rsG7dOuzOrEVQxwlY/ONCBOsuo+gs/l6nmmfdunXYsK1SLzvvTnfg89nRhsWmjmHvJOKHp0ehg38FMvZtQOKWw7hQ7oO48a9hw8o5iDZ4sifiBj+HtoLpM+7pjXCbHvGtxy22PyvjDOk4Q/uy2eGMO5rO+TOsQVlpHSIGP4+lY5oqYe/Ap08NRLj8EjY/OxxjZzyF+QufwL3jxuDFXdcgiR6GZ94dDm+dZ1SWlqIhsDPGPxilM3UQZo+Ig6wwH8XyxqnOn6H9uU2G9fnY/soCLFjwGCbfvQEX5d5of8MsnQK1EhlvLsCCBQvw2MR3cKhIAe/oPrjNT2cZlRl4c4FqngULFuDDf6p1GstQWuqD7jM+xiORBlWoStybeHlyHLzLjmH5TUMw6eG5WPDMA5g4dDr+OFcDv54P4POnAvWeUlZaCrS9Hgv7ejRO9JuDu3oFoTA/Hzq7g1Nym+3PijhDOs7Q/mxSwHJH07lGhvXIWvcvLshbY/jCxbhRtwrVmHUneofJUHzic7y6Q/fNvhob5q5ASoUEUT3uxSCd5ypyziC9wgedxj6NdpqJYx9Av+h6ZBzLQJ16kmtkaF9um2F+DRqE0/QEwNtDAtRVIbeJCtEwu1Ls+/k4SgN747GP7odu3asxYM4QtPOoR+aG/+GbfN3np2Dxu/uRK/dDx7GP6g2fKT17CnnKGPR7Zoz2Dz2/2aPRxfsqjh0p0ZnT+RhmyMzFGdJxho7B6gUsdzSdS2VYuBSLt+YA7W7Gyy91hu4QPgBo1zYY3pJKXDmyB+WCNlRnoKBSAfiEoGuAznTFISSeKoKk7UA8kaBa4h33XIeI8rNYsV1TBLtQhnagdOcLjsKHYu53YxEnq0fO0e9Qqm3wR6cXl2Lp0qX4euPT6BNQg3P/vIR/a3We224y9qvHv547dxR/Pqhfptb/Pgs/J1cjqN//8NlthuNdekYGQIo8nPux8VW19lxGGQDfgNbQuztX3qfYk9OAiG73YrwPAMThxRHxQNZ/eFuvCHYubrv9WRBnSOPWx0EHZNUCljuazhUzPDT/ZfybA3SY8B7md9AvYcP8PZsdD9iUv78+jGtoi8HPDYG37xO4u3cYys//jY2VwjmZuVxxGzRJUF+8eDwNafu/w2P9QlF2+ie88sYVnT+FwtB9wm247bbbMCKmABsXTsCUJbrt6jGwiYlITExEYuIGbDyi+TxAowqf3P89kqvDcePc9zFEcJ/YQK8mbhzbrGy8+U8aqkN744FHAoFhCzCsnRI5h7/CFeGsTsJtt0EL4cKLjvNzPFYrYLmz6Vw3w0OYv2wPrnl0wR1Ln0CwTsV6Mq0ANUp/tOrVXW+cKwDAtxMi/KVAZR72CT8JPfQXTuUqENltOoY9PRZd/PJw4qvVKBPMxszjutugCTQXcf34Nh4afwNuvHMZjujdCisH6wcnYPDrB1DgE49bnnkOA4X1ZmU63tCOgX0dv541MhCh6hPMXZGGmqgRWLKsi95B+cDlYigQhg536o9zBQAMa4MgAOWF51AjaKr6cg8ya3wRP/pB3PVQH7SqTcPGZZed7nMILrzoOD86zpDOGhlapYC1xoq6E7c4aG+dj/cP5MGv+wMYF61zscnvO5BeoUDkDS/j7dG6F3r5YtLyaegWoERu6kpkGIwzPIQPdmehPqo/Ft/eCV7XjuHjfbqf5TJzufw22BLNRVxv/4gDmWVNFn+Fvz+ER9ZfhCx2It75aIj24/ym5jcm6+2FWJ8pR5sx96C7b+NfdEdXnkau3BcJ07/Go3oXenXDKwsHI0pWhYv//QmDDxqq3sfK02XwTXgQ8/qGoyJ1Hb43GJPj2Nx++7MAzpCOM6SzVoYWLWDdovCyMvfJrxobnvsSR0r8EBqiM4yg+lu8sjIN5R5tMW75Nmz67TMse/cLrNi5B2+Pioby0hYsnvMfjJWmOe9tQlpFAEJDJbh06EukGRS5zFTusx1aRsqij7EvX4no4Yux9EaPxvz8O+OlpapxskuXLsXS58bBcKQrAKTglTmbkS0LQai/TqG6ZyE+3Z8PZXA/zNm8E6u/X46ln/yMfw6vxn1dfFB27DM8/pnxyvT3r44gVxqM0IBinP3zL1QJZ3BgvP3RcYZ0nCGdNTO0WAFrzZV0F26XYfUfePLTIygSFJoZy+7AuOdWIKXMG22uG42Jk0eie1g9rhz+CU9OngO9mxPoqv4CW9IroaxOxz8fpjn97YLsxe22Q4vYiOe+PYFSj7YY89pi9NF8qBDWHROmTMEUzWPSTfAXPFMrZSGe3XBRcLeDKqyaNRb3frIPl5Vh6D50EqaMG4h2HsVI3bgIt0z/Bk1el7Xne5zIlUNx5Sg+3CgcZOC4ePuj4wzpOEM6a2coGT58uLKgoEA43SzWXkl3wBnScYZ0nKF4nB0dZ0jHGdJxhnTGMly1apVwktlmz56NjIwMwBJnYI2tJDMPZ0jHGdJxhuJxdnScIR1nSMcZ0tkqQ1IBa6uVdGWcIR1nSMcZisfZ0XGGdJwhHWdIo7TxdVCiC1hbrqSr4gzpOEMaWx9wXA1nR8cZ0nGGNHwcpLNHfqIKWHusqKvhDGn4gEPH+dFwfnScIQ0fB+k4Pzp7ZWh2AWuvFXUVfMCh4/zoOEMazo+Gj4N0nB8dZ0hnzwzNKmDtuaKugPOj4wzpOEMazo+G86PjDOk4Qzp7Z2hSAct/LdNxfnScIR1nKB4fB+k4PzrOkI4zpHOEDFssYB1hJZ0dZ0jHGdJxhuJxdnScIR1nSMcZ0jlKhs0WsI6yks6MM6TjDOk4Q/E4OzrOkI4zpOMM6RwpwyYLWEdaSWfFGdJxhnScoXicHR1nSMcZ0nGGdI6WodGvknW0lXRGnKF5fDxCDf6e4gzpnD1DuaIa9Yoq4WSbaCo7qcQTXrIg4WRmRFMZMturrqd9Zbwz4+2QxlL5WfqrZA0KWEutqDvjDFvm7xmDGP/BCPRqh0Dv9vCQ+ApnYQwAUFWfh4r6SyiqScWlst1QQiGcxeKE+3CkXx+08u+DIK/2CPBqA0nTH14x5pDkylqU1WajtCYLVysOobQ2UziLyxHux8x8lszQqgWsJVfUXXGGzZNAinZBY9Ax+DZIJZ7a6eX12QAa9OZlzMcjEp6SQO3P5XU5OFPwA8rrcvTmsyTdfdhTGoDuEfcjyr+/dpoCDaisz9b+zJilWeN9JMiro/bfSihwsWQrzhWtgUJZrzefq7BGhu7G0hlarYC19Iq6G86vZR4SX/SN+j8EeXUAAGRU/IYKRQYUkmpIJBLh7IwBABRyCTwQiHi/uxHoGQ8lFEgt/B2XyncLZyXT3Y+DvePRL/pZeEoDUKsoRnrFT6hV5kMilfP2ypyOUqkEFN7wQ3t0CX4AUnigou4qkq594HLDC/j9mM4aGVq6gJXCSivqTjg/03QJuxtBXh1QXp+J42WvohzJUEpruBhgzZLKlFDIypBe8zXOlf0ECaToGj4DgV7thLOKphTc41Um8cZ1rR6HpzQA2ZWbcaZyKeqluZDKFLy9MqckkUggkdWhWpaO4yWvoqj2LAK8WqNXq1nCWZ0avx/TOUuGPJCLyFk62t7aBY5Ba/8bkV9zFOnV3wPSOuEsjDVLIpGgUpqKtPJvIYEUHUNvg5csWDib2YT7sEQiQ9fwGfDxCEdG+R8oVP4HrlmZK5F6KHCh5jfkVR9FmE8C2gePFc7ilIT7MjOfM2XIBSyBM3W0vcUGjgGgxLW6nZBI5cJmxkxWrkhHfu1hRPpeh9YBg4TNZjG2D/t7RqNN4BBUNFxEqeK0sJkxlyCVKXC5ZhMAJbqE3wGZxFs4i1Mxti8z8zhbhlzAiuRsHW1PQV4d4OMRjhpFARqkRcJmxswik0lxuWYbAKCVX19hs8ma2odDfboAAHJr9kMqMz4PYy7Bsxp5NUchk3ijlf91wlan0dS+zEznjBlyASuCM3a0PYX7dAcAXK7aLmxiTBQFagAAPrIwYZNJmtuHQ306AwDK5ReETYy5nLJ61QUxfp5Rwian0Ny+zEzjrBlyAWsmZ+1oe5JIPAAAdYoSYRNjokhk9ahXlsPHI8zsLxVoaR/292wNAJCjUtjEmMuplKtuCefn2UrY5PBa2pdZ85SCi1edhWaduYA1gzN2tCNQfcsWUKfkApZZjkKpum+wUv1/U5iyD/t4hAMAJBIeq81cnxLOt507a+HlSFwhPy5gTeQKnW1/nCGzH96HGXN+vB/TuUqGXMC2gP/SY8z58T7MmPPj/ZjOlTLkArYZrtTR9sIZMnviP0AZcw28H9O5WoZcwDbB1TraHjhDZk+8/THmGnhfpnPFDLmANcIVO9rWOENmT7z9MeYaeF+mc9UMuYAVcNWOtiXOkNkTb3+MuQbel+lcOUMuYHW4ckfbisUzjB2A8ZMnY7LuY2gCfIXzMWaN7c9McQMn6G+rkydjcGdP4WzMouIwcALn7GrsvS+7AlfPkAtYNVfvaFuwWobVl5C0eT3Wr1c/9qahWjiPMWHdMXziUCQ4erXrLOvp4Ky2/ZmpKvswNmq21fXrsT+9XjiLUeE9R2HS4M5w9DLMsdYzHD1HdURd0kaTc2aOz1H2ZWeldJOLV7mA5Z3FIjhDZk+8/bmv3OSdOHFNIZzMnJC7FF7W5E75SYYPH67Mz88XTncb7tTZ1mBKfj0iHkZr/xtxsvRtKGRlwubmxQ7A+AQFTu06hsvCEyzqtoyrAUiID1H9NVaUhq1701AdOwDj+8Q0niVST48cMB4JissojYpDtGcR0rbuRVp1GLoPH4xOIeq/5zTLQCwGjO+DGL1TTdW4lLQLx3RXJqw7hg8OQ+72vUjTnBoWTIsdMB59dBZUlLYVe1UNFlhPQ7EDxiNBkYGrAQmIV8+vfU0AgGBZgt8rrPtwDA7LRUpNPHrEeAJQrUN+h+EY3EmVdfWlJOw6dhnCbrGV7n4L4C0Nxc6Lz6JeUSVsFm1U+4/hKfXDsbJFkEglwuZmxQ2cgE51Sdhx4hqEJZWqLQ25od3QIVC13IKUzdifXo+4gRPQO1qmnVc1vQ0GTuiEupxytImLgqwgBZv3p6M+vCdGDY6HehHaZSBuICb0jkbjUgBUZePwjhPQre/Ce47C4KBL+Gd/urbv9KfFYeCE3mhcnQKkbN4P1UtYYD0NxKmen5QJr/491a9bhezDO9SFaTh6jhqMoKKL8I6NQ2C15nfSX8+q7MPa3JvLWvuqRn8XVbsmj7MNXdAjWqbNoChhFAbHB0IieD1nJmkIRJ+QF3C5fB9O530nbLYZU95LWPMcPcNVq1YJJ5lt9uzZSE9Ph0Qigax9+/avVVVZ7uDvLBy9o52BqRm28uuLQK92yK3dC6W0VtjcvOAYdG7XBm07JyAhQfWIRDayCxu0bUGVZ7B911Gk5MsQ1bkLWkuykZ2ZjYx8GaLaAhe3bcX+zEI0AAiO6Yx2bSS4vGMr9p/JRmGDqpBrU3Ec23YdRUpaPmRxfdDRJwfZhYW4kpGGtDTVozowHsGlyTh8rkT/TataDv/ozojwyFGtF4DYHgMQVZaG4znlaDtgPPqE5iJp2y4cTUlDWr4McX16IrwyB1cvXbLAehp+larq+UGoPLMdu46mIF8Whc5dWkOS3bisTop0bN26H2fS0pBWHYY+/eIgy85GYQPgG9ke7dq0heeVHdi6/wyqA3ugZ5/uiKxSZ10diIQukYB6fnuI9BwCD4kvsko3Q6E0VhiJ0yFkPGQST1yt3QaJxLwCNqRNF7Rt0w5d1NtqQkI4FJk5KFJo2gJRfvJf7E5KRYFnDBK6REGZmYPMnHQUeMagnTwT/2w7gItFCgAhaNOlLdoocrBl2wGk5BRBEd4TowZHo/jIFuxOSkVagSc69Y2H54UcFBVdRrp6W01Lq0Vwp0AUnTyIjHL9/bRaHoA2CWGQXlCtFxCHXtdHoPjsMVypaI+BE3oj6PJhbNmdhNS0NBR4dkLfniEoy7qGS5cssJ4GFZ/6+e2kyNmyDQdS0pBWG4H+/WKBzBwUKfzQqkM7tAkox8l/dyPp/DVUKFXFq8e5zdh2IAVpabWI6N8VEeVZuFahbDbrIoW6eA26jMNbdiMpNU29fj0RUqZ6vl+rDmjXpg2kOVuw7UAKaoN7o2ffbogoP4l/dychtTYY3bqEa5fnzCQKb0T7DEN5XQ7yKo8Lm23C1PcS1jRnyHDatGnCSWbbsmULioqKIJFI3HMIgTN0tKOzaYaCMbCNZxFVbWdPq88CFp1F1rV6+PqHNTs+r/rSBWRqT0RGIyKoBNkpmjOJRTibdQ2BkbH6F4rFDkCP0NzG19JThGsFZQjRPicWrSIbUJibh3r1vy+dPd14BrnoLLKueSA8qpXl11NH9aWzOK1+0aKzWbhW7wv/ME/tstKSdM7eZmfiYkkIImN1llaUhiR11tl5+ahHUePrZ+chX7M8pkd/DKzqzGVjWzJOqU+HFiZfQK7cD/7hzR2Gq5Cdeb7xTGnrSAQUXsQZzSnVwmRcyA1FZJx+P8QN7IGgy42vpafwKvIrwhufE9cKkbUFuJanUP87G8mnGs8sFiZfQK53BKJbWX49G1Uh+/DBxqyyzuNiuc46Aii4eKbxTLJ6PTPPa5+A8xflCI9upX1TazrrOLSKrEV28qnG5RUm40KuNyJ0no+CFBxRr1BWXj7kKMDFM+pcsvKQ32LfMVPY9L3ERblrhm6397lrR1uSS2UY4Ad/aRgSxupcOd4nBp6+/tDWZmHdMby3DzL3GhnGoFZ0NgvXAiMR6wsgthUiy7ORcrkeCAuAn6walUX6T6yoqoS3XwA89KY2w5T1NFWAH/xrq1Chd+a0CBVV8qaL/4oqVFYKn8NsLdDPD5KIbnp35ugdLYOff7j2YB7ecxR6eZzD7iY/3i5E8oVchEbGwRNAXKtIFKuLw/AAf0irKlGo98RyVFX5wi9Qb3BCs0xZz+YVoqLS+NoD6vX0i8XAiY3LHxIfCH+/QP0hFMaEB8BfWoVK/V8S5VVV8G3q+eVVqKqsQrlc2MAoXOq9xE7cOUPTjiUuwp072lJcLsOKKlRWCu5ysH491m/VFKth6N4zHor0pMbxrUZlIy8/EJGxvohtFYny/GzV2c2iClTJjZ+prK6qgMn1YIvraYaKKlR6+yHASPVcXVlk5AwzcxTlVVWoFNzlYP369dimKVbDe6J3h1qkHmkc32pUVh7yQyMR5xmHVpHFyM9SzV1YUQmFnz8MTyxWocqM6q3F9WxROAL8DVZCq7CiEoqCFGwWLH+9zrjeJhVWoFJh/OxpVVU5TP8tGYXLvZfYgbtnaLgHuyh372hLcMkMi66hoD4G3Xu1MXrmMXbAIHRSpGs/Sm9Odl4+AiP7oE1kOfKzNfNnIy/fA22790IbnTO6PeO9UZyb1/KbrUYL62mWomsoKAtBQn+d++nGDkCPGN31Zo6o8Go+FO16one0sUN3HAbeEI/a1CN6wxaMy0JefigiB7RGZHE+1PWrqrD1jkXP3tE6Z3R7o4OsUDXEwETNr6cxfoiN76jdtlWvmaMzREAgKw/5od1wvah7v2YhL98bsT17Q7t64T3Ru4MMhdfyTCywGYVLvpfYGGcI97iIizuajpKhpS/iSoj1R0XOVZQHxqBzhBK5WVdRrn7XCY7pjAhlLrKulkNRnQ9lkOrio4RIIDu7EP667QCAauRfrEFYn37o111woZh/HwzuHAKZbwQ6ai/K0bmITKjUAyE9OiI49yyO52iWD5ReyUB1WB/069ddvf6+KDimcycD6noaWRe9HFRTENM5AsrcLFwtr0T+xQLI4vrg+uu6qpYVXY+MrY13UfCNbI92vpW4kK26qAy+kWjf2gPFFzVZ6y7PPm/5znERVwLa+ZYi61oFgtt0QZj8Ki5cq4BqbwpBmy5hkF+9gGsVSlTnASG9e6JvtwSEKzKRUxSk1w4AqM5DVl0E+vfrh26CC8WCBgxBxyAp/CI7N+4rOheRCZV4hqJ3fCAuJx/DFc3yUYLL6bWI6N8P/bqplhHrnYsjOncyoK6n4bqEoE2XQBQVyNB3UH90S0hAbGg5UrcdQbYcAFQXcXmXZSBH++QSXC7yRKe+A9G7q2b57eBb2ngRV3NZl1xOR21Ef/Tr1029T3oj94jmrgdQXcTlXYaMnCLV/uPXCh2ipSjIugbVr6i/PGdm64u4KO8lzLnzs/RFXC5/Gy1n7mxHQc2QdBstxprgiLfRYmJobqPVWEAy27HlbbSo7yXuztnzs/RttEz9fMcpOXtnOwLOkDHGGIWSv6CAjPMz5LIFLHc2DR9wGGOMUfH7CB1naJzLFbBceNFxfowx28nC4b+38fABF8TvJXScYdNcqoDljqazRoYKperGNC4+YoXZWJ28GAAgkzb1VQ7iyBWaOzHw+FfGxLLGe4m74Qyb5zIVBXc0nbUy1BQEnpJgYRNjoijkgL9nWzQoqlGvKBc2k1Q3FKj+oRRziybGnIuXJBQAUC+vEDaJZq33EnfCGbbMJQpY7mg6a2ZYXncJABDk2UnYxJgoSoUMUnhBIpFCrqgTNpOU1eYAADzBf3Ax1+criwIANChqhE2iWPO9xF1whqZx+gKWO5rO2hmW1GYAAFr5DLL6azH34COLAAAUVacJm8jK6rIAAMEe3YVNjLmcUK+eAIDi2nRhk9n4+E7HGZrOqQtY7mg6W2RY3ZCPktoMeEoCESjpKmxmzCwN9UrE+98NALhU/p+wmay4Jg1yZS3a+o8BGiw7vpYxR+Ilb4sQry6ori9AUVWqsNkstngvcWVKvgDdbE5bwHJH09kyw5TCn6FQ1qNzwEOQyH2EzYyZLNprNPxkrZFbmYT8qhPCZrKahmKcK1oFKbzQyf8hKBS2208YsxWFXIpuwY8DAE7nfwelyC/R5cKLjvMTxykLWO5sOltnWFl/DZklGwEACQFPwlfZAUpxx0vmpiTyAERJx6Gd/80oqklFevFq4SwWc63yMK5VHkGgZyxivaZCJufxsMw1KBWAjyIO3QOegxQeOFe4WvRQHFu/j7gizlA8Wfv27V+rqrLc1zBaG3c2jT3zK63NhIfUG+G+PRDpPQDekijUN1SjQVENJRoAJfjBD72HUiGFJ8IQKElAQtCjCPKMR01DIc4W/IoK9cWB1qBQ1qOkNgNB3nGI8OmNKJ+hqK+vR4OiBgpFPZSQG6wrP/jhyA+JwhveyjaI9h6DOP/J8JT643L5PmQUJaq2ZzPZ873EVbhbhtOmTRNOMtuWLVtQVFQEiUQCyfDhw5X5+fnCeRyOu3W0NThKhpG+fdE2aATCffgiGWa6WnkJLpX/h0tlu1ErLxU2W4VM4oW2gSPQLmgk/DxVV2sz5uwKqpKRU7YbuZVJwiaTOMp7iTNzxwxXrVolnGS22bNnIz093XkKWHfsaEtztAxlEm9E+vVBhG9P+HiEw0emuhchY7rkynrUNhSjpDYTeZXHUFZ3UTiLTfh4hCLK/3qE+3SHt0cwPKV+wlmYE3C046At1SnKUNNQjPzKU8itTEK9Qtwnr+6coaW4a4ZuV8C6a0dbEmdIxxmKx9nRcYZ0nCEdZ0jnzhlauoB16Iu43LmjLYUzpOMMxePs6DhDOs6QjjOk4wwty2ELWO5oOs6QjjMUj7Oj4wzpOEM6zpCOM7Q8hyxguaPpOEM6zlA8zo6OM6TjDOk4Qxol3yfXahyugOWOpuMMafiAQ8PZ0XGGdJwhDR8H6Tg/63KoApY7m44zpOH8aDg/Os6QjjOk4fzoOEPrc5gCljubhv9apuP8aDg/Os6Qho+DdJwfHWdoG3YvYPmAQ8f50XGGNJwfDR8H6Tg/Os6QjjO0HbsWsNzRdJwhHWcoHhdedJwfHWdIxxnScYa2ZbcCljuajjOk4wzF4+zoOEM6zpCOM6TjDG3PLgUsdzQdZ0jHGYrH2dFxhnScIR1nSMcZ2ofNC1juaDrOkI4zFI+zo+MM6ThDOs6QjjO0H5sWsNzRdJwhHWcoHmdHxxnScYZ0nCGNksf/253NCljuaDrOkIYPODScHR1nSMcZ0vBxkI7zcww2KWC5s+k4QxrOj4bzo+MMabjwouP86DhDx2H1ApY7m4YP2nScHw3nR8cZ0nB+dJwhHWconjWys1oBy4UXHedHxxnScH40fByk4/zoOEM6zlA8a2VnlQLWWivrTjhDOs5QPC686Dg/Os6QjjOk4wzFs2Z2Fi9grbmy7oIzpOMMxePs6DhDOs6QjjOk4wzFs3Z2Fi1grb2y7oAzpOMMxePs6DhDOs6QjjOk4wzFs0V2FitgbbGyro4zpOMMxePs6DhDOs6QjjOk4wzFs1V2FilgbbWyrowzpOMMxePs6DhDOs6QjjOkUfL4fxJbZkcuYG25sq6KM6ThAw4NZ0fHGdJxhjR8HKTj/GhsmZ9SqaQVsLZcWVfEBxw6zo+G86PjDGn4OEjH+dFxhjT2yE90AWuPlXUlnB8dZ0jD+dFw4UXH+dFxhnScoXj2PA6aXcDac2VdhbvlN/bz3TiTmopUY48jK/BYuGq+di9vxEnBNK3Za3AyNRU7PogHACifW4NTaWnY+aHqZ103f/EfzqYdxcrHhQsBZq89hbS0NP3Hzg9huBQ130n4YvdpHFn5NGJlwkaxfDHpi91IPrEBz3ew2ELN4m7boHkm4rv9qTh37pz6kYozx/Zh/ftTEC5RzaFUKuHX/1l8/c8BnE5NR3p6OtLOnsKhfz7GPW11+/Ql/J2ajvQd70G1Nap/Tm98pCYnYf+Gr/DksFCoFw8ACJ/4DjbsP4kzaZrlH8faRcE6cxgR9xb+TUlHenoS/nrQT9gKwA/9n/0a/xzQXe4p7Pr6Ztzx/QGk6ayX3iPpLzzoNxHfH0hT/1t3mcLphr9jeno6drwXrj+vr2nbYLdXN+FU8g4sH+yJST8cxLmMY1jxkLHfrTl+uOuHA0g7tR5zo3VTdm68H9NxhuLZOzuzClh7r6wrcMcMU7f8jfXr1mHdunU4drUBQAnStqh+XrdhEw5VAEA7zLqxPZRFhajw74zxD0YJF6NFz1Dn9detw7oNW1EgnAUA4IvpX76AEf7n8PPcL5AtF7aLVY0NT7yJPWUdcffHC2DLGpb/ADVD9SUc3JCIxMQ9yKwPRdeJS/DLyzGAUgkMexfrfngaozr4oyJ9HzYkbsHhzHL4xI3H6xtXYU5LRVLRWWxMTERi4hYcyaqBf+fRmP3NFvz+SKSqiB32Kda8NxVdAsqRumM9EhMT8V9aJaTBzW8scU8MRGx9IQoqA9H1tpkI1Gv1w53f/otfnhmFDv5VyDm2DesTt+DwuULU+0QjZdMGrEtMRGJiIk7kyQEU4exG1c+J6zfiSJ3ewlqm/R1Vjw1bK4VztKzbUnw6vQOKtr+MRfvrha1mqMLKh9/C/qquePDrOWipe5wB78d0nKF4jpCdyQWsI6yss3PXDHPWLcXzCxdi4cKFOFIsB1CFzI9UPy9c/CNO1gIYNBvDYiW4tv03JJd6o8PIh9FauCAAgCUyrELmhwuwYIH68f7fKBPOAgDt5uPeviEoOPoRvrZc9ar2L97alglpp/FYOMRb2GgV7rr9iVafh+0vL8CCBY9i0t0bcFHujfY3zEIw4vDWy5MR512GpPfGYPCkhzBn/tO4f+IQ3PP7OdT49cSDnz8lKB4FKtPxxvz5mK9+3o0v7UE+QtFv1jJM9gEwogOiZNVI+/FWTH1iLubPn49Hbx+K254vEi5JxzAsHNwWisub8EtKOXw73YxHgxpb/R7+DouGR0GR/TeeGDEYt0x/AnPnP437p4zC2Ad+Rsqqt7Bg/nzMnz8fJ0sAoBLpb6h+nv/6LzjboPNSptD+jqrHB1tqhHO06N6XRyO2LhWrX9oHSvmqsgGv77wIr6634eV+HsJGp8L7Mh1nKJ6jZGdSAesoK+vMOMPmDbr7OkThEo58/Tn2ZFXBO34knmwnnMu2fKf1RTvvQqT9cQi1momhN2Pxmj04cSYVaWlpOHtiPV5p0zhsYfUHn+OfI8lITUvByT0/48nOk/HBP0eQnJqGlDNHsPGtEfBVLypn2U6cr4tCz/tvgLVLWN7+iPKqoa3fBszFkFgP1Geux/++ydf7kypl8TvYnyuHn6B4bEnVqpn440w1JBGdcEsPD6C0BnVKX8RPWIzRoSaeLhw2Az0jFbh44GN8vj8LNT6dMPa5EHWjH+bceR2ClVewe8E87Ci2z/Zg3mY4CTfFB6Hm4l78VC5sA4BueHXTKaSfO4q/HmsFCbrhiR934HhqBjIy0nDqvx/xx79pyMjYieXq0URZS3YjUx6DPo9eB2ctYXlfpuMMxXOk7FosYB1pZZ0VZ9iSO/D4oGjgynH8egX4bls6KmVtMejJBGg+MLVshDEYv7lxDOzRlY+rxyfqG5MQCc/yqziarClfb8Znie/j7m4ByEv6A0sXvYfNF6rgrX0n9Ee3we1x5uul+OVEIWStBuGJVa+gT/5KvPfNXlytD0TnW2fjSc3oiOokXC6RIzB6MMI0i7AC3v6Iwodi7nc3I05Wj5yj36G0ZwQCpEBe2o8oFc6LPbhcBsA3ADGewrbmXSithBK+COvpBXzyEn4+VQxZ7AR8deAotv/0PEa0UMjO+N/1iFLk4Oh3pcAnu5Be44H2Q+aijQQARiM+TAZUXMPhFHNPpYrU7jYc1I6BTcJfD2r+dDOR3wDEhEpRcO5HI5+Q+OOuH77HjC4y5Gx4Fvd9nYehn36F54a2hTRnBz5b8AbWXu6AnsLxOVVHcKVYgaA2I2HuKFpHwPsyHWconqNl12wB62gr64w4QxPcMREJIRLknfkFGXIAv/+H85UytB30PyTIrJGh/hjYDX8fRIVwFgCdI4MgK7+MrYXqCY/MxA1Rnig4sAi3PfA6vlv7Debefg9evKh5hgKXdszBgm9+xpvztiGnHvAqP47XHlmKH5fPQmJmDeAbjHb+mvl34XxRA3wCorRnZS3N8tm5kaB+ePHEOZw78D0e7x+KslM/4aXFl6EM9IKZtakIKXjvzpG4781NSC3xRtvBM/H1zr+x5IamXnkGJiQEQXn1NL6+ogTwHfZl1sAjbjBmt22+8LUavTGw67HhsJmDaMfEIlhShvzT1cIWSHt/iHlDwlGe9BHumbcf9RiHB/tFQ1Z1Bt/e8Rg+WPMLXp3+IDYbDP3ZgqwSJXwDYmzQh5bF+zKNksf/kzhidk0WsI64ss6GMzTNrLt6I0wmRcz4Naq7FRz/P1wXIIE0uh+eGewlnN0C9MfAvv7jycYhAs0Y2ac1fCXluHLoKAzfUgGgGqVZBZADQE4pahQA6iuRo154am6Zqs1GePsjqr6EAxsSkfjDW3hw3EAMmvoujtQDOHAFxQogLP5OI+Nch6FNEIDyQqSZNeTTD32igiFVlCBnh2brqkLSj/+HSTcMxIxPTqDEtzOmvvo8NIMC9DwzFb2CJJDG3oYd59KRnn4ST/TwhUTaFtcv6gcPJCO/Ugn4hqBTC2dyzecNmRSAUoE63U1OPQZ23rx5mDfvNfxi9iDapngjYewAhNdnIHH2N8hTAkBfRIVKgcJM/K4dbpCFMlN2bAfHhRcd50fjqPkZLWAddWWdBR9wzOD7BG7u7A9lUQq2aO4KsG4d1h29gjqpbcaHNuVqWRUUgW0wVj2+YNe5QtTBH1F9e1honUaiY5gHGuoqLHCBij7e/iygPg/bX5qP+W/9gP2ZZY1jXY+uwOlcOXwTZuDrR9V3DVDr9soiDI6SoSprN/4046L78Hu/xsROnqhK/RvvXRL2XRWSPv4TqSUKeEZ2w3iD0/V+mDOmM3yUBUjW3DUgMRGJicdwVS5FzHWP4DqPLHxxOBsNnvG49eMn0b75mxk0QV0EB8Xhppt9GicPuwnxwVLU56dgs+AvO9J2eDoflcogRPYS/sK1SNt6CPkeXTB91Q94pJUEQAaKyhVAcDtM0o4NGIa2BuOQxyEuRIL6Wtv+MSkWKT8GcIZkjpyfXgHLhRcd52ce34dGoqO/EvmnPsAC9Z0KFixYgAWPbERGDRDZ6xFMMDzNpeUX/xyWLl2qfryKh67TlJaeiBj2ok7bHEzQvpn5If45zXRhW6N9F4ohD4xEr2j1u/03m5FaBkQN/wDrf3oVs25/FMvX/ok32wufaSLf/mgTIkNx9lbkCdsIeBukaTm/PVjwyX7kK4PRf+4/2LX6B7y/7FP8suUI1tzfBT5lSfj08c9g9LojDf/OeGnZMixTP2/va4MQUnoUnzzyAa4pgYlfbcPef/7AF8uXYdmyZfjm7+cxKAwoTd+MdcLT/37/w/B4HyivHdO76n/+/Ifx7/l6IKoPnhnjjawXPsbWy9UI7P0cthzejdU/vK96/Y17sOvnB0wYE5qFL7ano0oZhoGLd2LDj+9j2TdrsffTUYiWlOLkH++hRHd2/854+b338J7mMfsWaMtez1YY80YTbRpZKcivVCKk/VRoR92oKU79DzN/Pwd55FDM/vM9DPZchX8zyqAM6oOnV32M5x5+CksT38WIVoJK3e96xIRKUZS10eiwIUfS8nbIWsIZiucM9aC2gHX0FXUGnKG52mHehK4IUOYj5XfVlf7aDKs/x97MGiC0C6ZONFJdqoUkjMNtt92mfkzChBsC1C0+iLl+gl7b2Ajts5AwTjNd2NYo57sDyKqNQu9nhqjOuFZ/g4cf+Q6HcxVoff0MLHhnNm6OkaHIrI+KG7WbPwodvXKR/MtBk4YwtMQZDjiOztT8qlbNxE33foJ9l5UI6zEUk6aMw8B2HihO3YhF46bjm/wWlhPWHROnTMGUKTehb0Q9Mja9jJtunI5v1c+7llMOaXQvjJo8BVOmTMGw9gpc2v8tnnjgZ1QJFhX30i1I8FXiWvL3OKn3KX0V3j9wAfWIQLf7xsMHG/HsrQ/j053nUewVhd5DJ2HKlLHoH+uFqquXTTojmfX23Ziz4hTy6oPQZcgkTBnZDSG1l7D/2yfwwM+qNdNmqP0d1Y/JYxsLUd+2uFH9uxm0af2ADamlCOgyHjON/BGb8vqdWLI3Hx6xk/Dxr49h62MLsSKlGL6dbsXTix7HDTWJ2JYpBxRy1KtXKe7lEYiXXcGJb0423lXCAZm6HbKmcYbiOUt2kuHDhyvz8ix5/sc9OUuHOzLHy9AX03/agZd7XMJH4+7CV5qLuSziZnzx34cYWrUGd0x4CemmVA/NcLzsnA9nSGfxDLstxfa1kyD5ewZunnvcvKLT73Gs3DsPfRVH8cqw6fi9ehJ+OLgcA0t+w9jxr+OKhVfVUiyeoRviDMWzZnarV68WTjLb7NmzkZ6eDgiHEDBxrNnh7sIxM6zGH/97C7sru+KRLy39VbIvYlhoNtY98yoXrw6AM6SzSoYpC/D0HxcQMW453h3cwn0DFq3ErtVf4sWHR2HSE0vx5+an0SdIiWtHP8PKaj/c9cMLGByYiRUzF3Px6sI4Q/GcLTs+A0vkbB3uiDhD8Tg7Os6QziEyvPdH7F84EBF+XpBCgfrqEmTv+gCznvsDl4h/JNqCQ2To5DhD8WyRnaXPwHIBS2CLDnd1nKF4nB0dZ0jHGdJxhnScoXi2ys7SBSwPIRDJVh3uyjhD8Tg7Os6QjjOk4wxplHzxKokzZ8cFrAjO3OGOgA84NJwdHWdIxxnS8HGQjvOjcfb8uIA1Ax9w6Dg/Gs6PjjOk4eMgHedHxxnSuEJ+XMCayBU62944QxrOj4YLLzrOj44zpOMMxXOl4yAXsCZwlc62J85QPFc64NgL50fHGdJxhnScoXiulh0XsC1wtQ63B85QPM6OjjOk4wzpOEM6zlA8V8yOC9hmuGKH2xpnKB5nR8cZ0nGGdJwhHWconqtmx/eBbYKrdrgtmZKhj0coAr3aI9CrDSSw2FddOT1TsnMHDcoqlNZkobwuB3JlrbC5WZbOUAIpArzaINg7Dj4eYcJml2TpDJn9lNddQlltNqrqne/9nrdD8RwpO0vfB5YLWCMcqcOdVXMZSiBFfMhktAsaAU9pgLCZMaPK6i4ipeA3lNZmCpsMNLf9mcvHIxTdwu9FhF9PSCUtfJ0pYw6uXlGFK2UHkFa40uw/Cu3Bkvuyu3G07LiAtTJH63Bn1FyGgV7t0CPiYQR6tQMA1CjykVd9GJXyHCihEM7ufprJzh15SAIQ6t0DYV49IJP4QgkFsku3Ib14LRTKeuHsQAvbn7liAgaja8R0eEr9AABFtadQUn8ONfJc4awuxXIJMkfhL2uLcO++CPSMBQBU1xfgVN63KKpOE87qECy5H7sjR8yPC1grcsQOdyYt5RfsHY/rWy+EBFLk1u7F5eotkHg0CGdjzIBCoYC/pCM6BtwNT0kwiqpTcPTacuFsLW6D5ogPmYDOYXdArqxBVuUalChOQSqVCGdjzKnI66Vo4zMWrX1HAgCOX/sM1yqOCmezK0vux+7IUfOzdAHLF3GpO9tRO9xZtJSfVOKJHhEPQwIpMiv+wuW6jVy8MpNJpVJUSy7gVNkyVNZfRphvN7QLGqU3T0vboDkCvdqhU9gUKNCA02XvoQynuXhlLkHmqcA1+RaklH4DAOjZ6kGHGsplyf3YHblTfm5fwLpTZ1uLKRkmhE2Dv2c0MitWo0R5AhIJFwPMfFKZHBmVv0CBBsQGjUGYT4LF/wAN9GqL7hH3QQIpzpZ+CqWsUjgLY06vWpqJzIrV8JQGoHP47cJmu7DkfuxuLH0cdAZuXcC6W2dbgykZyiTeiAkYAgAokR8D166MQuFRiqyK1fD3jEZ0wEBhM5mPRxhCfDqhuO4s6qTXhM2MuQSJBChRHEW9shztg0fDz7OVcBabMuW9hBnnrtm5bQHrrh1uSaZmGObbDVKJJ/JrD0Ii4wu1GF1pg+rCkwjfnsImMs0FhtdqdvMnBcylSaTAtar9AIBW/tcJm23G1PcSZsids3PLAtadO9xSzMkw2DseAFBUd1bYxJgoSonq9j8yiTckFj6Mhfh0AgDUKF37TgOMAUCl/BIAwEsWJGyyCXPeS5g+d8/Oskd+J+DuHW4J5mYok3gBAOqVJcImxkSRyBSorL8MT1kAvD1Chc0k/p7RAAAFHP8emYxR1ShUf6j5WHg/MoW57yWsEWfnZgUsdzidmAw9pL4A4BQ3zWbOw0OmujerXFEtbCLxlKmuyJZIzN/WGWOmEfNewlQ4OxW3KWC5w+k4Q8YYYxRKN7xa3pI4u0ZuUcByh9PwAYcxxhgVv4/QcH76XLqA5cKLjvNjjDFGxe8lNJyfIZctYLmz6ThDxhhjVPxeIh6fiGuaSxaw3Nl0nCFjjDEqfi8Rj7NrnmT48OHKvLw84XSnxR1OZ+kMe0Q8jJiAwThZ+jYUsjJhc/NiB2B8nxh46k4rSsPWvWkgX3seOwDjY8uxS7usWAwY3wcxei+mUpS2FXvTqhHWfTgGdwrR+cuvCGlb9yKNvDLMXN39FsBbGoodWc+gXlElbBZtdNwn8JT64VjZIkik5n2RQdzACegdLdObVpCyGfvT6/WmmSYOAyf0hmBxgN4yw9Fz1GDEB6rWsyr7MHacuAb+uhBmKklDIPqEvIDL5ftwKvdbYTOJpd9L3IkrZrd69WrhJLPNnj0b6enpgKsVsK7Y4bZmjQzJBWyCAqd2HcNlMTWAUWHoPnwwOoVIWy6GBa8fO2A8EhSnsOvYZVhsdZgojlrAdqpLsl4RGTcQEzrVIWnHCVxTqAtmj3PYvD8d9eqC1+Oc2IKZuSNrFbDWeC9xF66anaULWJcZQuCqHW5L7pGhqnhtU3EcBzJKWigywtA9Lhrl2Sl6xXN1ZREXr8wOwtGzQxSKL57BNQUAxKFVZC2yM8+rt8csnL9YjvDIOP1PLBizMfd4L7EOzs50LlHAcofTOV+GsRgwfjKGJqi+JEFVmE7E5KEJ8I0dgPGTh0LbpKcIZ//biK3HLkMubBKKjUd77yu4kKk5PxuGAD8jn+cy1pK4gZgweTA6ayrL8J4YNWkyBnf2RNzACZg8uHPLRWdcR7SX5SDzvPrPp7hWiKwtwLW8xj/DCq/moyI8EnEtLowxy1PyBUcknJ15nL6A5Q6nc/gMfdui//jJmDxZ9VAVrdk4eigD0s79VYWquthMOtTMcACzGD/7CgBhCWPV6zIW/dpwpcD0+cUOxET1tjpZU7RmHcbBTG90vV5VqMZ1bA9ZzmEcNPmjfuHZV8Yci8O/jzg4zs98Tl3AcofTOM1fy9WXkLR5PdavVz32aq6YKjqLrGuBiO3WGwN7hCL37GlVsZl9FJvXEy+sCotGhKfu2Vdoz95q1mP9iWJE9R/JRSzTU5V9GBs128j6/dDUqIXJF5Ab2h49eg9Cj6DLSD6lGiebdfhvrN+f3vywlPDWiJTqnH1lzIE4xfuIA+P8xHHKAtZpCi8H5ir5ZR89g+KoOATnnsVp4alSgrDoCHgW5yKvuUVmH8WZKx4Ij2rV8se/jCELh8+UoU1cIC4nnzLrTGp460hIC69BZ7RA06qqUN7i+BjGLMNV3kvshfMTz+kKWO5sOlfKMKx7HIJL89EQ0wHxRse8ihGG6AhPFOfmNX9WTI0v6mKmCUfPDoEozlegXXxHM/7oCUfrSCkKr+XpX3RYXoUqXz8E6gzLDm8diYDqShSaUugyRuRK7yW2xifi6JyqgOXOpnOpDGMHYFCbCqQeOYCTmVJ07p8AX/X0pi/iMkFYNCKCalFZJCxLY9Gzd5vGwiN2AHrElCM/mzJWgbmLuIE3ILr4DA4eOIkL3l1xvfqKrhYv4gpvjciAalQKq9LCZFzIDUU39bhaIA4d2weiMD+L/6BiVudS7yU2xtlZhtMUsNzhdE6boeAirslj+6FNZHcM7x2jvciq6GwyMqWdMXaouoilCPCDf0k+jNWlPm36Y7xmPfr4IJO/xIAJ6F/ENRk39YlGZM9R6BVdjItnrkGBQiSfugDvruMxWHtbgmYE+sGvMB9ZRqrSrMMHkendVb1N8j1gmW047XuJA+DsLMcpvsiAO5zOnhmSvsiAsSY44hcZMOZszP0iA3u+lzg7d8/O7b7IwN073BI4Q8YYY1T8XiIeZ2d5Dl3AcofTcYaMMcYolHzBEQlnZx0OW8Byh9Nxhowxxij4fYSG87MehyxgucNp+K9lxhhjVPw+QsP5WZdDFbBceNE5Yn4NCtVl+jKJt7CJMdEa5KoLt2RS8n0n9NTLKwAASiVfwMXclyO+lzgTzs/6HKaA5c6mc9QMNQWstyRc2MSYKEq5DP6ebVArL0VNQ5GwmaSi7goAQEa/IRtjDs9PGgMAevuRo76XOAM+EWc7DlHAcmfTOXKGZXUXAQChXt2ETYyJIlF4AQCUygYAlt32S2szAQDeklbCJsZcjq+sDQCgTl4OOPh7iaPj7GzL7gUsdzido2dYVJ0ChbIeEd4DoZTbfZNjLiDYMwEAUFCdLGwiK6/LAQBE+wx3+H2LMQqlAoj2uwEAkFd5krd3As7O9uxaTXCH0zlDhnJlLbLLtgMAIjyGQMnf084IZA0RiA+4G6W1Wcgp2y1sJiuvu4yCqmSEenWHr7K9sJkxl6BQKBEhHQZPSSAyizehsi5XOAszkTO8D7siuxWw3OF0zpTh+ZL1qKy/hlj/WxEi7eNU684ch6JBio7+9wAArlTsQ1mtaniKJdU0FOJc0SoooUBC0KOQyP2FszDm9PyUHREbcCvqFRU4X7RJ2MxMxO9l9mOXApY7nM7ZMlQo63Gm4AcooUB8wN3o4P0AlHKZcDbGjFIqlfCVd0TfkNfh79kGRdUpyC7dIZzNYsrrcpBRlAgpPNAn+CWESm6AQuFc+xxjxijkErT1uAvdgh8FAJzO/RH1CtWdN5h5nO192NVIhg8frszLyxNOtxrucBpnzy/Qqx16RDyMQK92AIAaRT7yqg+jUp4DJWwwtsDJ83M3Mok/Qr16INy7J2QSXyihwMWSrUgvXguFsl44u8XFBAxG14jp8JT6AQCKak+hpP4cauS0j1t5K2S25i9ri3Dvvgj0jAUAVNcX4FTetyisShXOykzg7O/F9rB69WrhJLPNnj0b6enpgK0LWO5wGlfJTwIp4kMmo33wTXxvWGayirrLSM7/UXuXAFvx8QhFt/B70cq/r7CJMaejUNYjp/Q/pBasgFxZK2xmJnCV92Jbc8oCljubzhUzlEo8EeLTCb6ycPh4hAmbLcoV83MHcmUdahqKUVqbiap66x6nWuIpDUCEX3d4yYLgKTV/XCxvg8yeahpKUCsvRkFlCheuIvE+TON0BSx3OB1nSMP50XB+dJwhHWdIxxmKx9nRWbqAtepFXNzhdJyheEr+RhQyzo+OM6TjDOk4Q/E4OzprZGi1AtYaK+tuOEPxODs6zpCOM6TjDOk4Q/E4OzprZWiVAtZaK+tOOEPxODs6zpCOM6TjDOk4Q/E4OzprZmjxAtaaK+suOEPxODs6zpCOM6TjDOk4Q/E4OzprZ2jRAtbaK+sOOEPxODs6zpCOM6TjDGmUPP6fhLOjs0WGFitgbbGyrowPODScHR1nSMcZ0vBxkI7zo+H86GyVIbmA5QMOHedHw/nRcYY0fByk4/zoOEMazo/OlhmSClhbrqir4gxpOD8aLrzoOD86zpCOMxSPj4N09shQdAFr6xV1RZwhDedHw/nRcYZ0nCEdZygeZ0dnrwxFFbD2WllXwhmKZ4+/9FwN50fHGdJxhnScoXicHZ09MzS7gLXnyroKzlA8zo6OM6TjDOk4QzrOUDzOjs7eGZpVwNp7ZV0BZygeZ0fHGdJxhnScIR1nKB5nR+cIGZpcwDrCyjo7zlA8zo6OM6TjDOk4QzrOUDzOjs5RMjSpgHWUlXVmnKF4nB0dZ0jHGdJxhjRKHv9PwtnROVKGLRawjrSyzogPODScHR1nSMcZ0vBxkI7zo+H86BwtwyYLWD7g0HF+NJwfHWdIw8dBOs6PjjOk4fzoHDFDowWsI66os+EMaTg/Gi686Dg/Os6QjjMUj4+DdI6coUEB66gr6kw4QxrOj4bzo+MM6ThDOs5QPM6OztEz1CtgHX1lnQFnKJ4j/6XnLDg/Os6QjjOk4wzF4+zonCFDbQHrDCvr6DhD8Tg7Os6QjjOk4wzpOEPxODs6Z8lQCidaWUfGGYrH2dFxhnScIR1nSMcZisfZ0TlThgZjYJn5nKnD7e9mfLb7JM6ePY4Nz3eAlLMj4+2PjjOk4wzpOEPxODs6Z8uQC1giZ+tw+/LFpC+eR9/cb3DbooMImvYtlo/xFc7EzMDbHx1nSMcZ0ih5/D8JZ0fnjBlKhg8frszNzRVOZy1wxs52JJwfHWdIxxnScH50nCEN50dnqwzXrFkjnGS22bNnIz09HeAzsOLYqrNdUrtXsPFUGs6dS8Kqx8OFrQCA0JuXYMWuIzh5Ng3nzp3DudSzOJm0DZ9PClTNMCcRp8+dU7VpHzvxYbxwSa6Lt0EaU854hU98B2v2HsPZcxnIyMhA2plj+O/PFzEiVNI406QfcFDdrnqk4cyRLfjw9nDozKWd79iKh+Bn9HkZyMg4hhUP+Wmf4tf/WXy95SBOnT2naj+XgtO7vsa41zYhTe95uo+dWB4OTPrhIM7pLE/1s2DeYyug83JaL21K05sv7cwRbP95Pq731JkpfCLeWbMXx1PScf78eZw/dxbH9/yFF0eE6vzek/DDoXScP75S/Trqn8+f1z7SU5NxZMefePeedpDpLB7hE/HuxoM4rVl+eipOrnseIbrz6OmOVzefxpmdyzHYU/i65lAt59y+rzBU9/e1kpa2QdY8zo/OmTPkAtZMztzZjqDtrBsRpyxCQYU/Ot/6EKIE7Z0XrsHWj+5G71ZAwakd2JCYiMTdp3C1Uobg1l5685ak/YPExET1YyO2Fuo1uyRTCi/WPFPy85v5B7YsvxO9I4FrSduwLnEXTuYp0GrAw/h83WeY7KM/f/WlA1ifmIjEXedRE9QRE1//Fk+r/95qjvZ5iYlITFyPDYfrAAB+d32Hrb8+i9Ed/FGVk4Rt6xLxz+FzKGzwRfTeDdrt/r/MCihRjUsH1muXsbVS+CoauvMlInH9BqhfzoginN2YiMTEf3Ai3xttBz+KT765DT4A4DcTv29ZjjtV4WDburXYdTIPilYDMPOL9fhcGI5QdQ4OrF+LtWvX4r/TBZC2uR53LtmMLcsHQ1UzDsdnie/jzoQAlKfswLq1a7H2vzRUSoObfMPqvuxTzOhQiO0vLcL+emGrOc7i9SdW4XzwaLz76VD1+liHKdshM46Pg3SukGFTxwNmhLN3tj2pdpZBmDs8FpJr2/Fbcim8O4zCzNY6M92wHF/e3xMBlafw2S03YMw9T2DuggVY8Pg9uGX4KNz7tX6FWnn+QyxYsED9WI6/S/WaXQ5vf3SmZXgvvn1yAEIasrHu4UEYPf1/mDvvEUwbNRwv78mHR8xNmLe8Pzx0nlGftx0vzZuHeY/cirXn5YBPINqYUP1onzdvHubNew2/nG0A/B7G94uGI0qRjb//Nxw3jpuO/82dh6fvuw0jb7ofP237AgvVz1l7uQZK1CNv+0vqZXyAf2qEr6KhO988zHvtF5xtEM6jUYn0JfMwb97TuHvkBzheJkFE19sx0huY8c2TuD6kAdmJD2HgqHvw+Jx5mHXXSAx76T/ke8Tgpvnvo79uOEL1+dj2omodZt01Ev1v/xnnanzQYfyreCFGAmAE4qNkqE79Abfc8TjmzJuHebNuw+BJi1AkXBYA4F68NDoWdamr8eI+UvWqkvU6fj1VhqjB8/A/E/4IEcO07ZAZw9nRuUqGXMCayFU63B602d1wD66LAi4d+RKf/XcBVd7xGPV0O+18Ux8fjBivEhx7fxY+yZY3LoDx9mcBJmf47FT0Cpag4MhSvKB3Oq8KK59ahdRqCWL6PIrrjBRp4UPfxpC2UtRm7sHHxcJW0/jNuQvXBStxZdd8zN1RDBPX2orKUdugWgul8hnc2TsYkoIjePeF/dBLZ+VTWJlaDUlMHzxmLJymnH0dr+y+Crl3GwyYHgigFDV1yv9v777jm6r3P46/k3SmLd1ltiyhCDIURFBAVJCLSpWrXvV6r/vn9V5xIOi9V73XcfcV8Lr3nvdetFBQQJSLgCzZo9DFKKt0z3QkTX5/pCM5baE5n8yT9/PxyONec9L08Po2OR/CSYrIwdfgz1c4npLQhVnTMLhHA46s/wA1ym0AMPwprNibj7zt/8G9KTrAOA1/WbYV2Xn2UxO2f/UBMn90PuXgk8/2oCziHFx5bw/lvYl1++eQOmA7OS015ADbDVpacG9zbHf9ry5CL5zAjg9PAm9/i9w6A/qNvx/pBgBIxajePWCoO45Nq7v3Umrfq1a2nwO7fTG6OKU24PHnT86VhgP6xSJMV4PjG9ejUbnRlIvyOhsQmYCRDme09LjgSezJz8eW93+K3mUb8OK9f8bJbnzL1q9zPH/1isEJMKAWRT8eQJcvkKrSAxc8uaf9/Nb/LcRZHzLGNFz/wn24IF6P8vwlWNs7FbFhOtQc+wHrO8ZBblkdbIhEgmOcbvjxdC2ASMT0CQXwIp74YDcqDGm4+s0t2PG/j/C407m1zowX9kG8vhS571crNwFRN+K9d2/FUMMxZD1wK94sjsRDnyzCTcOjUbnvC/ztsRexUTcSIxIUh8JlOShpjkTi0CFOr7RLufJzSM7YTk5rDTnAnoXWFtybnNtdj2uGxUF3ej8+ym8G8AnWFdTBkHoRfj3MACARUaGKQ9SVr2H9gfY3am1f/CunA67TObBZX2FzrcNGjeDPn5yrDZON3fi3f4W2c1lX7kJl4sV4dMUq/H3M2Ucf5TmwXZ+/6g7Kc2BXo+tvl4prt+Qjf88a/OPqNOD4t/jbg0vQkBzp0fNCW2U/dz2m/PzP+OpgJcL7XYy73/4eK/48odPvfUVqHHTVJdhbr9yiw+gXHsWkxBps/9dNmL/RDOBBTD83CraTa/HAjY/h7cxX8cBVL2FntfJnZD9KqqyITBgJ10bxrrn6c0jt2E5Oiw05wJ6BFhfcWzq0u+dGjE4wQN/3KmQeyEVu7m48PDoaOn1vjH3wEoRjFw6WNMAW1ROjh4fbv+bAKixfugRLvs9HtdX57qA8B/aZ97C7wytCga1DQ3KZmoY/5paiyRaD3hcM6/jqm3EoEqJ0QPUprHEYmNrOZZ1zE6764CDqwwbgol/GOn4lAMDa3OR0SoDzObD281f3lthfxYwd3PWrjuoozoF9fiW6PF229U1cn72IR386GaOn/gpfltmAH3NR2mRDTJ+xGNYxDoYmRkGHapxyjNMNswYlQIdqlDhMoabt7+HBq8dj3M0vYmdlJIbc8Awe7/pjCDoKH4bp4xJhzl+Ch98qtnefMQSJBqC2aCsOtL28XQpTk+s/J65Q83NIdmwnp9WGHGC7oNUF94aO7SLxmxlDEWUrx4GVra82LcGSJdtwokmPnufdhgnhwCdrclFjTcaEp/6BKyIBHFuCf/zuMTz236OoV96lxnVsSK5S3fDttcgz2dBz8nP4x8WOr/kZceMrN2BYpA0n93/YrVMEWg2YnIZ4vRWVR1fibKPdkVe3otASisFXv4T7+zt9uJQX2d/ENe/JF/Dl7iK0n5H+NtbmmWDrORkL/tH6qQF2xhtfwY3DImE7uR8fuBDHOPZvmDM+ESjaihc+MSk3w7T9BXx+oBLW0CSce1XHz8XaW1oHW49kjFT+TpTGg1i9pQQhQ2/B4vf/Dyk6AOtPoNoGRCeNRGLr3w6MQ5EYpfyrwggkx+rRZHL8s7vOpoF3evsS28lpuSEHWAU+4ch02i7yTlw2OAq2kt1Y+GjrpwY8hsceuxvL8xuA5JG45+oY1L95J55dWwRdv6vw8g9r8PlrC/HPf76Bz387DkmdHMejBj+Mf/7zn22XeVd3fMUrEHXakFwiamh6EU98mQdTWBpmvbEeqz57HQsXvI0lP2zGnycnw1K4DL97eLvT+am68L6YOPlWPPrSv/H17cMQ2XQEWz6ajJcyF+P1d5bg05lpMDQewnrFO7tCU67AnxcswIKWy9O/HI6QI7/Hi6uPoz5mFB7+5kes+/J9LFqwAC9//BU2fP8Rbu84w3lE5w1NeOGJL5BnCkNaxpvYsOpzvLFoAd5ZuhFb/jIFyZZCZP32IWw/08m7ocmY9hf7n/edpRux5bOfYZDtCLIenYMNZgCz3sSajavw+RuL7F3eWYHHJyQAlXlYsaTjgHskuwR1tjj0vz5KscWG3b+6C5/kNiNl0lz8e8HFCDW9ix2FFujTZuLTz/6Iu25/DB8svx3DwhUD7Kx0JBvqUbxnY8fzoLup837UXewnp/WGHGAdaH2xPa2rfqmPXY1h0TaUZH+CLU5Hg3q8uv4QGhCP9BtmIRb1yLpvBn791mYctyRi1OWzcN11l2F0Tz3KD+/Aqs+zUOnw1XHpP8F1113Xdrlm+lnfkuL3umpI3eOuv4AeeOYqXDZ3MXJqjUgdOw3XXjcV58Y14vjGN3DHjHkdPms0ZsSdeOO9Z/CrmWOQ3HgEy5+8Cb/fVY+wlJGYdulwxDcewvInb8WzilcmI/tNRIbDz3DGrPEIA7Dsgatwx0trUFARhp6jJiHjuutw5dg0hJlO4rjkJUF3yH4GM6c+jMU5tTCmjcW0a2dj6rlxaDy+EW/ccSXmKeMoRaZiYsZszJ59LS4ZHIqSLe/gnsnT27+u6Bhq9L0x6rJrMXv2bMye3B/W4xvx1q9/iQ86zq/Ae1k4UBWN9KvuQsdPvcrGM9c/i/UlIUjLeAmf3GvC4w++gA2FTUi58Hb8/vc3offeTPxYYQWszWj9WNxbbxmFxIZ8fPNmJ28M6wZ3/AwGM/aTC4aG/FWyLYJhsT2J/WTYT44N5QK14fDn1iBzlg7Lb5mOeTvP9PJvJ4Y/j7VLMtD32GJcdMVvUT7gKaxY/gskbH8Ul96+5AznCXcuUBv6A7aT8+eG/FWyHuDPC+7v3PWKVzBjPzk2lAvkhtmPzsGnh5Pwk0X/gNNpy52Y9eY3WPXhX/HQTy/FLx57Cys+vhqpBhMOfv08KjAcT712AwbXbcTffsXh1ZvYTi7YGgb9K7DBtuDuxHZybCjHhnLB1PDCv67A69cORlyEAUAzGqtPY+/iJ3HfX79HhSBDMDV0N7aTC4SG7n4FNqgH2EBYcH/FdnJsKMeGcmwox4bqsZ1coDR09wAbtKcQBMqC+yO2k2NDOTaUY0M5NlSP7eSCuWFQDrDBvOBSbCfHhnJsKMeGcmyoHtvJBXvDoBtgg33BJdhOjg3l2FCODWVsfPOqCNvJsWEQDbB8wpFhOzk2lGNDGT4PyrGfDPvJsaFdUAywXGwZ9pNjQxkOXnLsJ8eGMuwnx4btND/AcrFl2E+Gg5cc+8mxoRwbqsfnQTk27EjTAywXWz0+WOTYT44N5dhQjg3VYzs5NuycZj8HlguunjfaGXThSIhMR0xYKmLDByIqtA/0OoPyZhTEbDYbLLZ6VDUeQXXjUZTX56C26YTyZl4RERKP+Ih0xIYPRGzEAEQY4pU3IfJrNU0nUN1YiKrGwyg3HYTZalLexO28cSzROi01dPfnwGpygNXSgnubN9r1jZmM1B5T0SOsv3ITUZesNguOVa/Fseq1qG06qdzsEZEhiUjtcSlSY6ciVB+t3EwUkKoaj6Cw6n84VvW9cpPbeONYonVaa8gB9iy0tuDe5Ol2OugxNOEGpMVOgw56lDfuQXHjVtTbTsKmq1fenAg2mx5hiIfRkIqB0ddDjxDUm0ux6/TrqGo8pLy5W4WHxGJ0z/uQEJEOACis/RpVzTkwoxLQNSlv7lc8+0imQKSzhiNc1xPJ4eOQEnEhAOB49QbsL/4IzbZG5c1FPH0sCQZabMgB9gy0uODe4o12Q+J/ioFxV6GqKQfH6r9Gk/40dDqd8mZEnbJZQpEQMhYDoq9FZcMhZJd8iOqmQuXN3CIyJBEjkm9DknEkjtV9g1LzJiCkQXkzooBjs9kQ2pyC1MirEBc+DAUVXyGn9L/Km6nmjWOJ1mm1obsHWM28iUurC+4N3mgXFdoL/WOnAwAO1X8Os6GYwyu5RBdiRgU241jdN4iLGITBCbOUN3Gb5KjRSDKORI25EMXNazi8kmbodDpYQkpQUP8hrLBgcPzVSDQOU95MFW8cS7SODbsv4AdYG98tL+KtdiOS74BeF4qcmncAA4cBUq+o6TvUNh9Fz6ixSIk6X7lZLCIkHumJN8JsrUF+3bvQ6/kXLdIefYgN+ytfAQCMSrkHOuE44K1jiZaxoWtkP7E+xsWW8VY/Y2gK4sLPgdlWgzrYX/onUiskVI/DtfZ/iuoXM0W5WSw+Ih0GXThOmdYDIe49N5DIn1hCilDZlIvI0CQkCF6F9daxRKv4Qpw6ATvAcrFlvNkvLvwcAEBx42aeNkBu0WQrAwC3/dOno9jwgQCAquZs5SYizalo2gsASIgYqtx0Vhy85NhPvYAcYLng6vniCScmLBUAUNWUq9xEpI7OAnNzDQDAoItQbhWJi7APsGZUKTcRaY7JYv9IuhB9pHLTGXn7OKJFbCgTcAMsF1w9X7ULMdifGM1W+8BBJKU36FDfXAyDLhxhIe79fNZwQ5z9/+gsyk1EmmOG/Xk51BCl3NQlXx1LtIQN5QJqgOWCq+fLdu1vDvDdPpD2hIckAAAsze79jUIhBmPL/+PPK5GSL48lWsGG7hEwAywXXD22IyIiKR5L5NjQfQJigOWCq8d2REQkxWOJHBu6l98PsFxw9diOiIikeCyRY0P389sB1uaDd8trCdsREZEUjyVybOgZfjnAcrFl2I+IiKR4LJHhC3GepZsyZYrt9OnTyut9host44/9zku+C32iL8buyr/BGlKt3HxmaeMwc0wfhDpeV56D1RtyUO94nQvSxs3EmD6t91iOnNUbkNN2Z2kYN3MM2jYDqD++HWt3nIC5/SryA8ONjyFcH4/vDs+B2eq+TyK4YuDLCNUbsaP6d9C5+GtkB4y/GqN6GZyuKz2wAhvzZD89TvdbegArNubZfx4HjMfVo3qh/TuaULh1DXYVWduuIToTnSUGY+Iex/HqDdhz+m3AT48jgYYNO/ryS/tvUJSYO3cu8vLsv9HTr16B5YKrp+m/6dUfx/YVWcjKarkIhlckDEcvyx6saLmvDfl6DJl0Afq2DqwJ0TAaypGzuv37rebwSi4wFW7F8taf1aws4fCaiPMum4VRIbltP7NZrcMrgMToKOhLD7Rvy/qWwyuJaPY44kVs6B1+M8BywdVjOxeUZ2PrrvaBtDz7CIpCEtEzxfElVxNq+Rn25A8GDEZ/wzFs3dw+tCqZTDVoVl5JpAKPJXJs6D1+McBywdUL3nZpGDczA5PSW3/9YQKGT7kGGZPSEZk2DjMzJqFt05kkRMNoqEddect4EG1ElF88KkhTBozH1RkXY0jr35MSz8NlszJw8ZBQDBh/NTIuHuJ8mkyLASnJqDi6H129qBpjNMK1kxyIyFOC93jsGz4/VHPB1QuadpH9MHZmBjIy7Bf70FqIbVvyoR8y1j6opg1C//CT2L7FtdML0gb1R1xlCQodv8jx+01KR3fmYKJWxrTxuKblZzWjdWg9shWbD4Vj2IX2QXXA4P4wHNuKzWc8vSAR0VENMNmG4bJZrfc3DWN6OT9tO36/i9smZCLypqA5HvsRQ//+/Z+uq6tTXu8VXHD1AqldStT5iAlLxemGDbDpG5Wbzyy2D4bEVmHXt2ux7UAOcnJyUFjW8u/79SWw9RiBwUlGJA1MQs2+rcittAJVJ5GfU4jWm3UlbdxMjIk/je0/7EN56ytcVSeRn2P/Pjk5JTAMGIMLU3UoLCzDWe6OvCw59BKE6CJxuPJrWG1nGgRdMyj+Khh0oTjV+C10Otde34zrOxQx5duw6vvtOJiTg5ycY20/W/XFQNyoQUiMTMbghArs3pyPGhtQeSIPOcfK0fFFViNSBg7CgIQa7P7me2w/mIOcxiSMvSANOGS/38oTeS0/qznIKQ3FOeePRx/bIRxr+4EmOjNdczh6RU5GdWMhTtfuUG6mbgik47Ev3XTTTcqrXLZq1SqUl5cDvnwFlguuHtu1K9y2HxU9ByD2dDb2nujuEGM//SDdugcrVu9A119Wjux9h1AZl4w0vgxLYkewdX81+g6IwYl9e7o8LUCp1PEUgiMFOFqTiOQBnbzSWrYPew7XIDF5QKenIxCR+/F47DteH2BtWn63vBewnbOE4QMQW1UCS5+BGNStITMN42amw7pnRfc/XYBv6iK3SMR5A2NQUWJF6qDB3Rgyy1Bb180p1wHf1EXkHTwe+5ZXB1gutgz7KaSNw0V9a3Hwx03YfUiPIWNbzlc9w5u4EoYPQK+aQhzo4mXXhOGjMKTt6xIw/LxBCK84jeLOb07UbQPGT0Cviv3YvGk3DocPw4Ut56ue6U1cR4pLEH/uhe1v/howGP1jylByxGwfiEed0/51iedh1EADyoqKOzkdgYjchS/E+QevDbBcbJmg7qd4E1fG9AvQN3k4pozqg5rCAzhhBsqz9+GQfgimd+dNVwnpmN72Jhv7ZfoFfVsGgTikT2+9fhL61u7kLzEglzi/iSsD08b0QvJ5l2Fkrwoc3V8EK8qwb89hhA+befY3XR3Ziq/2WDC09ed/VAhyV2xE23u/Es/FzNbvdUkvVPzIX2JA5ElBfSz2M175TVxccPW00E70m7iIuuCPv4mLKNDozDEYE2//TVy7i95SbiYHWjge+1LA/SYuLrh6bEdEROR7PB77H48OsFxw9diOiIjI93g8lvNEQ48NsJ7Y2WDBdkRERL7H47Gcpxp6ZID11M4GA7YjIiLyPR6P5TzZ0K0DrI0fLSGi1XYNlgoAQJg+XrmJSDW9LsT+v/qzvJPfRQ2WMgCAzWZQbiLSIP6cd0arx2Nv8nRDtw2wnt5RrdNyv8bmSgCA0dBHuYlIlWazDqG6GNhgRaOlSrlZpKrxCAAgFD2Um4g0J8rQDwBgbq5VbgpaWj4ee4O3Xsx0ywDrjR3VMq33q248CgDoGTlRuYlIlRBdFACgsqFAuUms9efVaEhVbiLSnNiwoQCAyoZDyk1Bx1uDl5Z5s594gPXmzmpRMPSrajyEBksZIvTJCGlOUm4mconF0ox+kVcBAE7X7VBuFiuvzwEA9I28HM0Wfg4saZe1MRIpERei2daI07W7lJuDSjAciz3N2w1FA6y3d1ZLgu1vegWVy2BDM9KMs2Brdu85ixRc4gwjkRR+Pk7WbMaxqrXKzWK1TSdwtOpbRBp6ITFkfFA9Til4WC0hGBxzE2xoxv7ij9Fsa1TeJGjwMS7ni4aqB1hf7KxWBGO7EzUbcLxmHWJDh6Jv2EzoLTy/kFxjtegQbRuBITG/RJ35FI5Vr/XYQfdY9VpUNORhYPR1iNONhdXCN7qQdujMMegbNhNxYekorFyLY1XrlDcJGsF4PHY3XzVUNcD6ame1IJjb5ZdnoqrxEHpGTsTouN8jBiOA5gjYrMHbhM7O2qyDzhKDIca7MSTmF7DBiiOVq1HRkKu8qdvUNp3EwdJ/w2ytxaDoG3Fej3kIaU6BtVkf1I9hClw2mw02Sygims/BqPjH0Mt4MWqbTqGg4mvlTYMGH8tyvmyomzJliu306dPK67vky50NdGwH6KBHWuw0DImfDb2u/VSCGnMhAIvTbckzAunnMDI0BaG6mLb/rmk6hj2n30ZN0zGn23lKqD4a56Xcjp5RY9uus8KC2ib7G72IAkWPsMFt/98GK45UfIODpYthtZmdbhcsAul50F+52jAzM1N5lcvmzp2LvLw8wNUB1tWdpXZs5yw6rC/6x05HYsQIRITw82GpazZYUdlQgNN1O3C0cjVssCpv4nEpUeejX8wUJBmHO/3FiyiQmK21KKnbi8MVqz3yCR6BgsdjOTUNfTLAqtlRasd+Z6aDHuFnGWLZMDhZbWa3f86rWq0/g6F6I0IMRuVm6gY+jmUk/RotVUH7aqsjSUOyU9vQ6wOs2h0lO/aTY0MZ9pNjQzk2lGE/OTaUkfZz9wB7xjdxSXc22LGfjC3IPmrME9hPjg3l2FA9Pg/KsaGcP/brcoD1x50NJOwnw35ybCjHhnJsqB7bybGhnL827HSA9dedDQT8m54c+8mxoRwbyrGhemwnx4Zy/tywwwDrzzvr79hOjg3l2FCODeXYUD22k2NDOX9v6DTA+vvO+jO2k2NDOTaUY0M5NlSP7eTYUC4QGrYNsIGws/6K7eTYUI4N5dhQjg3VYzs5NpQLlIZ6BNDO+iO2k2NDOTaUY0MZG8//F2E7OTaUC6SGHc6Bpe4LpIX2V2wox4YyHLzk2E+G/eTYUC7QGnKAVSnQFtofsaEMBy859pNjQxn2k2NDmUA9lnCAVSEQF9qfBOqDxZ+wnxwbyrGhenwelGNDuUDuxwHWBXywyLGfHBvKsaEcG6rHdnJsKBfoDTnAdlOgL7Q/YEM5NpRjQzk2VI/t5NhQTgsNOcB2gxYW2tfYUI4N5dhQjg3VYzs5NpTTSkMOsGehlYX2JTaUY0M5NpRjQ/XYTo4N5bTUkAPsGWhpoX2FDeXYUI4N5dhQPbaTY0M5rTXkANsFrS20L7ChHBvKsaGMjW9eFWE7OTaU02JDDrCd0OJCexsbyrGhDAcvOfaTYT85NpTTakMOsApaXWhvYkMZDl5y7CfHhjLsJ8eGMlo/lnCAdaDlhfYGrT9YvIH95NhQjg3V4/OgHBvKBUM/DrB8sLgF+8mxoRwbyrGhemwnx4ZywdIw6AfYYFloT2JDOTaUY0M5NlSP7eTYUC6YGgb1ABtMC+0pbCjHhnJsKMeG6rGdHBvKBVvDoB1gg22hPYEN5dhQjg3l2FA9tpNjQ7lgbBiUA2wwLrS7udrwytc34GBeHvIcLzu+wH2JAK58HRsO2q/78bOfI1b5xZHzsXSvffuOL+5DotPG6/H+5oPIy8vB2hdGwOC07REs3ZeHvLUvYBAA4Eq8vuFg+/f1MVcbUkeeaTgL723JQ0FBQdsl7+A+/Ljmc/zj5lTFz5jdrZ9uR35BAfL+txCpOvt1f1iR63QfTpe1C5HYyfcpKCjAzv/eAaPyG7RIvOYfyPxhJw7k2W+bm70T6//9BC6Nb/mmADDrPWxp2W6/5CJ72yq8MDsRDrcC8AesyC1Awf8W2h9Ts97H1vxDOHTI8bILi+9s3xvj2Ifw9jdbse9gvn17fg72r3sbM67v7Gud72PW+1uR73B/9v9W3HbXYjh8O7/nmZ+/4MKGcsHaMOgG2GBdaHdS37ABJ35cjiVLltgvWcuxqdb5FnHp1+MWxXCZ+tjlGBzhfF2bm6/F8PgalJZa0XvsQ5gUrryBf1LfkFp5vGH9MWzKykRmZibW7S2Fvu+FuOFPK7Bq4cUIdbrhncg4NxYVpaWw9RuP318QAgBYu2wJMjMzkZm5DodqbU73l5m1GnWtX+54fWYmli7biibHu29hvPszfLPoBoxKBoq2f4ulmWuxu9iKlHF34bWsV5GheIzUH9uErMxMZK4tQEOPc3DNs+9gTkz79q76tX1dZiYyM5cia6t9b4w3votvP30Ilw+KgqlwO1YvzcTKLTkotUSi94GvkLWk5Wt2nkYzgPL9yzrcR0f1OLYpq+3Pnrk0C13e1M901Y+6jw3lgrlhUA2wwbzQ7iJraEbZuj/j0UcftV+efg+7G9u31lVVwRIzBFfd2dPhayZg3mUDYSgrQUWzw9UAgEj85oaRiKvKwbvfF6K553n45UT/n2BlDcnmrU8NMZfg2yfmY/78+bj7xqkYO/tD5DZEYODMp/B4n/bXMo3zZmNETBmyX9mA47Y+GHPvaIQAWP/qY5g/fz7mz/8SxxtsTvc3f9FKNHTyfebPn4+nP8yGpe3eW92Kt39zIeIshVhyx3hcdvOv8Mj8u3Hj1Ml4cl0JQvpMw6OLxsI+OtuZS77FE/PnY/7dM5FZ0AxExKBfy+R9pn7mkm/x+Lx5mDdvHubNewof7rcAxrvw/uOXope1EMt/NQkXXXkTfjV3Hn5zawYuvfxWvJ/9X/x5fsvX7KoCANTmPet8H50yo+Tbx1tuNw/znvoQXd7Uj5ypH3UPG8oFe8OgGWCDfaHdwdMNrYX7kFsbgSFXPojU1iuvvAPjepmRtz2v46tSkXfi8sFRqMz9Ep9/vg9FlmSMuudqOLzI5Fe8NnhpmE/7ZT+DP35/Cs3hfTHultafMiN+fekgRJQdxGf//hzZp5vRc8yDmObuv0c9eANGxepQ+uM/8PhGs8MGE/57/39xsF6HPmPuxWjHCbZF4uS/45J+ejQeWocXKtQ1NM77GUbH2nBy7Tw88l0FXL8H7VDTj5yxoQyPJXZBMcByoWXc92CJwah5m9vPgW07N7WFbTMyd5dDl3oR5gyzn2l4/c/HIKlmPz7/tt7xlgCA1MeuwbDoKhR8/R1qdn2EnacsiE+/EbM6nETre+7pF9z8oeGPp2sBRCKmT8tLmQP+gJnpkajIX4K1jT/ig92n0Zw0HL+8qqtzXjrR4wL8YW/7OatrF3Y8QXtAaizCdDU49sN6OPyjhZ0pF2V1NiAyASPD2q/uccEfsLegAFvf/yl6l63HC//3Z5ywnr1hjwv+gH1t56WuxaJE4IrBCTCgFkVbD3Ty6rBED1zwh33t58CuXaQ4x91/uO95MHixoRz7tdP0AMsHi5x7+ynOgV22GmWKWyx7fTOKkIpLHpmE8Mjf4JbRCajJX4av2k4YbJWKuy5KQ3hNIb5fVQVgF/675zQscem4XnkSrY+5t2Fw8teGA351IVJDqnFk9So0APjxP9koaU7A8J/f3OUbsTpQnAObtbrDDzuSI53Puu2OtnNZV+5CZeIleGzlN/jn+Z28RKvgfA5sFr7puDtupDgHNuub9nOD/Yi//vwFEjaUY0Nnmh1gudBy7m+oOAd24XLYz5ZzsPlz7DptRfLwW3HpgzOQbizGzte/6Hi7MQ/j0oHhQMwozNtsf0X3o6v7IgQxGHLVnXA8i9aX3N8w+PhTw1mDEqBDNUr21gO4EPMnpSEEPXDBH/baX0F9bxp6GYAew67D3d09l0VxDuyilW1nx7b5MbcUTbYY9Bk7zOk8VwCAcSgSo3RA9SmscfiHirZzYO//GX7y/gHUhw3A+F92/OcJq9XidEqA8zmwi7CyAdhbUgcbIhE7OF7xSQZSinNgHc8N9hP+9PMXqNhQjg070uQAy4WW813DzVj4v8Mw9xyHP18/BGGntuOFDR3+0RQT7hiL3iH1OLbZ4RXdJf9DTlUzIgdOxd29lV/hfb5rqB3+1NA49m+YMz4RKNqKFz4xAVPuwfk9DTAd3eDwimUm/pdfDZvxHFx5bw/lXaj39lrkmWzoOXkB/nGx46uxRtz4yo0YFmnDyf0f4GQnubpseNdI9NID1SW7zzo0HnllCwotoRh8zSuY07+zDxLTpi7bUbexoRwbdk5zAywXWs5zDUOROOVJPPfccy2Xp3Hn6I7vdjn2z+U4WBuN+Hgdjm15DQc7fPrABNw8pidC6o/g6/lz21/RffRevLitFM0RgzF1TtvbwDoKTcSUJ1v34Tk8N++ajp89K+S5hsHD5w1DkzHtLwuwYMECvLN0I7Z89jMMsh1B1qNzsMEMTLn1PCQbTCjInIO5La+ezp8/H/e8vAtl1kgMuXIu4pT32RmH77NgwQIsePo2DFe+zGp6AU98kQdTWBoy3tyAVZ+/gUUL3sHSjVvwlynJsBRm4bcPbXc6P1UX3hcTJ9+Kx17+L1becS4im45g60dV+P1nq/DR65/guwfORw9bKfZ99gVMDl8XmjwNf124EAtbLs/cNgIhR36Hf31zHKaYUZj77XZsWPIB/rVwIV79ZAU2rv8Ed3T7fInA4fOfPw1gQzk27JqmBlgutJxnG0ag74XX4Lrrrmu5ZOCaidHKGwH1r2Jlbh1s9XlYueggOsyv19+HCb1CUH9kHT467bzpmy/3obQ5BKkXzUHL+8A6iuiLC69p3YfrcN2s6W5944hnGwYHv2gYmYqJGbMxe/a1uGRwKEq2vIN7Jk/HvI1mALfivnE9YTAV4Lv3a5y/btmXyC63IrT/JZjftxv/4N72fVou187CeIc3Y7XKfmYmpj68GDm1RqSNnYZrZ0/FuXGNOL7xDdxx5Tw4fTgBgJgRd+HN95/FfVeNQXLjYSx74kb8dqcFlug0XHLlRKSFnsa2t+bg7iXOr79Gpk5ERuu+zJ6NazPGIwzAsjk/we0vrkF+RRh6jpqMjNmzceW4NISZTuB4hwdpYPOLn78Ax4ZybHhmuilTptiKioqU1wccLrQcG8qxoRwbyrCfDPvJsaGcFhtmZmYqr3LZ3LlzkZeXB2jlFVgtLrS3saEcG8rY+KkhYuwnw35ybCjD58HuC/gBlgstx4YyfMKRYz85NpRhPzk2lGE/1wT0AMvFluHgJcd+cmwox4bq8XlQjg3l2M91ATnA8sEix35ybCjHhnJsqB7bybGhHBuqE3ADLBdajg3l2FCODeXYUD22k2NDOTZUL6AGWC60HBvKsaEcG8qxoXpsJ8eGcmwoEzADLBdajg3l2FCODeXYUD22k2NDOTaUC4gBlgstx4ZybCjHhjI2nv8vwnZybCjHhu7h9wMsF1qODeXYUI4NZdhPhv3k2FCODd3HrwdYLrQcG8qxoQxfNZRjPxn2k2NDGT4Pup/f/ipZLrRcoDQM1RsRHdYXOp1//X0qUPr5M2lDi7UeNY3HYYNVuclj4iIGQ68LUV5NAUr6MxgsGi1VqG06pbya/dyADe3c/atk/XKA5WLLBEK/hMhzkdbjMsSEpcIYmqLcTNTGajOjpukEyk0HUVCxDGarSXkTt5o26BWE6o3Kq4k07Xj1BuwuesvpukA4lvg7Nmyn6QGWCy3n7w0NunAMTbgBabGXt13XaK1AReN+2NDsdFuicH08EsJHtf13g6UC+0s+QHHdbqfbudPU/s8hMjQJp+s3wYom5Wav8e9HMmlFhD4ZCeHDOwyw/n4sCQRs6EyzAywXWs7fG0aExOOiPr9HREgimm31OFD9JhpxGnqDf+83+ZbNZgOsoegbdhV6Rk4EABRULEdu2RfKm7pF6yuw26t/B71ep9xMpCk6cwzGxD/uNMD6+7EkELBhR+4eYP3ipEMutFwgNByedBsiQhJR3PAjdlU/C7OhiMMrnZVOp4POYMHJ5izsrXoeVlgwOP4aJESmK29KREKBcCzxd2zoHT4fYLnQcoHQcFDcNUg2jsJJ01oca/wSeoPyFkRnZzEUI7vyNQDAkITrEBXaS3kTIlIpEI4l/o4NvcenAywXWi4QGuqgx4C46WhGA043refwSiKN+uM4Wf8dEiKHoU/MBOVmIiKfCITjsZb4bIDlQssFSsP4yCEI1Uej2pwPhHj2HeSkfXq9HkUNmwAAyVGjlZuJiLwuUI7HWuKTAZYLLRdIDRMihgEASht2KTcRqWLTNQAAwg2xyk1E5AIbP+9CxMZfUOAzXh9gudBygdZQrwsFADRZK5SbiFTRhzSj0VqBiJB4RITEKzcTEXlcoB2LtcarH6PFxZYJ1H4jU+5Gn+iLsavyr7CF1Cg3E6ky3PgYwvXx+PbQ/W795QZqP0ZrzJgxGDp0qPJqIlitVmzfvh2HDx9uuy4+Ph56vXteQ6qsrERzs8rP0TZH4/z4J3C8egN2nXpTuZW6EKjHY19y98doeWWA5ULLBXJDDrDkCf42wP7vf/9DWFiY8moiAEBBQQFuu+22tv++8KIJCDXGAnoDYHP+h3z7070NRqMRdXWm9m221l9wYWu5DRDSVI1du3aiocF+Wo3LOMC6LJCPx77k7gHWPX/9OwMutBwbEvm/0FD7qTJEnQkPD3f6b7PZgqhRMxE99noYL7geEWN+irDRsxEy8joYRl6LSbPvwjO/fwQPzp0HS/osNA65BvVDrkLd4JmoGTQT1QN/gooBM1BvtvIY4UVs7T88OsByoeXYkIhIexqbmtDQZEF9owX1TRY0NDWjobEZ9U3NqG9sxjkp0dDrdEhLiIReb0N9kxmmppbtTc32/9/YjMYm3/2642DD47F/8dgAy4WWY0MiIm1qbGhAXVUl6qorUFdVAVNVOeqqy2GqLoepphxfbsrF9oISfPx9LkpLStFQW4mGmgo01lagoaYSjbWVaKqrRENDPY8VXsDG/scjAywXWo4NiYi0q9liQfEPn6B4zRsoXfsmyta9hcr1b6N6wzuo3fAusjNfwD+enIvlb/4J5q0foPnHD4HtH0G342OE7PoYYbs/QfieT9FoquPpKx7G47GcJxq6/U1cntjJYKO1hlp5E1fC8Cm4+Jw4p7/11R/fjrU7TsDscJ33pGHczDGIOLQaG3LqgbRxmJluxZ61O3DCNzvkVf72Jq4NGzZAp+v+7Sm4HD9+HDfddFPbf6ekpOClV19H314pTrdz1R133o3yshKUl5crN3UP38R1Rlo7HnubY78lS5Y4bVPDY2/i4kLLsaEbpY3DzOkXoK/4xYk0jJuZgUl9a7FzRRaystovOfpRmJkxCemRyq/xhkJsW5FlH16JKODYbPZPE5BcyDPsa8PAEp7u57YB1tM7GgzY0B8lYPiUUYg/vR0rVnd8ZbNw2wpk7WrAoEnuGJSJKJjYbIDVZnW61DfUw2wxt/13eUU5Tpw43nYpLil2uj2PG+7HpnKebNh634b+/fs/XVtbq9zuEk/uaDDQer+eURcgJiwVRQ3rAb0L75hNG4eZ43uh/tgp1Fg7uy4Bw6dcgYmjhyE9PR3p6WmIqj2GUzVWJAyfgiuGJyMktAf6DElHWlQtjp0KxbApVyA9PgIDxl2E0f2jUHvsFGqsaRg381KMG56O9PTW29bACgBpIzCuZzX2bc1FpRVIGzcTl44bjvT0NPTrNxDxTcdx6rgJYf0GIq7pOE617mjaOMy8dByGK/bL/mruePTSGTHk4gkYPaz1+8XjgrZ9SAYKC1Fmcfgzt92X4/7Z//zpEcdQWGYBYvtgSJINp4849GqjaJXW+me3nxpxxcTRGNbh/tt764xDcPGE0RjW+meJv6B9n5KBwsIytO6utySHXoIQXSQOVXwNq81950wMir8aBl0oTjV+69IpAXfddZdLt6fgUl1djcWLF7f9d1RUFH4y82r0iI5qu+7AgQO47777cNnUqYiJjgEA/P3vf8dnn32KI0eOYvv27SguPo0xY85v+5qlWVloqDehvl7lv8RYw9A7cgqqGwtRVLtduTXoaP147A1dNbz55puVV7ls1apVKCsrg06nk70Cy5fY5djvDAqLURKSiJ4prS9tJmD4gF6oKTyAE+YEDJ9yMc6x5mF16z/p76pAz7EXIT0SKM9eh+W7TsJcfxzbV2RhtcN5qgnJIShYlYWs1Ttwwtx+Hqn9tIBdqOg5HCNbXk5NiDaiqvAATpjtg96oiEMt3y8HVWGtD59yFJWaEREdYv/PtHGYOSYCh1Y77NfwkQ6v0Eai34Aw+z5syEdjn7GYmZGGmrVZyMragPzKOKSd2xetN09LCXW4r5MI6TcQg1w6ZcHeqm/tTqxoabXrlH3ctJ/Xa0Ve6/1n7UJFz7G4yPGciMh+GBBWgFVZWdiQ34g+Y2ciI60Ga7Ps+18Zl4Zz+fIzkcuarda2y1NPP4Xnn38ex48fQ7PV1na9DTZceulU/OGPf8Qf/vhH/PK2252+jtyHx2M5bzZUPcB6cye1ig3PphDFJSFI7JliH+YSeiGpRyVKCuvb/n/O9hy0ve5QeAhHK+OQnHbm6a68ZSAFAKSlINlyHIcPtd5LIQ4dbUR8y/eMNka1PEgS0CspFCcPH2r5frUw1dWhrrzjK39pKcmwHD+M9rs8hKON8Q6DeD2OZ++170N5EUqrrahvu305ikqrEW6MRss4jMJtm9B2mmthMUrMkYhKcGFgTBuE/uEnkb23fYgv3LcHJ8wJ6JXUA5U529vvH4U4dLQScclpaKtYf7zta8uLSlFtrcfx1g7lRSitDoexdXgnom6zWCwwm+2X2267HY8//oT9+pbrzGYLrFYbvv76a9x+2y/xu9/+Flu3bm3bZjZb0Pq7uUiGx2M5bzdUNcB6eye1iA27p/DQUTTG90RKKJDQKwmhJ1sGvWgjohpNqHX6d+ty1JqaERmV0Pbq5dkkRBthiOyHsTMzkJFhv0w6Jw5RDgOkXTSMUY0OA2s0jFHtDx/HQTfaaEBkv7GY2XJ/GRmTcE5cVBdDnn2f6+vKu/4kg4ThmHJN632NQZ/u/uFaJEQbYaivQ8dZ2/5nMjlHRHmtCc2RUeh0Ri6vham5vtPBnYhc02Q2t12SU3qiyWJ/LDZZLG3X33DjjVj0rxfw6utvYviIEfjLn/+E+oaGtu08lMjxeCzni4YuD7C+2EmtYUMXlBeh1ByPninJ6JUUiorTxfZBr9aEunAjOpsJzzgMKpTXmtBcntN+GkLrZYP9ld3C4hLEJKchErUw1bW/upswfAB6tZ3ZMBwDYk+3vIprH0jLc1pPSWi/qPq0gIThmHJxAk5/1/5P/Ce7+4dr0fVAWgtTXRevnnY68BKRO1kszWhsMrddmsz2B12Tuf26Pn1T0SM2Do1NZgweMhQlJSWoqqpu287jiQz7yfmqoUsDrK92UkvY0FX280vj+5+DnqEVOF3cMlWVF6G0Og7pY9Pb/6k7bRxG9Kmxn2LQXYXFKIlJx9iuPgerbXs9svcdgn7IdGRkZGBsRAG25OsxZHoGMiYl4PTG9k8oKCwuQUz6WPd8tJbylea0FCR3GEQ7kTau/eO9CotREtIPw0c6nFd73ij0DbWfrhDntK9pGDeiD2pKCttPzSAijzCb219pbTKbW04JcL5+8+ZN2Lp1C/Ly8/DFf/+DCRMvRmh4eNt2Uo/HYzlfNuz2AOvLndQKNlSnvKgU5oRkmI87nLuKcmSv24h8/RBMb/2n+jEROLR6g8P5oodwtLEPxs7MwPQL2oc3Z4XYtiW/bTC1X6bjgrY3JbVvnz6gCpuW218JXb3jBEqy12F5lv2NV04vrhZuax9uW+9T7efROvwZMjIykJEWikqXj1mF2LbC/uas1tMaxsQ1otxsf7PbRqd9dfjFCETkUU1mi9PFEBqKqZdfAUNoaNt1Or0B27dtw2cff4yRo8fg9rvvdfoaHlfUYTcZmx+8ib9bv4nL1zupBcHcUCu/iStt3EyMUZ6AWn8c24PkN1/5G/4mLgoknf0mrgcffQIpSYlOt3PVX5/9I6qrKvmbuLopmI/F7qK2obt+E1dubm73PkZL7Y5SOzbUhsJtKzqc12r/KC7lLYmIzsxgMKCgIB9792eLLk1NLny2dpDjsVjOnxqe8RVYf9rRQMR+dlp5BZb8C1+BpUCifAV26NChMLvhHNbIyEgcPHgQVrWfCRskr8DyeCwnbeiVV2D94dyGQMd+RMGlublZeRVRl3Jzc3H48GHxJTs7W/3wGiR4PJbzx4YdXoH1x50MNGzojK/Akif42yuwb775Jvr376+8mgg2mw3fffcdnnvuOeUm39P4K7A8Hsu5q6G7X4F1GmDdtZPBjA07GpF8G/rFXIrdlf+ANaRSuZlIlcFh96BH2GCsPfoo6s2lys2qqR1giQKShgdYHo/l3NnQ3QNs2ykE7tzJYMWGnbNY7R/JFK6PV24iUsXarEOPsMEwN9eh0cK/FBGRMx6P5fy9oR4BsJOBgA27Vt14FAAQHzZcuYlIHWvLbw/T6WC1Of8qXAk+jokCHx/HcoHQsNM3cZFrAmGhfamiIQ8AkBwxATa+14DcwKjvCwAoNe1TblKNj2OiwMfHsYwtgN7EzwFWKFAW2pcaLBUortsJPUKQYBjPZiTS3KTH0B63AQAKq9YoN6vCn0miwBZIg5e/CrR+HGBV4oPFNQfKPoHZasKAqNkwNPNcWFLHarWhv/F6GHSROFr5Hcrrc5Q3cRkfx0SBjY9huUBsyAFWhUBcaF9rsFSgoGIpAGB03G8RbRsBq4Xv8KbuM1gS0D/8FiRHXIDiup0oqMhS3sRlfCwTBTY+huUCtaFuypQptlOnTimvpy4E6kL7i7TYyzE04QYYdOGoM59ASdM21FgKYEYVALbtvuBopbOFIkLXG3FhQ9E78lIAQGVDAXaffhMmc7Hy5i7p6rF82YAFiAxNws7KP8Gm46/pJA/p/MfP6yJ0fTE89r6A/Bitrh7D1H3ebOjuj9HiAOsCby60VtlsNsRHDEVqj6noEzNBuZmoSzVNx3Gsai0Kq9bCBtlvvTrTY3n64FcRqjcqrybStEAbYM/0GKbu8XZDDrA+4u2F1iLHhjroERcxGEnGkTCGJiE8hOfFUkdWqxn1lnJUNRSgxLQXDZYK5U1cdrbH8phev0Z4SKzyaiJNK67djYLyr5RX+6WzPYbp7HzRkAOsD/hiobWGDeXYUI4N1WM7OTaUY0M5XzV09wDLN3Gdha8WWkvYUI4NZWz81BARtpNjQzk2lNNSQw6wZ6ClhfYVNpTh4CXHfjLsJ8eGcmwoo8VjCQfYLmhtob1Niw8Wb2M/OTaUYT85NpThsUROq/04wCrwwSLHfnJsKMeG6vF5UI4N5dhPTssNOcA60PJCewsbyrGhHBuqx3ZybCjHhnJab8gBtoXWF9ob2FCODeXYUD22k2NDOTaUC4aGHGCDZKE9jQ3l2FCODdVjOzk2lGNDuWBpGPQDbLAstCexoRwbyrGhemwnx4ZybCgXTA2DeoANpoX2FDaUY0M5NlSP7eTYUI4N5YKtYdAOsMG20J7AhnJsKGPjO71F2E6ODeXYUCZYnweDcoANxoV2NzaUCdYnHHdiPxn2k2NDOTaUCeZ+QTfABvNiuwMHLzn2k2NDGfaTY0MZHkvkgr1f0AywfLDIsZ8cG8qxoXp8HpRjQzn2k2PDIBlgudBybCjHhnJsqB7bybGhHBvKsaGd5gdYLrQcG8qxoRwbqsd2cmwox4ZybNhO0wMsF1qODeXYUI4N1WM7OTaUY0M5NnSm2QGWCy3HhnJsKMeG6rGdHBvKsaEcG3akyQGWCy3HhnJsKMeG6rGdHBvKsaEcG3ZOcwMsF1qODeXYUMbGd3qLsJ0cG8qxoQyfB89MUwMsF1qODWX4hCPHfjLsJ8eGMnwelGO/s9PMAMvFluETjhz7ybGhDPvJsaEM+8mxYfcE/ADLwUuO/eTYUI4N1ePzoBwbyrGfHBt2X0APsFxoOTaUY0M5NlSP7eTYUI4N5djQNQE7wHKh5dhQjg3l2FA9tpNjQzk2lGND1wXkAMuFlvN2wxlv/ICc/Hzk52/DZ7fGKjcjcn4W9uXnIz9/J764L7F9Q/wM/HnxOmzfn4P8/Hzk52Rj5/r/4unpyTA43W8nl51fwPGu7OYha7/z7XKyd2LTV2/j4cvt99nV7fLz8/H9i4PbbtHecAbe2JiLgoKClksecvZsxtcv34ze7XcI3PABtuYWoCBvHV4c4bgBAIwYc/+7+Hb7PuTk2+8n98AGvDc7xr45fgb+snQj9hxo+T55Odiz/Gn0AwDMw7Ls1u/dflnnsK/+yts/h1rCdnJsKMeGcmyoTsANsFxoOd82jMOwn94C57kyFb+9YjAinK4DEHkrPlj5Im4e0xOGkt34LmsJ1uw6BUvSGPzihUy8fmMsslcsw5IlS7BkyRJsP2UBUImDK+3/vSRrOTbVKu+0ReVBrFyyBEuWrMSWgjoYz5mKOa+twOcPpDkMsY63s1+WfVMKdNWw4QS2Ls9EZuZa5DbEYejMp/Dhn4a23d8t141AfE0pSq29Me7hSQh3+FLjrz7Aew9firSQIvz4VSYyM1dgS2EjwlPCAEzA85n/ws3DY1Gb+z2yMjORuTYb1YhGqMN9oPIgVmRmIrPlktWyr/6q04bULWwnx4ZybCjHhurppkyZYjt16pTyer/EhZbzVcMZb/yAF6+IRk1lOOLC8/D6tFlYcLpl44QXsPb9GYgsr0FcSgj2LZiG618vww3vb8FfJsXg1NcPYOaD36G+5eaR176J1X+/HCnla/B/l9+L7xvt18/L2o9fDy/F1zMuxYMFrd9ZaR6y9v8aw0u/xoxLH0Trzdrus2YLnp5+Kz6t6vx26LThDLyx8SVMM+7Dgit+itfKAKT+Cd+s/jn6H/83pk17HMeM9+OLTXPRf/8/8V3SI7ghZiPunnoX1rbs+4w3NuKlaTpsuHsq7mq9ss08LMv+DQYdeRfTrvoLOj5a7duHl36FK6c476s/6tiPXMF+cmwox4ZywdZwyZIlyqtcNnfuXOTm5kKn0wXOK7DBttCe4PuGVhzbl4vaiCGY8VBq27Uz7hyH3uY8bMtrcrjt/+FnYxJgqNiJl55oH14BoH7pQ/gsuxa6nufhtomOr2OqV7/0Xnywtxa6hIG44vyu77PbDctMMDvc1Hjn5TgnqhK5X3yGz/cVwZIyCvde03J6AIDiuibYkITzH56D9JD2r7OrRoPZhoiB0/GHaxxPcwg83e5HnWI/OTaUY0MZGz/xwi0CYoDlQsv5S0Pr5kzsKtch9aI5GGYAgBtwy5gk1Oz7HN82ONwwNRWx4TrUndiCdTUO1wMA6pFfWgcrIhE3LFq5UbXCik7us+9VWNV2DuxOfPnrDifVdhQ/EXPfnoXBYRac2PEhTiIVj806F9FV+fjq2xrs/GgHTlnikX5jBlrPBt755PNYdcSEqJG/wfLdP2LFq7djcNsg+xYef28HSnX9MOOFH7Bj7ad4quUcYCd9r8Y3befA7urevnqRv/wMBir2k2NDGQ5ecuznPn4/wHKxZfzvCScLr28+BaROwiOTwhF5/y0Yk1CDvOXLYXK8WWIUwnSOV/iI03mlS7G8y5NqAcSMxvytBSjY9jHmXJSEuuxP8NTTB9GcejcmpIWj5uj3WFkFYOd/sKfIgrhh1+PnrTOmaSkevGIqHnhvC441xmDIjD9i+YZPcX+afUzN+9fPcNnNzyIruxwhfS7Cba+uwYp/ToXR8fu7sq9e5l8/g4GH/WT873kw8LCfHBu6l95fg/IJR85f+23+bDeKrMkYceuleGhGOozFO/D64irnG+06iJIGG6JSRmNEh3/Rj8Q5SVHQoxanN1QqN6oUiZG9Y2GwVuPEeof7rCvA8/PnY/78+Zg//ym8u0t5fqqD1jdxvf933DljPMbPehbrTcD5c6diYDgQM3o+thYUoKDgE1zdLwSIGYKr7urpcAcVWPXnn+PyCybi/qxDsCRdhDv/fh1aTzQw7foQc2dNwIU/W4StZeEYfO2TeLL9TAzX9tWL/PXnMBDweVCO/eTYUI4N3cOxo1++AsuFlvPrhpsXYO1hM3pe+BdcPyQMp7a/gA0dZq2P8V1uDawpE/H0c1cg0mFL5LUv4Jbh0bCdPoB/5zU7bFEv/sbX8NP0CNTnfYN/HVR5n+ZSrHt2Pub/6S2sy6+E/V4m4M6xvRFiOobNy9o/ISBzTQ4qm40YdNk96K28H1Rg1RNrUGgGYvtMQpJiq2nXK/h0fxmaQxIx9Mp4xVb/4tc/h36O7eTYUI4N5djQM/xugOVCy/l/w2P4x/KDqI2OR7zuGDa/erBl2HNUjzee+A8O1oSg309ewPff/BtvLFqAN79cj83/vBy9bMex8o8PtX0CgcuiBmHuggVYsOBlfLhyKzb+dRISa3bizV//HYeaHRpGDW65Xctl/jVt5612y4SfY3SvEJiOfIVHHm59dXQ+5v/fC9hW2oyIwZfhgVTg4cWbsWHpB3ihZZ8+//rnGBrWhBM7F+PkjJexeuNq/OeN5+378NZyPDU5BbrqAny7pKL9e0n31c38/+fQf7GdHBvKsaEcG3qOXw2wXGi5QGlY/8pK5NbZUJ+3Aou6esUz7+/IuPwBfJ5djfB+Y3BFxnW4fEQizCe34L17Z+LB7xw/m8BFccPwk+uuw3XXTce4ns049M2fcNWEG/FSYbNzw7hhmDl7Nma3XjKu7PCK6Jnc8OsJ6B1iwpF1H6L1U8PsVuHLvaVoDknFhAeG4WRJAyIHjW/5XjNwfkId8lY8g1vm/4DG4uOoRgpGTJ1l34dLB0N3cgvef/A2vF7mcJfCfXWnQPk59EdsJ8eGcmwox4aepZs8ebKtqKhIeb3XcaHl2FCODeXYUD22k2NDOTaUY8OO3PE5sA8//DDy8vL853NgudBybCjHhjI2vuFIhO3k2FCODeXY0Dt8PsByoeXYUI4NZdhPhv3k2FCODWX4l3jv8ukAy4WWY0MZPuHIsZ8M+8mxoQyfB+XYz/t8NsBysWX4hCPHfnJsKMN+MnwelGM/OTb0Da8PsHzCkWM/OTaUY0P1+Dwox35ybCjHhr7j1QGWCy3HhnJsKMeG6rGdHBvKsaEcG/qW1wZYLrQcG8qxoRwbqsd2cmwox4ZybOh7XhlgudBybCjHhnJsqB7bybGhHBvKsaF/8PgAy4WWY0M5NpRjQ/XYTo4N5dhQjg39h0cHWC60HBvKsaGMjW84EmE7OTaUY0M5NvQvHvtVslxoOa03NOjC0SM8DbERAxAd1g9+8ovhyIHWfwaJgoHNZkN14zFUNxaiqv4wzFaT8iZ0BnwelLPZbFi6dKnyapc5/ipZjwywXGw5LTeMjxiK1B5T0SdmgnITERF52InqTThauQZlpoPKTaSg5WOxt7Q29PsBlosto/V+KVGjMTzpNkSExKPZVo+yxn0ob9yLRlsxbLAqb04UmLT9MPY4GwO6XYQuGXHhw5EYPgph+h4wW03Yf/pjHKtar7wptdD68dgbHBu6fYCdMmWK7dSpU8rbuIwLLaf1hv1jp+HcpJ8DAPJqPkZ1czb0Idr+MxMR+ZNmiw49dOdiaOwvAQD7Tn+IwxWrlTcLelo/HnuDsqE7Bti5c+ciNzcXOp2bTjpU7iS5TusNQ/VGDIybCQDIrnoNtbr9HF6JiLzMEGJDnSEbuyufAwAMS/4ZIkOTlDcLalo/HnuDNxqKB1hv7KTWBUPDYUm3ICIkHoWm5Wg0FCo3ExGRF1lDypFf8zlC9BE4v8+vlJuDVjAcjz3NWw1FA6y3dlLLgqFhqD4afWImwgoLSi0/KDcTEZEPVNl2ob65GImRw9AjPE25OegEw/HY07zZUPUA682d1KpgaZgQmQ4d9Chu2ASd6p84IiJyJ71eh2LTVgBAUtQI5eagEizHY0/ydkNV44S3d1KLgqlhbMQgAEBFY7ZyExER+VBd83EAQLihh3JT0Aim47En2Hz0y25cHmB9sZNaE2wNQ3ThAAALapSbiIjIhxptZQCA8JBY5SbN89XgpSW+7OfSAOvLHdWCYH2wGPT2AbbZ1qTcRERE5HXBeCx2N1837PYA6+sdDXTsR0RE5Hs8Hsv5Q8OzDrDB+qqhO7EfERGR7/F4LOcvDc84wPrLTgYyNiQiIvI9Ho/l/KlhlwOsP+1koGJDIiIi3+PxWM7fGnY6wPrbTgYiNiQiIvI9Ho/l/LFhhwHWH3cy0LAhERGR7/F4LOevDZ0GWH/dyUDChkRERL7H47GMzc/fxN82wPrzTgYKNiQiIvItfx+8AkEg9NMjQHbUn/HBQkRE5Hs8FssFSsMO58CSawJloYmIiLSMx2O5QGqoD6Sd9TdsR0RE5Hs8HssFQkPHfeQrsCoFwkITERFpHY/HcoHYkAOsCoG40ERERFrD47FcoDbkAOuiQF1oIiIiLeHxWC6QG3KAdUEgLzQREZFW8HgsY9PApydxgO2mQF9oIiIiLeDxWEYr/TjAdoNWFpuIiChQaeFVQ1/TUj8OsGfAB4sc+xERkRSPJXJaa8gBtgtaW2hfYEMiIpLisUROiw05wHZCiwvtbWxIRERSPJbIabUhB1gFrS60NykbNllqAAAGXaTT9URERF1RHkvIdVpuyAHWgZYX2ls6a9hsawQAROiSlZuIiMiHogxpAIB6c6lyk091diwh12i9IQfYFlpfaG/oqmFFQz4AICnifOUmIiLyoZiQgQCABkulcpPPdHUsoe4LhoYcYINkoT3tTA3L63PQbGtEbNhQ2MwRys1EROQD5gYdkiPHAQCK63YpN/vEmY4ldHa2IPr0pKAfYINloT3pbA2tNjMOVXwFPULRO/xy2Kw65U2IiMiLmi02pBpnIkQXgYMli1FvLlfexKuCafDylGDrF9QDbLAttru58oRTUP4VKhsK0Ns4GcmGqbBau/d1RETkXlarDfGGC9HbOBn15lIcrlilvIlXdfc4Ql0LxoZBOcC6MnhR51ztZ4MVe4vfgdlqQmrUlRgRPQ+wGF2+HyIiUsdms8FmDseQiF9jcMz1sNrM2HnqDVisDcqbeg2PAXLB2lA3efJk26lTp5TXa1awLrQ7SRpGhMRjRPLtSIka3XZdScMO1JgLYNNZnW6rZZKGROQHAuwxHBM6GEkR58OgCwUAVDYUYOfJN1Db5LvjP58H5QKp4dKlS5VXuezhhx9GXl4edDpdcA2wgbTQ/spdDVN7TMGg+KthDE1RbiIiIg+pN5fjUMVKHKn4BlZbs3Kz17jrWBLMAq0hB1iVAm2h/ZEnGhpDUxAZmoQIQ7xyE5ETT/z8BRs2DF6NzVWoN5ejpvG4cpPX8edQLhAbcoBVIRAX2t+woRwbqsd2cmwox4ZybCgXqA3dPcBq/k1cgbrQ/oQN5dhQPbaTY0M5NpRjQzk2bKePiNDuB8tzoeXYUI4N1WM7OTaUY0M5NpSx8dOTAAARERGIiYlBTEyMdl+B5ULLsaEMn3Bk2E6ODeXYUIbPg3Ls1zlNDrBcbBk+4cixnwz7ybGhHBvKsJ8cG3ZNUwMsBy859pNjQxn2k2NDGR5L5NhPjg3PTDMDLBdajg3l2FA9Dg1ybCjHfnJsKMeGZ6eJAZYLLceGcmyoHtvJsaEcG8qxoRwbdk/AD7BcaDk2lGND9dhOjg3l2FCODeXYsPsCeoDlQsuxoRwbqsd2cmwox4ZybCjHhq4J2AGWCy3HhnJsqB7bybGhHBvKsaEcG7ouIAdYLrQcG8qxoXpsJ8eGcmwox4YyNr7xUrWAG2C50HJsKMMnHBm2k2NDOTaU4fOgHPvJBNQAy8WW4ROOHPvJsJ8cG8rweVCO/eTYUC4gBlg+4cixnxwbyrCfHBvKsJ8cG8qxoXv4/QDLhZZjQzk2VI9/AZVjQzn2k2NDOTZ0H78eYLnQcmwox4bqsZ0cG8qxoRwbyrGhe/ntAMuFlmNDOTZUj+3k2FCODeXYUI4N3c8vB1gutBwbyrGhemwnx4ZybCjHhnJs6Bn68PBw5XU+xYWWY0M5NlSP7eTYUI4N5dhQjg3dKzw8HDExMYiOjoa+urpaud1nuNBybChj45tlRNhOjg3l2FCODWV4LPGM6upqnDp1CqdOnfKfUwi40HJsKMN+Muwnx4ZybCjDwUuO/bzDLwZYLrYMn3Dk2E+G/eTYUIbPg3LsJ8eG3uPTAZZPOHLsJ8eGMuwnw+dBOfaTY0M5NvQunw2wXGi5wGsYjxl/WYz12/chJ78ABQUFyD2wC8uf7tey3Ygx97+BlZv2tmzPQ86+bVj9+u0YHOJwN/OWIbugAAUHVuOvQw0OG4AZb2xEbsE6vDi49abZKCiwf6+2y7oXMbht2zq81HLbGW9uRN6hQzjUesnPxd6Ni/HkZGPrvePNjXn2bdv/jVtj275tCyMeW5Zt3747E79OVHyNw2V35q+RCGD+sgPO2/IOYvu3r+KW3s5/rnbzseyA/ba5//snhnW4mcP3W/8SWv5oLe2/wIadB1r+jHk4uPsHLH7mSiQbAMx4ExvznPex/bIbmfY/jJN5Lft++PBh+yU/B3u2rsS7j1xuv88WP3lrE/Jbb9N62bMEv+l4lx1uW5C3D1tXKnuk4ZlVB3H48GHsWfIbKO/GOGYO3luzA9l5LfuWn4ONH/wUMfatGDPnPazZkY28Q/bvkZ+zER/81L5V+f3PtK/uEHiPYf/DhnJsKMeG3ueTAZYLLRd4DYfgd0vX4KWbz0fPkCoc/GE5MjPXYNcxExAdCgCY8JdMfPjwNAzu0YBDm5Yjc8Vm5FWFof/0J7FkyRMYpBzWwgZh1r9+1/H6DipxcEUmMjNbLlnfoBQAOk3YgBNblyEzMxMrtp+CLuUC3LHwTVxvn2/axQ/DDT9XTDVpv8UV50Q4X9eq4QS2Lmvfh6XLNqG2bWNF2/6tya1Dj0E/wVMfPIXWsb4rIakTcf+5ij/8DbfifMfpEQBgxC8++gYv33I+ehqKsfvbLGSu2YVTliSc/8sXsfTNnyH2wAosa+2z/RQsACoOrmjZ36VYtql9b+H089e+7ys2F6DOeA4ue+BNrPrPg+jvtBvtXTMzM5G5ZBk2Ot+lg/bbrs1tQNzQmXj647+g7e8qaffikoE2lJfWImrI1bi7l8OXGu/Dhx/MxdS0UBRtXd6yX0fRGJ6CMADG+z7EB3OnIi20CFuXZyIzcwU2H21EeEqYw524sq/qBd5j2P+woRwbyrGhb+h79OihvM6juNBygdhwyJ9fwW3nRaNu76uYNfYSXHv7Q5g////wsysvxjXzDwOpT+Pp2ecgsnY3Xpo5ATN/+RDmz/klrrnkerybXYeIc2/GC4/0dLrPmspKhKffiEVz0qAc2ZzVoeD5+Zg/v+WyYDkqu2xoRun3z2LevHm4/6aZ+DS3Cfqk/pia4nCTukpUWmIw5Oq74Tg7TZx/GQYaylBc0exwbQtzKb5/dh7mzbNf/vjuLjS2bTShYJH9+nuufhrri5sR1nMkZp3pVb+aSlTaemPsw5PR/kF4Rsz5+RgkVBej2OJw2xtex0MTEtF87Cv8esKluOHehzHvnhtx2eTHsKZIh16XPoyFg77G3x5r2b8t5WgGYCpY1LK/f8S7u9r31vnnz4SChY/gkUcewW9+cRUmjp+P74qsiB9zO/5+s+NL1GaUfv8MHnnEfttH/vgOHO5Sof22d1/9U/znkBlhaeNxV1/71omPXor+ulNY/eEeVEUMwuX39G7/0ilj0TdKj+L1D2LmrQ+27NeVuOzm11EGYMrYvojSF2P9gzNx64OP4JFHfoNfXHkZbn69rP0+XNpXdQLxMexv2FCODeXY0Lt69OiB3r17o3fv3t79GC0utFxgNpyB+ZcPQLjpID791ULkOA5XLc6fOxUDwy04uuIhvFjoOADm4e9/WYeTFiMGXXYPHEYVVG/5GFvLjRhxxyL835mGPYXuN0xCZKgOsDSh1uxwtfUY9uXUInLoDDyU1nrlDNw5rjeacrchTzTsxCA8VAdY6lHSpNzmoPog9pyyotf592JW66vDxjmYMcyI0zt/RJlDwntvHoMEQwV2vPQ4vjW1Xw/TUjz06X7U6nrhvNsmOgzCXTtrO9MS3PPeHtTqEjBo2gXdus8zK4XJ7Pg9J+LnY3oBx7bi1Ze+xyFTOAZf/hDaluF0LZpsQNIFc/FAuuN5J62bm2BDEi6Y+wA62ewVZ21IZ8WGcmwox4be55OP0eJCywVuw/PQJ84AVBzGl6eV2+yGpURDjxLkfXpSuQnYfBTVzUBEdE+0no0KALBk4d63d6M2ejTufunn6HBKapu+uPqb9nNgW88/7Vwoki79IxYuXIhX/v0RZg/Uo3Tr2/h7oeNtrNiUuQvlulRMmDPM/urvDbfi/ORq7P9sNeodb9oqZjQe/bH9vNL1rSfeAgCMGPzIQixcuBBvfzUP42ObkL/qaWTWONykgzK8/b/DaIxPx40Z9j952m+vwDkhx7BhwTFY226XhtTYcOjqTmDL9x3v0JRXilorEBl/LqKVGxW6/fNXWNHJfcZg9KPb2s8r3fCyw/m5XYnHxY+8i4zBYbCc2I73TwC48TeY2Bs4sf19nMCb+CanDobUCXig9WTgnU/g+ZVHYIoaifu/3ovtq17DHQ4nUO984nmsPGJC1Mj78fXe7Vj12h3O51cDKve1e7rdkLrEhnJsKMeGvueVAZYLLaf1htHhodApr+wG0xu34/VdtYi78AE8P8NpvHXgfA6s8/mnShHoO34WZs+ejZkXROHg6zdixu2foUp5s6WvYdMpIHXSfEwOb/2n+3xkLa9T3tJOcQ5s1jelDhvjMWzmbMyePRuX96/CisevwlWP56KTExGcnPrHMhyojcOIW36FXpiI+ZcNhOHEj3g3r318BRIRHaqmrDP5z5/ivNKlq+znIXeqdYDcgU8euAhJtfvx8R+ewsFm4MaMcxGnO419H+ShGcDHa/NRZ0jFxDnntpxGYsKSBy7DlDnvYvOxRsQM+Qme+nojPpvT377dtAQPXDYFc97djGONMRjyk6fw9cbPMMfphF1X9rX75A2JDeXYUMbGTw1RbfDgweKLI48PsFxoGW08WE6iymQFolIwoYuXSbcdq0Az4tH/WseTTVtM6I8eBqCuogAdT3gx4Y1HPkZ2XRIueXIhRnd4NQ32c2BbzjHteP6pUg12P3chzvvpB8g2xWHML57CbX07O8N2Ez7bVQRrynD8YupDLf90/xoWd5h0WyjOgX1umeMNT+Cr6YMw9ndrURQ6AFfePw9Tu5rFHZnexZr8OkQOmILbbr4T43o3IXfFIhx0mnx34kBpA2xRKRg9ouM/6BuHJCFaD9QWrUelcmMLV3/+jKN6I85gRfXxdQ73qTiv9LllHf9S0KZ1gHwPf73jSlx44TV4Zr0JwL24aUwCDPq+uHpZPg4fPoz988YgWqdH77FzMdnhj1ex8k+4ZeoYXPSbpThkScKEu/6O2W1vxKvAyj/dgqljLsJvlh6CJWkC7vr77JZPKYCL+9o9rjakjthQRhvHEt9iP//i0QGWiy2jnX6fYcn+CjTHnY/7/jnL6SOWWu38z06caorAkBtewYNpjjcYgt89MQV9Qkw4uuFzlDhsaXNsIeZ/kYum3lNx0+ho51dyVSY07XoGP/vnFlRGjcb/vfH7Tj/pYNOC/+GwuRcu/OsNGBp2Ctv/tf4Mg/HZVfznLtz+3wLYUmfizy/PcD5dolMmvPzpLpSHD8Utj16EZFMevnqnSHkjfPxtLmqsKbj4mQWY5ninxmvxws9HINpWhAP/tr+iqeTyz2D8TXj9+mGIMOVh5aIDnd7n2bUOkM/ire/z0PqeOOOcmUiPsqE8u/XTEeyXH080Qd/rPNx+cccBvWLl4/iu0AzE9sWkpA5bsfLx72DfPAkdNruJyw3JCQcvOfaTY0MZT/TzyADLJxw5rfVb/OT72FmuQ59pi7B282r8543nsWDBW/jPmq1YtWggsPkJPL++CM09RmPOsnVY+sELWPDyR1j14zLcMzwKtbvfwv2LujiBFkDenx7G0kM2xMVHtf1QSxuaPvk9Pj9Qg4j0G/F8Z590UPgPLDtQi+j4eOiObcIrB84wroUm4dI/2s9zXbhwIRY+exfGdJy3kPfkAnxf1IyUSX/AwulnH2Gx2H4qQ2x8DKoPLsanjm+mb2F6/ff494EahKTOxIvrvsV/3/wXFr69BD9sWYAretlwbMUf8eDazkbv7vQzYvC8RVi0aBFe/fgbbN/yN0xOrMaON36Fvx1y7BGKpEufwqJF9tsuWvQs7u4sQJeMuOuKcxBlK8au5+a2vzr6yCO4IysPDUjB6HtnIWbul9i6MQsfvdiyT/9ZiVuHhqHp+A789yQw98ut2Jj1EV5ctAiLFr2K/6y8FUPDmnB8x3/Rfva1dF/t+Dwox35ybCjHhup58nnQ7QOsp3Y0mGiy4bFXcdOVD+DznUVojOqPsdMyMHv2pRiZYEXlcRMAE5beOx03L/oehZZYDLvkGsyeOQEDwiuRu+IPuOrGF+H04QQd5OHJ+79EQesc5paGhVgwbxkON8ZgxJ3Pd/JJBya8vDIXdTZTJ/90rxDRF+Nn2c9znT17NmZfOwsTO33X1Co88so2lOv64LIn/opLzjo3bcJ720/CYi3CztcWd/FP3Xn426ypuP+zbFSF98OYaRmYffkIJDadwOZ3/w8zH/gWjh9O4Fq69vN3r7ywF5oPrcIzM8bj+hePKl59bT+32H65DrMu7jRA59J+i1nnRsNWnI2PNjkP26aX16GgAYhP/xmuLS9GfeRgjL/K/n1mnJ+AurwVePrmefihEThRXI/IweNx1ezZmD17Bs5PqEPeiqdx87wfHF49F+6rVh/DXsaGcmwox4bqebqdbsqUKbaTJzt557cKnt7ZYMCGcmyoHtvJsaEcG8qxoRwbqtdZu/379yuvcllGRgby8vIAd74C29nOkmvYUI4N1WM7OTaUY0M5NpRjQ/W81c4tA6y3dlbL2FCODdVjOzk2lGNDOTaUY0P1vNlOPMB6c2e1ig3l2FA9tpNjQzk2lGNDOTZUz9vtRAOst3dWi9hQxubBdzgGA7aTY0M5NpRjQxkeS2R80U71AOuLndUSPljk2E+G/eTYUI4NZXgskWM/GV/1c3mA5YNFjv3k2FCG/eTYUIbHEjn2k2NDGV/2c2mA9eWOagUbyrGhDPvJcPCSYz85NpRjQ/X84Xmw2wOsr3dUC9hQjg3V84cnnEDHfnJsKMeGcmyonr+069YA6y87G8jYUI4N1WM7OTaUY0M5NpRjQ/X8qd1ZB1h/2tlAxYZybKge28mxoRwbyrGhHBuq52/tzvirZP1tZwMRG3ZPqD4aIYYI5dUAG4qwnRwbyrGhnKRhs7URTc01yquDjqRhsHNHO3f/KtkuB1h37GywY8OuRYYmIa3HZUiJGg1jaAr0ulDlTYiIyE2stmaYzMUoqd2HI5XfoabxuPImmsbjsXruaueVAdZdOxvM2LBr/eOuQHrijTDowtuua7CWoMlS7XQ7IiKSCzXEINKQ0vbfVlsz8kqXIq9sKay2Zqfbag2PxTLu7OfxAdadOxuM2K9rBl04xvWdi4SIdADA0drlKLfsgFVfD/1Zz8YmIiK1rFYbdM0RiDacg6E9fgEAqGo4is3H/olGS5Xy5prA47GMu/u5e4BtGxts/IgdMfbrmg46nJt0CxIi0nHC9B12Vv4J5fgBCOHwSkTkaXq9DrrQRtTp92NHxTM4XvcdYiP6Iz3peuigU9484PF4LBMI/fQIkB31d2x4ZqmxU5EaeykqmvajqOl/QIhJeRMiIvICXWgDiprWoLxxHwbEX47+8ZcrbxLQeDxWL5BezORrX24QKIvtSwPjfgIAONnwHfQh2j7niojI3xlCrThatxwAcG7KTQjRd/4pMIGGx2P1Aq0dB1ihQFtwX+gRngZjaAoarRVo0p9SbiYiIl8Iq0JZwx6E6o1Iihqh3BpweDxWLxDbcYAVCMQF94XY8EEAgNP1Pyg3ERGRD5U17gMAJEQOUW4KKDweqxeo7TjAqhSoC+4LkaGJAIA6ywnlJiIi8qF6m/15OTwkVrkpYPB4rF4gt+MAq0IgL7gvRITEAwAabWXKTURE5ENWW5PyqoDC47F6gd6OA6yLAn3BiYiIAp0tgN4t748Ct50RAy44F70jOcB2Gx8sREREvsdjsYxW+nGA7QatLDYREVEg4/FYRkv9OMCehZYW21fYkIiIpHgsUU+L/4rMAfYMtLbYvsCGREQkxWOJelptxwG2C1pdcG9iQyIikuKxRD0tt+MA2wktL7i3sCEREUnxWKKe1ttxgFXQ+oJ7AxsSEZEUjyXqBUM7DrAOgmHBPY0NiYhIwqbBNxx5U7C04wDbIlgW3FP4hENERFI8jshov58JR3YcwKl6DrAcvNyA/YiISIrHEplg6xfUA2ywLbYnsCEREUnxWCITjP2CdoANxsV2NzYkIiIpHkvUC+Z/RQ7KATZYF9ud2JCIiKR4LFEv2NsF3QAb7AvuDmxIRERSPJaox3ZBNsByweXYkIiIpHgsUY/t7IJmgOWCy7EhERFJ8ViiHtu1C4oBlgsux4ZERCRhC+I3HLkD2znT/ADLBZfhEw4REUnxOCLDfh1pdoDl4CXHfkREJMVjiQz7dU6TAywXW44NiYhIiscSGfbrmuYGWC62nLsbWqx1AIBQXaxyExER+VDr83JTc61yk5i7jyXBhP+KfHaaGmC52HKeaFjTeAIAEBs2VLmJiIh8KFLfCwDQbG1SbhLxxLEkWLBd92hmgOWCy3mqYVn9QQBAz4gJHvseRETkuoTwkQCAUlO2cpNqfJ5Xj+26TxMDLBdczpMNTeZiVDUeQaguBkbbIOVmIiLyAb05GfHh6ag3l6PclKvcrIonjyVax3auCfgBlgsu542Ge0+/CxusGNbjXtgsocrNRETkRc0W4Ly4XwMA9hS9C6vNrLyJy7xxLNEqtnNdQA+wXHA5bzWsbixEflkWAGCI8S6ENfeB1eqd701ERHZWqw2hlt4YarwXBl0kckq+xOnaXcqbucTGNxyJsJ06uilTpthOnLC/ySaQcMFlfNFPBz1G9rwL/XpMAgAUN/yI040bYLZVwKaX/+2fAo33fwY1hwmpm2xWA8J08UgIGYN+0dMAAKdrd2H7iZdhsTYob95tvjiWaEkw9du/f7/yKpdlZGQgLy8PCMQBNpgW21N83bBPzESkxV6GhEh+KgERkbeVmXJwtHINjlf9oNzkEl8fSwJdsPUL6gE22BbbE/ylYajeiOSo0YgNH4i4yIGIMMQrb0JERG7S2FyDClM+qhuPoqh2JxotVcqbuMRfjiWBKFjbBe0AG6wL7k5sqB7bybGhHBvKsaEcG6oXzO3cPcAGxJu4gnnB3YUN1WM7OTaUY0M5NpRjQ/XYzr38foDlgsuxoXpsJ8eGcmwox4ZybKge27mfXw+wXHA5NlSP7eTYUI4N5dhQjg3VYzvP8NsBlgsux4bqsZ0cG8qxoRwbyrGhemznOX45wHLBZWz8UGkRtpNjQzk2lGNDGR5LZNjOs/xugOWCy7CfDPvJsaEcG8pw8JJjPxn28zx9aKh//F56PuHIsZ8M+8mxoQyfB+XYT44NZdjPc0JDQxEZGYnIyEjozWbf/wpPLrYcG8qwnwwHLzn2k2NDOTZUj8+Dnmc2m1FfX4/6+nrfn0LAxZZjQ/X4hCPHfnJsKMeGcmyoHtt5n08HWC64HBuqx3ZybCjHhnJsKMeG6rGdb/hsgOWCy7Ghemwnx4ZybCjHhnJsqB7b+Y5PBlguuBwbqsd2cmwox4ZybCjHhuqxnW95fYDlgsuxoXpsJ8eGcmwox4ZybKge2/meVwdYLriMjW84EmE7OTaUY0M5NpThsUSG7fyD1wZYLrgM+8mwnxwbyrGhDAcvOfaTYT//4fEBlk84cuwnw35ybCjD50E59pNjQxn28y8eHWC52HJsKMN+Mhy85NhPjg3l2FA9Pg/KeaKfxwZYT+xssGFD9fiEI8d+cmwox4ZybKge28l5qqFHBlhP7WwwYUP12E6ODeXYUI4N5dhQPbaT82RDtw+wntzZYMGG6rGdHBvKsaEcG8qxoXpsJ+fJhjqdzr0DrCd3NliwoXpsJ8eGcmwox4ZybKge28l5o6HbBlhv7KzWsaF6bCfHhnJsKMeGcmyoHtvJeauhWwZYb+2sVtn4hiMRtpNjQzk2lGNDGR5LZNhOzpsNRQMsHyxy7CfDfnJsKMeGMjyWyLGfDPvJebuh6gHW2zuqRWwow35ybCjDwUuO/eTYUIb9ZHz1PKhqgPXFjmoNG8qwn4yvnnC0hP3k2FCODdXj86CcL/u5PMD6cme1gg3V4xOOHPvJsaEcG8qxoXpsJ+eOhgUFBcqrAAAnT55UXtWBSwOsO3Y22LGhemwnx4ZybCjHhnJsqB7bybmr4Z49ezoMq2VlZdi2bZvTdZ3p9gDrrp0NZmyoHtvJsaEcG8qxoRwbqsd2cu5seM4552D79u0oKysDANTU1GDLli3o1auX8qZObDZb9wZYd+5ssGJD9dhOjg3l2FCODeXYUD22k3N3w5EjR6Jnz57YunUrSktLsWXLFkRHR2Ps2LHKmzrR6XTQWywWGAwG5bY27t7ZYMSG6rGdHBvKsaEcG8qxoXpsJ+ephmPHjkVUVBTWr18PAJgwYUKnc2lZWRksFkvbf+sbGxsRGhrqdKNWntrZYGHjG45E2E6ODeXYUI4NZXgskWE7OU82NBgMGD9+PJKSknDRRRchLCxMeRMAQH5+PhobG9v+W9/Q0NBhgOWDRY79ZNhPjg3l2FCGxxI59pNhPzlvNIyIiMDkyZMRExOj3NSmoKAADQ0Nbf+tr62tRUxMDEJCQgAv7ajWsaEM+8mxoQwHLzn2k2NDGfaT8afnwZMnT2Lx4sWora1tu07f1NSEsrIyxMbG+s2OBjI2VM+fHiyBig3l2E+ODeXYUD0+D8r5W7933nkHRUVFaGpqgk6nA1o/RquiogJWqxVJSUltr8SS6/xtwQMJ28mxoRwbyrGhHBuqx3Zy/tTw5MmT+NOf/oTvv/8eFRUVTtt0ffr0sbXubFxcHJKSklBTUwOz2YympiY0Nzc7fQF1zp8WPNCwnRwbyrGhHBvKsaF6bCfnyYbZ2dnKqzpVVlaGgoIC5OfnY/HixTh16hQqKyuBlo/PaqXr3bu3096GhYUhOjoaERERCAsL4yuyHuTJHxQiOrOIiAin/+7Oc53jR7ig5Wscz8lyFB0d3eU2IgpsjoMUuZfFYkFTUxMaGhpQW1uLpqamtm1OA6zjK7COlNcp/5t8j2tCpJ7y3a7h4eFO/90Zx49wQcvXlJaWOl3XKikpqcttRORbHED9j3JNlP+tvK5bv4kLLV90pgt5n3INXLkQBTvlY0LtpStn2kZEcsrHoisX8j7lGigvrtKjiyfazq47E+WOuHIh71OugTcvREREymODqxdynbKhNy+u6Oz2yuvO+Aqs8saeovxDunqhwKJcP1cvRETkHsrnV29eiDrT2c9GZ9e1DbCdbQwUygeFKxcKPMo19OaFtEO5tmovXTnTNiJHyp8pb14o8CjX0JWLlji9AtvZH66z64iClfLJwJsXIvIc5ePNmxcKLsr1d/WiZZ39+bq67v8BhmuIJ8zYwTMAAAAASUVORK5CYII=;" vertex="1" parent="m7nDWIWxTjSlVd-6DrOc-7">
          <mxGeometry x="20" y="20" width="279.37" height="325.66" as="geometry" />
        </mxCell>
        <mxCell id="m7nDWIWxTjSlVd-6DrOc-9" value="" style="endArrow=none;html=1;rounded=0;exitX=1;exitY=0.5;exitDx=0;exitDy=0;" edge="1" parent="1" source="m7nDWIWxTjSlVd-6DrOc-7">
          <mxGeometry width="50" height="50" relative="1" as="geometry">
            <mxPoint x="390" y="310" as="sourcePoint" />
            <mxPoint x="140" y="235" as="targetPoint" />
          </mxGeometry>
        </mxCell>
        <mxCell id="m7nDWIWxTjSlVd-6DrOc-10" value="l&#39;utilisateur entre ces données" style="text;html=1;align=center;verticalAlign=middle;whiteSpace=wrap;rounded=0;" vertex="1" parent="1">
          <mxGeometry x="-40" y="160" width="160" height="50" as="geometry" />
        </mxCell>
        <mxCell id="m7nDWIWxTjSlVd-6DrOc-11" value="Login.xaml.cs&lt;br&gt;&lt;span style=&quot;text-align: left;&quot;&gt;+ UserService.CreerUtilisateur(pseudo, nom, prenom, email, taille, poids, motDePasse, ...)&lt;/span&gt;" style="whiteSpace=wrap;html=1;aspect=fixed;" vertex="1" parent="1">
          <mxGeometry x="140" y="20" width="490" height="490" as="geometry" />
        </mxCell>
        <mxCell id="m7nDWIWxTjSlVd-6DrOc-12" value="Récuperer par la logique de l&#39;interface" style="text;html=1;align=center;verticalAlign=middle;whiteSpace=wrap;rounded=0;" vertex="1" parent="1">
          <mxGeometry x="310" y="-50" width="160" height="50" as="geometry" />
        </mxCell>
        <mxCell id="m7nDWIWxTjSlVd-6DrOc-13" value="" style="endArrow=classic;html=1;rounded=0;exitX=1;exitY=0.5;exitDx=0;exitDy=0;entryX=-0.016;entryY=0.292;entryDx=0;entryDy=0;entryPerimeter=0;" edge="1" parent="1" source="m7nDWIWxTjSlVd-6DrOc-11" target="m7nDWIWxTjSlVd-6DrOc-19">
          <mxGeometry width="50" height="50" relative="1" as="geometry">
            <mxPoint x="490" y="370" as="sourcePoint" />
            <mxPoint x="550" y="237" as="targetPoint" />
          </mxGeometry>
        </mxCell>
        <mxCell id="m7nDWIWxTjSlVd-6DrOc-15" value="Appele de UserService.cs" style="text;html=1;align=center;verticalAlign=middle;whiteSpace=wrap;rounded=0;" vertex="1" parent="1">
          <mxGeometry x="640" y="140" width="160" height="50" as="geometry" />
        </mxCell>
        <mxCell id="m7nDWIWxTjSlVd-6DrOc-16" value="&lt;span style=&quot;font-weight: 400;&quot;&gt;UserService.cs&lt;/span&gt;" style="swimlane;fontStyle=1;align=center;verticalAlign=top;childLayout=stackLayout;horizontal=1;startSize=26;horizontalStack=0;resizeParent=1;resizeParentMax=0;resizeLast=0;collapsible=1;marginBottom=0;whiteSpace=wrap;html=1;" vertex="1" parent="1">
          <mxGeometry x="810" y="150" width="473" height="138" as="geometry" />
        </mxCell>
        <mxCell id="m7nDWIWxTjSlVd-6DrOc-17" value="+ field: type" style="text;strokeColor=none;fillColor=none;align=left;verticalAlign=top;spacingLeft=4;spacingRight=4;overflow=hidden;rotatable=0;points=[[0,0.5],[1,0.5]];portConstraint=eastwest;whiteSpace=wrap;html=1;" vertex="1" parent="m7nDWIWxTjSlVd-6DrOc-16">
          <mxGeometry y="26" width="473" height="26" as="geometry" />
        </mxCell>
        <mxCell id="m7nDWIWxTjSlVd-6DrOc-18" value="" style="line;strokeWidth=1;fillColor=none;align=left;verticalAlign=middle;spacingTop=-1;spacingLeft=3;spacingRight=3;rotatable=0;labelPosition=right;points=[];portConstraint=eastwest;strokeColor=inherit;" vertex="1" parent="m7nDWIWxTjSlVd-6DrOc-16">
          <mxGeometry y="52" width="473" height="8" as="geometry" />
        </mxCell>
        <mxCell id="m7nDWIWxTjSlVd-6DrOc-19" value="+ VerifierPseudo(password): bool" style="text;strokeColor=none;fillColor=none;align=left;verticalAlign=top;spacingLeft=4;spacingRight=4;overflow=hidden;rotatable=0;points=[[0,0.5],[1,0.5]];portConstraint=eastwest;whiteSpace=wrap;html=1;" vertex="1" parent="m7nDWIWxTjSlVd-6DrOc-16">
          <mxGeometry y="60" width="473" height="26" as="geometry" />
        </mxCell>
        <mxCell id="m7nDWIWxTjSlVd-6DrOc-20" style="edgeStyle=orthogonalEdgeStyle;rounded=0;orthogonalLoop=1;jettySize=auto;html=1;exitX=1;exitY=0.5;exitDx=0;exitDy=0;" edge="1" parent="m7nDWIWxTjSlVd-6DrOc-16" source="m7nDWIWxTjSlVd-6DrOc-17" target="m7nDWIWxTjSlVd-6DrOc-17">
          <mxGeometry relative="1" as="geometry" />
        </mxCell>
        <mxCell id="m7nDWIWxTjSlVd-6DrOc-21" value="+ VerifierNom(Nom): bool" style="text;strokeColor=none;fillColor=none;align=left;verticalAlign=top;spacingLeft=4;spacingRight=4;overflow=hidden;rotatable=0;points=[[0,0.5],[1,0.5]];portConstraint=eastwest;whiteSpace=wrap;html=1;" vertex="1" parent="m7nDWIWxTjSlVd-6DrOc-16">
          <mxGeometry y="86" width="473" height="26" as="geometry" />
        </mxCell>
        <mxCell id="m7nDWIWxTjSlVd-6DrOc-24" value="JsonService.SauvegarderUtilisateur(&quot;user.json&quot;, UtilisateurActif);" style="text;strokeColor=none;fillColor=none;align=left;verticalAlign=top;spacingLeft=4;spacingRight=4;overflow=hidden;rotatable=0;points=[[0,0.5],[1,0.5]];portConstraint=eastwest;whiteSpace=wrap;html=1;" vertex="1" parent="m7nDWIWxTjSlVd-6DrOc-16">
          <mxGeometry y="112" width="473" height="26" as="geometry" />
        </mxCell>
        <mxCell id="m7nDWIWxTjSlVd-6DrOc-25" value="" style="endArrow=classic;html=1;rounded=0;exitX=1;exitY=0.5;exitDx=0;exitDy=0;" edge="1" parent="1" source="m7nDWIWxTjSlVd-6DrOc-24">
          <mxGeometry width="50" height="50" relative="1" as="geometry">
            <mxPoint x="1350" y="275" as="sourcePoint" />
            <mxPoint x="1522" y="260" as="targetPoint" />
          </mxGeometry>
        </mxCell>
        <mxCell id="m7nDWIWxTjSlVd-6DrOc-26" value="&lt;span style=&quot;font-weight: 400;&quot;&gt;JsonService&lt;/span&gt;" style="swimlane;fontStyle=1;align=center;verticalAlign=top;childLayout=stackLayout;horizontal=1;startSize=26;horizontalStack=0;resizeParent=1;resizeParentMax=0;resizeLast=0;collapsible=1;marginBottom=0;whiteSpace=wrap;html=1;" vertex="1" parent="1">
          <mxGeometry x="1520" y="202" width="473" height="86" as="geometry" />
        </mxCell>
        <mxCell id="m7nDWIWxTjSlVd-6DrOc-27" value="+ field: type" style="text;strokeColor=none;fillColor=none;align=left;verticalAlign=top;spacingLeft=4;spacingRight=4;overflow=hidden;rotatable=0;points=[[0,0.5],[1,0.5]];portConstraint=eastwest;whiteSpace=wrap;html=1;" vertex="1" parent="m7nDWIWxTjSlVd-6DrOc-26">
          <mxGeometry y="26" width="473" height="26" as="geometry" />
        </mxCell>
        <mxCell id="m7nDWIWxTjSlVd-6DrOc-28" value="" style="line;strokeWidth=1;fillColor=none;align=left;verticalAlign=middle;spacingTop=-1;spacingLeft=3;spacingRight=3;rotatable=0;labelPosition=right;points=[];portConstraint=eastwest;strokeColor=inherit;" vertex="1" parent="m7nDWIWxTjSlVd-6DrOc-26">
          <mxGeometry y="52" width="473" height="8" as="geometry" />
        </mxCell>
        <mxCell id="m7nDWIWxTjSlVd-6DrOc-29" value="+ SauvegarderUser" style="text;strokeColor=none;fillColor=none;align=left;verticalAlign=top;spacingLeft=4;spacingRight=4;overflow=hidden;rotatable=0;points=[[0,0.5],[1,0.5]];portConstraint=eastwest;whiteSpace=wrap;html=1;" vertex="1" parent="m7nDWIWxTjSlVd-6DrOc-26">
          <mxGeometry y="60" width="473" height="26" as="geometry" />
        </mxCell>
        <mxCell id="m7nDWIWxTjSlVd-6DrOc-30" style="edgeStyle=orthogonalEdgeStyle;rounded=0;orthogonalLoop=1;jettySize=auto;html=1;exitX=1;exitY=0.5;exitDx=0;exitDy=0;" edge="1" parent="m7nDWIWxTjSlVd-6DrOc-26" source="m7nDWIWxTjSlVd-6DrOc-27" target="m7nDWIWxTjSlVd-6DrOc-27">
          <mxGeometry relative="1" as="geometry" />
        </mxCell>
      </root>
    </mxGraphModel>
  </diagram>
</mxfile>
